<svg xmlns="http://www.w3.org/2000/svg" xmlns:xlink="http://www.w3.org/1999/xlink" fill="none" version="1.1" width="110" height="110" viewBox="0 0 110 110"><defs><clipPath id="master_svg0_1460_00635"><rect x="0" y="0" width="110" height="110" rx="0"/></clipPath></defs><g clip-path="url(#master_svg0_1460_00635)"><g><g><g><path d="M103.59525278320312,90.8164C105.04965278320313,93.2313,103.23165278320313,96.25,100.32285278320313,96.25L9.677142783203125,96.25C6.768332783203125,96.25,4.950328783203125,93.2313,6.404731783203125,90.8164L51.72755278320312,15.5612C53.18195278320312,13.146268,56.817952783203125,13.146268,58.272352783203125,15.5612L103.59525278320312,90.8164Z" fill="#FFDF0F" fill-opacity="1"/><path d="M103.59525278320312,90.8164C105.04965278320313,93.2313,103.23165278320313,96.25,100.32285278320313,96.25L9.677142783203125,96.25C6.768332783203125,96.25,4.950328783203125,93.2313,6.404731783203125,90.8164L51.72755278320312,15.5612C53.18195278320312,13.146268,56.817952783203125,13.146268,58.272352783203125,15.5612L103.59525278320312,90.8164ZM54.99995278320313,21.79079L96.21955278320313,90.2328L13.780442783203124,90.2328L54.99995278320313,21.79079Z" fill-rule="evenodd" fill="#0F263D" fill-opacity="1"/></g></g><g><path d="M41.69779721679687,85L37.09508721679688,85L37.09508721679688,65.775L41.69779721679687,65.775L41.69779721679687,85ZM50.56214721679687,85L38.46471721679688,85L38.46471721679688,81.0789L50.56214721679687,81.0789L50.56214721679687,85ZM50.19974721679687,77.12610000000001L39.79508721679687,77.12610000000001L39.79508721679687,73.3611L50.19974721679687,73.3611L50.19974721679687,77.12610000000001ZM50.435947216796876,69.6601L38.460007216796875,69.6601L38.460007216796875,65.775L50.435947216796876,65.775L50.435947216796876,69.6601ZM57.23634721679687,85L52.136247216796875,85L57.41424721679687,74.5068L57.41424721679687,75.4982L52.32854721679688,65.775L57.326547216796875,65.775L60.705847216796876,72.6118L60.95384721679687,72.6118L64.33894721679687,65.775L69.33704721679688,65.775L64.24074721679688,75.4982L64.24074721679688,74.5068L69.52484721679687,85L64.42474721679687,85L60.95384721679687,77.6785L60.701347216796876,77.6785L57.23634721679687,85Z" fill="#0F263D" fill-opacity="1"/></g></g></g></svg>