<svg xmlns="http://www.w3.org/2000/svg" xmlns:xlink="http://www.w3.org/1999/xlink" fill="none" version="1.1" width="110" height="110" viewBox="0 0 110 110"><defs><clipPath id="master_svg0_1460_00461"><rect x="0" y="0" width="110" height="110" rx="0"/></clipPath></defs><g clip-path="url(#master_svg0_1460_00461)"><g><g><g><path d="M82.775639140625,59.52877827148438L80.796539140625,25.796478271484375L76.902739140625,25.796478271484375L75.390869140625,59.52877827148438L82.775639140625,59.52877827148438Z" fill="#1C4B63" fill-opacity="1"/></g><g><path d="M81.89376197265625,59.52881271972656L80.30969197265625,26.769912719726562L77.38934197265625,26.769912719726562L76.27252197265625,59.52881271972656L81.89376197265625,59.52881271972656Z" fill="#1C4B63" fill-opacity="1"/></g><g><path d="M81.76997025390625,26.283193305664064L81.76997025390625,24.823013305664062L75.92926025390625,24.823013305664062L75.92926025390625,26.283193305664064L81.76997025390625,26.283193305664064Z" fill="#0F263D" fill-opacity="1"/></g></g><g><g><path d="M92.0750776171875,59.52877827148438L90.0959776171875,25.796478271484375L86.2021776171875,25.796478271484375L84.6903076171875,59.52877827148438L92.0750776171875,59.52877827148438Z" fill="#1C4B63" fill-opacity="1"/></g><g><path d="M91.19332251953125,59.52881271972656L89.60925251953125,26.769912719726562L86.68890251953125,26.769912719726562L85.57208251953125,59.52881271972656L91.19332251953125,59.52881271972656Z" fill="#1C4B63" fill-opacity="1"/></g><g><path d="M91.06940873046875,26.283193305664064L91.06940873046875,24.823013305664062L85.22869873046875,24.823013305664062L85.22869873046875,26.283193305664064L91.06940873046875,26.283193305664064Z" fill="#0F263D" fill-opacity="1"/></g></g><g><g><path d="M73.57941111328125,59.52877827148438L71.60031111328125,25.796478271484375L67.70651111328125,25.796478271484375L66.19464111328125,59.52877827148438L73.57941111328125,59.52877827148438Z" fill="#1C4B63" fill-opacity="1"/></g><g><path d="M72.697656015625,59.52881271972656L71.113586015625,26.769912719726562L68.193236015625,26.769912719726562L67.076416015625,59.52881271972656L72.697656015625,59.52881271972656Z" fill="#1C4B63" fill-opacity="1"/></g></g><g><path d="M72.522106484375,26.283193305664064L72.522106484375,24.823013305664062L66.681396484375,24.823013305664062L66.681396484375,26.283193305664064L72.522106484375,26.283193305664064Z" fill="#0F263D" fill-opacity="1"/></g><g><path d="M99.0000740234375,81.58331525878907L1.8333740234375,81.58331525878907L1.8333740234375,52.25001525878906L99.0000740234375,52.25001525878906L99.0000740234375,81.58331525878907Z" fill="#374C62" fill-opacity="1"/></g><g><path d="M108.16673505859374,59.58332824707031L40.33343505859375,59.58332824707031L40.33343505859375,85.2500282470703L108.16673505859374,85.2500282470703L108.16673505859374,59.58332824707031Z" fill="#306A88" fill-opacity="1"/></g><g><path d="M58.893871328125,77.38937377929688L54.026611328125,77.38937377929688L54.026611328125,85.17698377929688L58.893871328125,85.17698377929688L58.893871328125,77.38937377929688Z" fill="#64D98F" fill-opacity="1"/></g><g><path d="M94.91151048828125,77.38937377929688L90.04425048828125,77.38937377929688L90.04425048828125,85.17698377929688L94.91151048828125,85.17698377929688L94.91151048828125,77.38937377929688Z" fill="#64D98F" fill-opacity="1"/></g><g><path d="M40.39814287109375,73.49557086425781L5.35394287109375,73.49557086425781L5.35394287109375,69.60176086425781L40.39814287109375,69.60176086425781L40.39814287109375,73.49557086425781Z" fill="#233950" fill-opacity="1"/></g><g><path d="M40.39814287109375,67.65486145019531L5.35394287109375,67.65486145019531L5.35394287109375,69.60176145019531L40.39814287109375,69.60176145019531L40.39814287109375,67.65486145019531Z" fill="#142639" fill-opacity="1"/></g><g><g><path d="M106.33338701171876,61.416656494140625L42.16668701171875,61.416656494140625L42.16668701171875,64.16665649414062L106.33338701171876,64.16665649414062L106.33338701171876,61.416656494140625Z" fill="#64D98F" fill-opacity="1"/></g><g><path d="M47.66668701171875,66.00001525878906L42.16668701171875,66.00001525878906L42.16668701171875,68.75001525878906L47.66668701171875,68.75001525878906L47.66668701171875,66.00001525878906Z" fill="#64D98F" fill-opacity="1"/></g><g><path d="M77.00006103515625,66.00001525878906L71.50006103515625,66.00001525878906L71.50006103515625,68.75001525878906L77.00006103515625,68.75001525878906L77.00006103515625,66.00001525878906Z" fill="#64D98F" fill-opacity="1"/></g><g><path d="M62.3333740234375,66.00001525878906L56.8333740234375,66.00001525878906L56.8333740234375,68.75001525878906L62.3333740234375,68.75001525878906L62.3333740234375,66.00001525878906Z" fill="#64D98F" fill-opacity="1"/></g><g><path d="M91.666748046875,66.00001525878906L86.166748046875,66.00001525878906L86.166748046875,68.75001525878906L91.666748046875,68.75001525878906L91.666748046875,66.00001525878906Z" fill="#64D98F" fill-opacity="1"/></g><g><path d="M55,66.00001525878906L49.5,66.00001525878906L49.5,68.75001525878906L55,68.75001525878906L55,66.00001525878906Z" fill="#64D98F" fill-opacity="1"/></g><g><path d="M84.3333740234375,66.00001525878906L78.8333740234375,66.00001525878906L78.8333740234375,68.75001525878906L84.3333740234375,68.75001525878906L84.3333740234375,66.00001525878906Z" fill="#64D98F" fill-opacity="1"/></g><g><path d="M69.66668701171875,66.00001525878906L64.16668701171875,66.00001525878906L64.16668701171875,68.75001525878906L69.66668701171875,68.75001525878906L69.66668701171875,66.00001525878906Z" fill="#64D98F" fill-opacity="1"/></g><g><path d="M99.00006103515625,66.00001525878906L93.50006103515625,66.00001525878906L93.50006103515625,68.75001525878906L99.00006103515625,68.75001525878906L99.00006103515625,66.00001525878906Z" fill="#64D98F" fill-opacity="1"/></g><g><path d="M106.33343505859375,66.00001525878906L100.83343505859375,66.00001525878906L100.83343505859375,68.75001525878906L106.33343505859375,68.75001525878906L106.33343505859375,66.00001525878906Z" fill="#64D98F" fill-opacity="1"/></g></g></g></g></svg>