<svg xmlns="http://www.w3.org/2000/svg" xmlns:xlink="http://www.w3.org/1999/xlink" fill="none" version="1.1" width="110" height="110" viewBox="0 0 110 110"><defs><clipPath id="master_svg0_1460_00646"><rect x="0" y="0" width="110" height="110" rx="0"/></clipPath></defs><g clip-path="url(#master_svg0_1460_00646)"><g><g><path d="M76.27604150390624,82.74336888427734L59.16754150390625,74.66246888427735L59.16754150390625,31.637168884277344L76.27604150390624,39.936468884277346L76.27604150390624,82.74336888427734Z" fill="#051E37" fill-opacity="1"/></g><g><path d="M46.445678515625005,82.74337042236328L16.615478515625,82.74337042236328L16.615478515625,56.97187042236328L46.445678515625005,56.97187042236328L46.445678515625005,82.74337042236328Z" fill="#306A88" fill-opacity="1"/></g><g><path d="M68.141713671875,78.84955557861328L46.239013671875,78.84955557861328L46.239013671875,61.81415557861328L68.141713671875,61.81415557861328L68.141713671875,78.84955557861328Z" fill="#306A88" fill-opacity="1"/></g><g><path d="M106.1062009765625,82.74334714355469L76.2760009765625,82.74334714355469L76.2760009765625,39.93644714355469L106.1062009765625,39.93644714355469L106.1062009765625,82.74334714355469Z" fill="#306A88" fill-opacity="1"/></g><g><path d="M16.615498828125,82.74338264160156L3.893798828125,76.17748264160156L3.893798828125,50.85658264160156L16.572598828125003,56.96852264160156L16.615498828125,82.74338264160156Z" fill="#051E37" fill-opacity="1"/></g><g><path d="M106.10624150390625,39.936468884277346L89.04754150390625,31.637168884277344L59.16754150390625,31.637168884277344L76.27604150390624,39.936468884277346L106.10624150390625,39.936468884277346Z" fill="#397492" fill-opacity="1"/></g><g><path d="M68.141713671875,61.8141594140625L59.358413671875,56.9468994140625L46.239013671875,56.9468994140625L46.239013671875,61.8141594140625L68.141713671875,61.8141594140625Z" fill="#397492" fill-opacity="1"/></g><g><path d="M46.445698828125,56.971852641601565L33.745298828125,50.85658264160156L3.893798828125,50.85658264160156L16.615498828125,56.971852641601565L46.445698828125,56.971852641601565Z" fill="#397492" fill-opacity="1"/></g><g><path d="M44.316430546875,80.58916630859375L44.316430546875,76.57171630859375L38.893310546875,76.57171630859375L38.893310546875,80.58916630859375L44.316430546875,80.58916630859375Z" fill="#64D98F" fill-opacity="1"/></g><g><path d="M37.59176013671875,80.58916630859375L37.59176013671875,76.57171630859375L32.16864013671875,76.57171630859375L32.16864013671875,80.58916630859375L37.59176013671875,80.58916630859375Z" fill="#64D98F" fill-opacity="1"/></g><g><path d="M30.8670897265625,80.58916630859375L30.8670897265625,76.57171630859375L25.4439697265625,76.57171630859375L25.4439697265625,80.58916630859375L30.8670897265625,80.58916630859375Z" fill="#64D98F" fill-opacity="1"/></g><g><path d="M24.1424803515625,80.58916630859375L24.1424803515625,76.57171630859375L18.7193603515625,76.57171630859375L18.7193603515625,80.58916630859375L24.1424803515625,80.58916630859375Z" fill="#64D98F" fill-opacity="1"/></g><g><path d="M44.316430546875,65.49660649414062L44.316430546875,61.479156494140625L38.893310546875,61.479156494140625L38.893310546875,65.49660649414062L44.316430546875,65.49660649414062Z" fill="#64D98F" fill-opacity="1"/></g><g><path d="M37.59176013671875,65.49660649414062L37.59176013671875,61.479156494140625L32.16864013671875,61.479156494140625L32.16864013671875,65.49660649414062L37.59176013671875,65.49660649414062Z" fill="#64D98F" fill-opacity="1"/></g><g><path d="M30.8670897265625,65.49660649414062L30.8670897265625,61.479156494140625L25.4439697265625,61.479156494140625L25.4439697265625,65.49660649414062L30.8670897265625,65.49660649414062Z" fill="#64D98F" fill-opacity="1"/></g><g><path d="M24.1424803515625,65.49660649414062L24.1424803515625,61.479156494140625L18.7193603515625,61.479156494140625L18.7193603515625,65.49660649414062L24.1424803515625,65.49660649414062Z" fill="#64D98F" fill-opacity="1"/></g><g><path d="M60.8406492578125,78.8495832788086L60.8406492578125,72.0354232788086L54.0264892578125,72.0354232788086L54.0264892578125,78.8495832788086L60.8406492578125,78.8495832788086Z" fill="#64D98F" fill-opacity="1"/></g><g><path d="M103.91269931640625,49.546172023925784L103.91269931640625,44.30451202392578L78.46929931640625,44.30451202392578L78.46929931640625,49.546172023925784L103.91269931640625,49.546172023925784Z" fill="#64D98F" fill-opacity="1"/></g><g><path d="M103.91269931640625,57.4086521875L103.91269931640625,52.1669921875L78.46929931640625,52.1669921875L78.46929931640625,57.4086521875L103.91269931640625,57.4086521875Z" fill="#64D98F" fill-opacity="1"/></g><g><path d="M14.48930677734375,80.58917293945312L14.48930677734375,76.57172993945312L12.64544677734375,75.59451293945312L12.64544677734375,79.72054293945313L14.48930677734375,80.58917293945312Z" fill="#64D98F" fill-opacity="1"/></g><g><path d="M12.2116578515625,79.50335750976562L12.2116578515625,75.37733450976563L10.3677978515625,74.50869750976562L10.3677978515625,78.52614750976562L12.2116578515625,79.50335750976562Z" fill="#64D98F" fill-opacity="1"/></g><g><path d="M10.042346328125,78.30902157226562L10.042346328125,74.29157857226562L8.198486328125,73.31436157226562L8.198486328125,77.44039157226563L10.042346328125,78.30902157226562Z" fill="#64D98F" fill-opacity="1"/></g><g><path d="M7.7646363671875,77.11464140136718L7.7646363671875,73.0971984013672L5.9207763671875,72.22856140136719L5.9207763671875,76.24601140136718L7.7646363671875,77.11464140136718Z" fill="#64D98F" fill-opacity="1"/></g><g><path d="M14.48930677734375,65.496613125L14.48930677734375,61.479170125L12.64544677734375,60.501953125L12.64544677734375,64.627983125L14.48930677734375,65.496613125Z" fill="#64D98F" fill-opacity="1"/></g><g><path d="M12.2116578515625,64.30220089355468L12.2116578515625,60.28475789355469L10.3677978515625,59.30754089355469L10.3677978515625,63.43357089355469L12.2116578515625,64.30220089355468Z" fill="#64D98F" fill-opacity="1"/></g><g><path d="M10.042346328125,63.21641598144531L10.042346328125,59.198972981445316L8.198486328125,58.22175598144531L8.198486328125,62.34778598144531L10.042346328125,63.21641598144531Z" fill="#64D98F" fill-opacity="1"/></g><g><path d="M7.7646363671875,62.022064785156246L7.7646363671875,58.00462178515625L5.9207763671875,57.02740478515625L5.9207763671875,61.15343478515625L7.7646363671875,62.022064785156246Z" fill="#64D98F" fill-opacity="1"/></g><g><path d="M74.0825927734375,48.67252424316406L74.0825927734375,44.304494243164065L61.3450927734375,38.18922424316406L61.3450927734375,42.55727424316406L74.0825927734375,48.67252424316406Z" fill="#64D98F" fill-opacity="1"/></g><g><path d="M74.0825927734375,56.971825390625L74.0825927734375,52.603795390625L61.3450927734375,46.488525390625L61.3450927734375,50.856575390625L74.0825927734375,56.971825390625Z" fill="#64D98F" fill-opacity="1"/></g><g></g></g></g></svg>