<svg xmlns="http://www.w3.org/2000/svg" xmlns:xlink="http://www.w3.org/1999/xlink" fill="none" version="1.1" width="110" height="110" viewBox="0 0 110 110"><defs><clipPath id="master_svg0_1460_00923"><rect x="0" y="0" width="110" height="110" rx="0"/></clipPath></defs><g clip-path="url(#master_svg0_1460_00923)"><g><g><path d="M9.16668701171875,67.93518701171875L43.08338701171875,87.08338701171874L43.08338701171875,76.49078701171875L26.12498701171875,62.02779701171875L9.16668701171875,55.91668701171875L9.16668701171875,67.93518701171875Z" fill="#273F56" fill-opacity="1"/></g><g><g><path d="M19.772336755371093,67.37066734985352L19.772336755371093,64.95686734985351L16.537986755371094,62.945377349853516L16.537986755371094,65.35916734985352L19.772336755371093,67.37066734985352Z" fill="#64D98F" fill-opacity="1"/></g><g><path d="M15.729490075683593,64.9569176550293L15.729490075683593,62.5431176550293L12.495140075683594,60.5316276550293L12.495140075683594,62.945417655029296L15.729490075683593,64.9569176550293Z" fill="#64D98F" fill-opacity="1"/></g><g><path d="M20.985213005371094,74.61205592163085L20.985213005371094,70.58906592163086L15.729393005371094,67.77297592163086L15.729393005371094,71.79596592163085L20.985213005371094,74.61205592163085Z" fill="#64D98F" fill-opacity="1"/></g><g><path d="M34.326887810058594,82.05461319702148L34.326887810058594,78.23277319702149L29.071067810058594,75.41668319702148L29.071067810058594,79.23852319702148L34.326887810058594,82.05461319702148Z" fill="#64D98F" fill-opacity="1"/></g><g><path d="M23.815366540527343,69.78448570922852L23.815366540527343,67.37068570922851L20.581016540527344,65.35919570922852L20.581016540527344,67.77298570922852L23.815366540527343,69.78448570922852Z" fill="#64D98F" fill-opacity="1"/></g><g><path d="M27.858335290527343,72.19826592163086L27.858335290527343,69.78446592163085L24.623985290527344,67.77297592163086L24.623985290527344,70.18676592163087L27.858335290527343,72.19826592163086Z" fill="#64D98F" fill-opacity="1"/></g><g><path d="M31.901120935058593,74.61205376342774L31.901120935058593,72.19825376342773L28.666770935058594,70.18676376342773L28.666770935058594,72.60055376342774L31.901120935058593,74.61205376342774Z" fill="#64D98F" fill-opacity="1"/></g><g><path d="M35.94421175537109,77.02587212280274L35.94421175537109,74.61207212280273L32.709861755371094,72.60058212280273L32.709861755371094,75.01437212280274L35.94421175537109,77.02587212280274Z" fill="#64D98F" fill-opacity="1"/></g><g><path d="M39.98705843505859,79.43965996459961L39.98705843505859,77.0258599645996L36.752708435058594,75.01436996459961L36.752708435058594,77.42815996459962L39.98705843505859,79.43965996459961Z" fill="#64D98F" fill-opacity="1"/></g></g><g><g><path d="M43.0833740234375,76.53953587646484L43.0833740234375,87.08333587646484L100.8333740234375,53.62713587646484L100.2233740234375,43.083335876464844L43.0833740234375,76.53953587646484Z" fill="#06203A" fill-opacity="1"/></g><g><path d="M8.25,56.10636412353516L26.2411,62.341964123535156L83.2466,29.353444123535155L65.4576,22.916664123535156L8.25,56.10636412353516Z" fill="#5387A6" fill-opacity="1"/></g><g><path d="M26.24114990234375,62.34194696044922L43.22154990234375,76.62354696044922L100.83334990234376,43.03164696044922L83.24664990234375,29.35344696044922L26.24114990234375,62.34194696044922Z" fill="#39728F" fill-opacity="1"/></g><g transform="matrix(-1,0,0,1,114.743408203125,0)"><path d="M62.6275241015625,81.85345377929687L62.6275241015625,77.83046377929688L57.3717041015625,75.01437377929688L57.3717041015625,79.03736377929687L62.6275241015625,81.85345377929687Z" fill="#64D98F" fill-opacity="1"/></g><g transform="matrix(-1,0,0,1,153.1234130859375,0)"><path d="M81.81752654296875,70.701140546875L81.81752654296875,66.678150546875L76.56170654296875,63.862060546875L76.56170654296875,67.885050546875L81.81752654296875,70.701140546875Z" fill="#64D98F" fill-opacity="1"/></g><g transform="matrix(-1,0,0,1,185.8990478515625,0)"><path d="M98.20534392578125,61.33619608886719L98.20534392578125,57.31320608886719L92.94952392578125,54.49711608886719L92.94952392578125,58.52010608886719L98.20534392578125,61.33619608886719Z" fill="#64D98F" fill-opacity="1"/></g><g><g><g transform="matrix(-1,0,0,1,97.76312255859375,0)"><path d="M52.115911279296874,79.43965996459961L52.115911279296874,77.0258599645996L48.881561279296875,75.01436996459961L48.881561279296875,77.42815996459962L52.115911279296874,79.43965996459961Z" fill="#64D98F" fill-opacity="1"/></g><g transform="matrix(-1,0,0,1,105.84893798828125,0)"><path d="M56.158818994140624,77.02587212280274L56.158818994140624,74.61207212280273L52.924468994140625,72.60058212280273L52.924468994140625,75.01437212280274L56.158818994140624,77.02587212280274Z" fill="#64D98F" fill-opacity="1"/></g><g transform="matrix(-1,0,0,1,113.93487548828125,0)"><path d="M60.201787744140624,74.61205376342774L60.201787744140624,72.19825376342773L56.967437744140625,70.18676376342773L56.967437744140625,72.60055376342774L60.201787744140624,74.61205376342774Z" fill="#64D98F" fill-opacity="1"/></g><g transform="matrix(-1,0,0,1,122.02081298828125,0)"><path d="M64.24475649414063,72.19826592163086L64.24475649414063,69.78446592163085L61.010406494140625,67.77297592163086L61.010406494140625,70.18676592163087L64.24475649414063,72.19826592163086Z" fill="#64D98F" fill-opacity="1"/></g></g><g><g transform="matrix(-1,0,0,1,130.10665893554688,0)"><path d="M68.28767946777344,69.78448952392579L68.28767946777344,67.37068952392578L65.05332946777344,65.35919952392578L65.05332946777344,67.77298952392579L68.28767946777344,69.78448952392579Z" fill="#64D98F" fill-opacity="1"/></g><g transform="matrix(-1,0,0,1,138.19259643554688,0)"><path d="M72.33064821777344,67.37070168212891L72.33064821777344,64.9569016821289L69.09629821777344,62.945411682128906L69.09629821777344,65.35920168212891L72.33064821777344,67.37070168212891Z" fill="#64D98F" fill-opacity="1"/></g><g transform="matrix(-1,0,0,1,146.27841186523438,0)"><path d="M76.3735559326172,64.95692146972657L76.3735559326172,62.543121469726564L73.13920593261719,60.53163146972656L73.13920593261719,62.94542146972656L76.3735559326172,64.95692146972657Z" fill="#64D98F" fill-opacity="1"/></g><g transform="matrix(-1,0,0,1,154.36434936523438,0)"><path d="M80.4165246826172,62.543103110351566L80.4165246826172,60.129303110351564L77.18217468261719,58.11781311035156L77.18217468261719,60.53160311035156L80.4165246826172,62.543103110351566Z" fill="#64D98F" fill-opacity="1"/></g></g><g><g transform="matrix(-1,0,0,1,162.45030975341797,0)"><path d="M84.45950487670899,60.12931526855469L84.45950487670899,57.71551526855469L81.22515487670898,55.70402526855469L81.22515487670898,58.117815268554686L84.45950487670899,60.12931526855469Z" fill="#64D98F" fill-opacity="1"/></g><g transform="matrix(-1,0,0,1,170.53600311279297,0)"><path d="M88.50235155639649,57.715527426757816L88.50235155639649,55.301727426757814L85.26800155639648,53.29023742675781L85.26800155639648,55.70402742675781L88.50235155639649,57.715527426757816Z" fill="#64D98F" fill-opacity="1"/></g><g transform="matrix(-1,0,0,1,178.62206268310547,0)"><path d="M92.54538134155274,55.30171669677735L92.54538134155274,52.887916696777346L89.31103134155273,50.876426696777344L89.31103134155273,53.29021669677734L92.54538134155274,55.30171669677735Z" fill="#64D98F" fill-opacity="1"/></g><g transform="matrix(-1,0,0,1,186.70800018310547,0)"><path d="M96.58835009155274,52.887936484375004L96.58835009155274,50.474136484375L93.35400009155273,48.462646484375L93.35400009155273,50.876436484375L96.58835009155274,52.887936484375004Z" fill="#64D98F" fill-opacity="1"/></g><g transform="matrix(-1,0,0,1,194.79357147216797,0)"><path d="M100.63113573608399,50.87643898681641L100.63113573608399,48.46263898681641L97.39678573608398,46.451148986816406L97.39678573608398,48.864938986816405L100.63113573608399,50.87643898681641Z" fill="#64D98F" fill-opacity="1"/></g></g></g></g></g></g></svg>