<svg xmlns="http://www.w3.org/2000/svg" xmlns:xlink="http://www.w3.org/1999/xlink" fill="none" version="1.1" width="110" height="110" viewBox="0 0 110 110"><defs><clipPath id="master_svg0_1460_00762"><rect x="0" y="0" width="110" height="110" rx="0"/></clipPath><clipPath id="master_svg1_1460_00826"><rect x="58.1285400390625" y="34.89573860168457" width="14" height="17" rx="0"/></clipPath><clipPath id="master_svg2_1460_00816"><rect x="81.5416259765625" y="36.42051887512207" width="12" height="14" rx="0"/></clipPath></defs><g clip-path="url(#master_svg0_1460_00762)"><g><g><path d="M51.83103942871094,97.99956614074706L96.18463942871094,87.31976614074706L96.18463942871094,18.14728614074707L51.83103942871094,14.20396614074707L51.83103942871094,97.99956614074706Z" fill="#5B95B2" fill-opacity="1"/></g><g><path d="M14,89.78436614074707L51.831,97.99956614074706L51.831,14.20396614074707L14,17.32576614074707L14,89.78436614074707Z" fill="#0F263D" fill-opacity="1"/></g><g><path d="M52.5,78.99996219673156L76,74.49996219673156L76,19.99998219673157L52.5,18.132062196731567L52.5,78.99996219673156Z" fill="#9AD1EC" fill-opacity="1"/></g><g transform="matrix(0.9998738169670105,0.01502931583672762,-0.01502931583672762,0.9998738169670105,0.531793912285984,-0.8692289372397681)" clip-path="url(#master_svg1_1460_00826)"><g><path d="M65.2195024609375,38.03605842590332L59.8792724609375,49.26865842590332L70.5597724609375,49.26865842590332L65.2195024609375,38.03605842590332Z" fill="#FFFF25" fill-opacity="1"/></g><g><path d="M70.8750392578125,49.93279446105957L59.5658272578125,49.93279446105957C59.2719312578125,49.93279446105957,59.0783832578125,49.62649446105957,59.2045782578125,49.36099446105957L64.8591892578125,37.46780246105957C65.0038792578125,37.16347446105957,65.4369892578125,37.16347446105957,65.5816792578125,37.46780246105957L71.2363392578125,49.36099446105957C71.3624392578125,49.62649446105957,71.1689392578125,49.93279446105957,70.8750392578125,49.93279446105957M61.460709257812496,48.604694461059566L68.9814392578125,48.604694461059566C69.2753392578125,48.604694461059566,69.4689392578125,48.29829446105957,69.3426392578125,48.03289446105957L65.5817292578125,40.12400446105957C65.4370192578125,39.81969446105957,65.0039092578125,39.81971446105957,64.8592292578125,40.12404446105957L61.0994592578125,48.03289446105957C60.9732792578125,48.29839446105957,61.1668292578125,48.604694461059566,61.460709257812496,48.604694461059566" fill="#3D3D3D" fill-opacity="1"/></g><g><path d="M65.5765121875,47.21196526184082C65.5382321875,47.21196526184082,65.4985821875,47.20034526184082,65.4616721875,47.17710526184082C65.3413621875,47.099075261840824,65.2962421875,46.91811526184082,65.3591321875,46.772025261840824L66.1480021875,44.96411526184082L64.0712421875,44.97739526184082L64.0698741875,44.97739526184082C63.9864761875,44.97739526184082,63.9085465875,44.92592526184082,63.8634291875,44.84125526184082C63.8183121675,44.75659526184082,63.8101089875,44.64868526184082,63.8442886875,44.55571526184082C64.2325701875,43.49321526184082,64.6317891875,42.41909526184082,65.0310021875,41.36157226184082C65.0870621875,41.21049816184082,65.2333521875,41.14575216184082,65.3577621875,41.21381866184082C65.4821821875,41.28188516184082,65.5355021875,41.45952126184082,65.4794421875,41.61059626184082C65.1349121875,42.52534526184082,64.7890161875,43.45502526184082,64.4513201875,44.37641526184082L66.5581521875,44.36313526184082L66.5595221875,44.36313526184082C66.6456521875,44.36313526184082,66.7263221875,44.41791526184082,66.7700721875,44.50756526184082C66.8151821875,44.59721526184082,66.8179221875,44.71010526184082,66.7769021875,44.80307526184082L65.7952621875,47.05258526184082C65.7501521875,47.15385526184082,65.6640121875,47.21196526184082,65.5765121875,47.21196526184082Z" fill="#3D3D3D" fill-opacity="1"/></g><g><path d="M65.5768728125,47.41108237121582C65.5098828125,47.41108237121582,65.4442528125,47.391152371215824,65.3854628125,47.35297237121582C65.2883928125,47.28988237121582,65.2173028125,47.186952371215824,65.1858528125,47.05912237121582C65.1530428125,46.93129237121582,65.1639828125,46.79682237121582,65.2159328125,46.67895237121582L65.8762828125,45.16488237121582L64.0715998125,45.17650237121582C63.9321468125,45.17650237121582,63.8036308125,45.09184237121582,63.7284357125,44.95072237121582C63.6518731725,44.80795237121582,63.6395686125,44.63031237121582,63.6969906125,44.47592237121582C64.0852718125,43.41176237121582,64.4858578125,42.33764237121582,64.8837128125,41.27846037121582C64.97804281250001,41.02777717121582,65.2214028125,40.91820677121582,65.4278528125,41.03275787121582C65.5276528125,41.08754237121582,65.6028528125,41.187152371215824,65.6411328125,41.31166437121582C65.6794128125,41.43617537121582,65.6753128125,41.57230837121582,65.6301928125,41.69349937121582C65.3212128125,42.51361237121582,65.0108628125,43.34701237121582,64.7059728125,44.17543237121582L66.5598828125,44.16381237121582C66.7020728125,44.16381237121582,66.8374228125,44.25512237121582,66.9112528125,44.40453237121582C66.9850728125,44.55395237121582,66.9905428125,44.74154237121582,66.9221828125,44.89594237121582L65.9405428125,47.14545237121582C65.8680828125,47.30981237121582,65.7286328125,47.41108237121582,65.5768728125,47.41108237121582ZM66.4217928125,44.76313237121582L65.5044128125,46.86488237121582C65.4825328125,46.91303237121582,65.4989428125,46.97445237121582,65.5385928125,46.999362371215824C65.5508928125,47.00766237121582,65.5632028125,47.01098237121582,65.5768728125,47.01098237121582C65.6014828125,47.01098237121582,65.6329228125,46.99770237121582,65.6493328125,46.95785237121582L66.6309728125,44.70834237121582C66.6446428125,44.67680237121582,66.6432828125,44.64027237121582,66.6282428125,44.61039237121582C66.6132028125,44.58051237121582,66.5858528125,44.56225237121582,66.5571428125,44.56225237121582L64.1960128125,44.57719237121582L64.2999188125,44.29496237121582C64.6389818125,43.37357237121582,64.9848828125,42.44223237121582,65.3294128125,41.52748237121582C65.3417128125,41.49427937121582,65.3362428125,41.46605637121582,65.3321428125,41.45111537121582C65.3280428125,41.43617437121582,65.3157428125,41.40961137121582,65.2897628125,41.39467037121582C65.2487528125,41.37142837121582,65.1995328125,41.39467037121582,65.1803928125,41.44447537121582C64.7825328125,42.50033237121582,64.3833188125,43.57445237121582,63.9950368125,44.63695237121582C63.9840998125,44.66850237121582,63.9854668125,44.70336237121582,64.0018728125,44.73158237121582C64.0169118125,44.75980237121582,64.0428888125,44.77641237121582,64.0702318125,44.77641237121582L66.4217928125,44.76313237121582Z" fill="#3D3D3D" fill-opacity="1"/></g><g><path d="M65.2445965859375,47.99233533996582L66.2904955859375,47.35151533996582C66.3875655859375,47.29174533996582,66.3916655859375,47.12407333996582,66.2973355859375,47.05932733996582L65.1803395859375,46.279054239965824C65.0860035859375,46.21264803996582,64.9684250359375,46.30063613996582,64.9752609729375,46.43344833996582L65.0463548859375,47.85288533996582C65.0518235859375,47.97241533996582,65.1557295859375,48.04545533996582,65.2445965859375,47.99233533996582Z" fill="#3D3D3D" fill-opacity="1"/></g></g><g><path d="M52.80942916870117,96.35661186218262L75.96462916870118,90.93451186218262L75.96462916870118,75.65411186218262L52.80942916870117,79.96227186218262L52.80942916870117,96.35661186218262Z" fill="#0F263D" fill-opacity="1"/></g><g><path d="M76.94302368164062,90.60589628601075L95.53242368164062,86.49829628601074L95.53242368164062,72.03939628601074L76.94302368164062,75.65410628601074L76.94302368164062,90.60589628601075Z" fill="#0F263D" fill-opacity="1"/></g><g><path d="M77,19.9999680519104L77,73.9999680519104L96,70.9999680519104L96,20.9999680519104L77,19.9999680519104Z" fill="#9AD1EC" fill-opacity="1"/></g><g transform="matrix(0.9977236986160278,-0.06743437796831131,0.06743437796831131,0.9977236986160278,-2.270381719565208,5.581612903774612)" clip-path="url(#master_svg2_1460_00816)"><g><path d="M87.619576328125,39.00657844543457L83.042236328125,48.256968445434566L92.196926328125,48.256968445434566L87.619576328125,39.00657844543457Z" fill="#FFFF25" fill-opacity="1"/></g><g><path d="M92.36565703125,48.80401155090332L82.87519503125,48.80401155090332C82.57856303125,48.80401155090332,82.38512703125,48.492511550903316,82.51668903125,48.22661155090332L87.26190703125,38.63748155090332C87.40876703125,38.34069155090332,87.83204703125,38.34069155090332,87.97891703125,38.63748155090332L92.72415703125,48.22661155090332C92.85565703125,48.492511550903316,92.66225703125,48.80401155090332,92.36565703125,48.80401155090332M84.49937703125,47.71028155090332L90.74252703125,47.71028155090332C91.03916703125,47.71028155090332,91.23260703125,47.39870155090332,91.10101703125,47.13284155090332L87.97895703125,40.82493155090332C87.83207703125,40.52816155090332,87.40879703125,40.52818155090332,87.26194703125,40.82498155090332L84.14085703125,47.132891550903324C84.00931703125,47.39875155090332,84.20275703125,47.71028155090332,84.49937703125,47.71028155090332" fill="#3D3D3D" fill-opacity="1"/></g><g><path d="M87.9255394921875,46.56331707824707C87.8927194921875,46.56331707824707,87.8587394921875,46.55374707824707,87.8270994921875,46.53460707824707C87.7239694921875,46.47034707824707,87.6852994921875,46.32132707824707,87.7392094921875,46.20100707824707L88.4153794921875,44.71214707824707L86.6353004921875,44.72307707824707L86.6341284921875,44.72307707824707C86.5626444921875,44.72307707824707,86.4958475921875,44.68069707824707,86.4571754921875,44.61096707824707C86.4185037621875,44.54124707824707,86.4114723921875,44.45237707824707,86.4407692921875,44.37581707824707C86.7735814921875,43.50081707824707,87.1157694921875,42.61624707824707,87.4579594921875,41.74534507824707C87.5059994921875,41.62093057824707,87.6313894921875,41.56761037824707,87.7380394921875,41.62366517824707C87.8446794921875,41.67971997824707,87.8903794921875,41.82600907824707,87.8423294921875,41.95042307824707C87.5470194921875,42.70374707824707,87.2505354921875,43.46936707824707,86.9610824921875,44.22815707824707L88.7669394921875,44.21721707824707L88.7681094921875,44.21721707824707C88.8419394921875,44.21721707824707,88.9110794921875,44.26233707824707,88.9485794921875,44.33616707824707C88.9872494921875,44.40999707824707,88.9895994921875,44.50296707824707,88.9544394921875,44.57952707824707L88.1130394921875,46.43206707824707C88.0743594921875,46.51546707824707,88.0005394921875,46.56331707824707,87.9255394921875,46.56331707824707Z" fill="#3D3D3D" fill-opacity="1"/></g><g><path d="M87.9258734765625,46.72725043762207C87.8684534765625,46.72725043762207,87.8122034765625,46.71084043762207,87.7618134765625,46.67940043762207C87.6786134765625,46.62744043762207,87.6176734765625,46.54268043762207,87.5907234765625,46.437400437622074C87.5625934765625,46.33213043762207,87.5719734765625,46.22139043762207,87.6165034765625,46.12432043762207L88.1825134765625,44.87744043762207L86.6356424765625,44.88701043762207C86.5161114765625,44.88701043762207,86.4059544765625,44.81729043762207,86.3415016765625,44.70108043762207C86.2758766465625,44.58350043762207,86.2653298765625,44.43721043762207,86.3145487765625,44.31006043762207C86.6473614765625,43.43369043762207,86.9907204765625,42.54912043762207,87.3317334765625,41.67685643762207C87.4125934765625,41.47041143762207,87.6211934765625,41.38017693762207,87.7981434765625,41.47451323762207C87.8836934765625,41.51963023762207,87.9481434765625,41.60166143762207,87.9809534765625,41.70420043762207C88.0137634765625,41.80673943762207,88.0102534765625,41.91884943762207,87.9715834765625,42.01865343762207C87.7067334765625,42.69404043762207,87.4407234765625,43.38037043762207,87.1793924765625,44.06260043762207L88.7684534765625,44.05303043762207C88.8903334765625,44.05303043762207,89.0063434765625,44.12822043762207,89.0696234765625,44.25127043762207C89.1329034765625,44.37432043762207,89.1375934765625,44.52881043762207,89.0790034765625,44.65596043762207L88.2375934765625,46.50850043762207C88.1754834765625,46.64385043762207,88.0559534765625,46.72725043762207,87.9258734765625,46.72725043762207ZM88.6500934765625,44.54658043762207L87.8637634765625,46.27744043762207C87.8450134765625,46.31709043762207,87.8590834765625,46.36768043762207,87.8930634765625,46.38818043762207C87.9036134765625,46.39502043762207,87.9141534765625,46.39776043762207,87.9258734765625,46.39776043762207C87.9469734765625,46.39776043762207,87.9739234765625,46.38682043762207,87.9879834765625,46.35400043762207L88.8293934765625,44.50147043762207C88.8411134765625,44.47549043762207,88.8399434765625,44.44541043762207,88.8270434765625,44.42080043762207C88.8141534765625,44.39619043762207,88.7907234765625,44.38115043762207,88.7661134765625,44.38115043762207L86.7422824765625,44.39346043762207L86.8313444765625,44.16104043762207C87.1219694765625,43.40225043762207,87.4184534765625,42.63525043762207,87.7137634765625,41.881933437622074C87.7243134765625,41.85459043762207,87.7196234765625,41.83134743762207,87.7161134765625,41.81904343762207C87.7125934765625,41.80673843762207,87.7020434765625,41.78486343762207,87.6797834765625,41.772558437622074C87.6446234765625,41.753418437622074,87.6024434765625,41.772558437622074,87.5860334765625,41.81357443762207C87.2450174765625,42.68311043762207,86.9028294765625,43.56768043762207,86.5700174765625,44.44268043762207C86.5606424765625,44.468650437622074,86.5618134765625,44.49736043762207,86.5758764765625,44.52061043762207C86.5887674765625,44.54385043762207,86.6110324765625,44.557520437622074,86.6344704765625,44.557520437622074L88.6500934765625,44.54658043762207Z" fill="#3D3D3D" fill-opacity="1"/></g><g><path d="M87.6411381796875,47.20595383605957L88.5376241796875,46.67821683605957C88.6208241796875,46.62899883605957,88.6243441796875,46.49091183605957,88.5434841796875,46.43759283605957L87.5860601796875,45.79501413605957C87.5052007796875,45.74032663605957,87.4044194196875,45.81278743605957,87.4102787966875,45.92216283605957L87.4712164796875,47.091103836059574C87.4759038796875,47.18954383605957,87.5649661796875,47.24970383605957,87.6411381796875,47.20595383605957Z" fill="#3D3D3D" fill-opacity="1"/></g></g><g><path d="M51.83103942871094,16.50423614074707L97.00003942871093,20.11895614074707L97.00003942871093,18.14728614074707L51.83103942871094,14.20396614074707L51.83103942871094,16.50423614074707Z" fill="#325F75" fill-opacity="1"/></g><g><g transform="matrix(1,-0.002554649719968438,0.0024926771875470877,1,-0.19017179783195104,0.13485101494833884)"><g><path d="M52.7864990234375,81.222278487947L75.9392990234375,76.90844948794698L75.9392990234375,76.29218848794699L52.7864990234375,80.60601848794698L52.7864990234375,81.222278487947Z" fill="#5B95B2" fill-opacity="1"/></g><g><path d="M52.7864990234375,83.77862156656028L75.9392990234375,79.46479256656026L75.9392990234375,78.84853156656027L52.7864990234375,83.16236156656026L52.7864990234375,83.77862156656028Z" fill="#5B95B2" fill-opacity="1"/></g><g><path d="M52.7864990234375,82.50045002725363L75.9392990234375,78.18662102725362L75.9392990234375,77.57036002725363L52.7864990234375,81.88419002725362L52.7864990234375,82.50045002725363Z" fill="#5B95B2" fill-opacity="1"/></g><g><path d="M52.7864990234375,85.05679310586692L75.9392990234375,80.7429641058669L75.9392990234375,80.12670310586691L52.7864990234375,84.4405331058669L52.7864990234375,85.05679310586692Z" fill="#5B95B2" fill-opacity="1"/></g></g><g transform="matrix(1,-0.002554649719968438,0.002492676256224513,1,-0.2029178706050132,0.13488437337467474)"><g><path d="M52.799556949175894,86.51831582015991L75.9523569491759,82.04471182015992L75.9523569491759,81.40562582015991L52.799556949175894,85.87922582015992L52.799556949175894,86.51831582015991Z" fill="#5B95B2" fill-opacity="1"/></g><g><path d="M52.798760729175896,89.4032488987732L75.9523569491759,84.6010548987732L75.9523569491759,83.9619688987732L52.798760729175896,88.76419889877319L52.798760729175896,89.4032488987732Z" fill="#5B95B2" fill-opacity="1"/></g><g><path d="M52.798760729175896,88.12507735946656L75.9523569491759,83.32288335946656L75.9523569491759,82.68379735946655L52.798760729175896,87.48602735946655L52.798760729175896,88.12507735946656Z" fill="#5B95B2" fill-opacity="1"/></g><g><path d="M52.798760729175896,90.68142043807984L75.9523569491759,85.87922643807984L75.9523569491759,85.24014043807983L52.798760729175896,90.04237043807983L52.798760729175896,90.68142043807984Z" fill="#5B95B2" fill-opacity="1"/></g></g><g transform="matrix(1,-0.002554649719968438,0.002492676256224513,1,-0.21566411388315743,0.13491529094338262)"><g><path d="M52.81188773204097,91.96038305023194L75.96548395204097,87.15818905023194L75.96548395204097,86.51910305023193L52.81188773204097,91.32133305023193L52.81188773204097,91.96038305023194Z" fill="#5B95B2" fill-opacity="1"/></g><g><path d="M52.81172848804097,94.51672612884522L75.96548395204097,89.71453212884522L75.96548395204097,89.07544612884521L52.81172848804097,93.87767612884521L52.81172848804097,94.51672612884522Z" fill="#5B95B2" fill-opacity="1"/></g><g><path d="M52.81172848804097,93.23855458953858L75.96548395204097,88.43636058953858L75.96548395204097,87.79727458953857L52.81172848804097,92.59950458953857L52.81172848804097,93.23855458953858Z" fill="#5B95B2" fill-opacity="1"/></g><g><path d="M52.811659418046474,95.79489581741333L75.96625941804648,90.66409881741333L75.96625941804648,90.02500581741333L52.811659418046474,95.15584581741334L52.811659418046474,95.79489581741333Z" fill="#5B95B2" fill-opacity="1"/></g></g></g><g><g transform="matrix(1,-0.0030510430224239826,0.002050952287390828,1,-0.14812613543868736,0.2348416741301378)"><g transform="matrix(0.9998016953468323,0.021964089944958687,-0.02173696830868721,0.9997597932815552,1.5851949318870453,-1.6754595503054333)"><path d="M77.07162139564753,76.8654416047299L95.44852139564753,72.80339460472989L95.44852139564753,72.22310160472989L77.07162139564753,76.28515160472989L77.07162139564753,76.8654416047299Z" fill="#5B95B2" fill-opacity="1"/></g><g><path d="M77.01922994852066,79.4743170770657L95.39522994852067,75.41224307706571L95.39522994852067,74.8319470770657L77.01922994852066,78.89401707706571L77.01922994852066,79.4743170770657Z" fill="#5B95B2" fill-opacity="1"/></g><g transform="matrix(0.9998819231987,0.02051427960395813,-0.020302120596170425,0.9998491406440735,1.5000875073659614,-1.5699139137856264)"><path d="M77.06792800873518,78.08225193981289L95.44442800873517,74.0202739398129L95.44442800873517,73.4399919398129L77.06792800873518,77.5019719398129L77.06792800873518,78.08225193981289Z" fill="#5B95B2" fill-opacity="1"/></g><g><path d="M77.01922994852066,80.6778938802731L95.39522994852067,76.61581988027311L95.39522994852067,76.0355238802731L77.01922994852066,80.09759388027311L77.01922994852066,80.6778938802731Z" fill="#5B95B2" fill-opacity="1"/></g></g><g transform="matrix(1,-0.00305104348808527,0.002050951821729541,1,-0.1584149715557146,0.2349217727934132)"><g><path d="M77.03000393137336,82.05404321914673L95.40600393137336,77.84152121914673L95.40600393137336,77.23973321914673L77.03000393137336,81.45225321914673L77.03000393137336,82.05404321914673Z" fill="#5B95B2" fill-opacity="1"/></g><g transform="matrix(1,0.013008828274905682,-0.012813590466976166,0.9998914003372192,1.0190343605916468,-0.9938703901749051)"><path d="M77.0629622240906,84.65127055397033L95.4398941810906,80.12940055397034L95.4398941810906,79.52762055397034L77.0629622240906,84.04952055397034L77.0629622240906,84.65127055397033Z" fill="#5B95B2" fill-opacity="1"/></g><g transform="matrix(1,0.013285234570503235,-0.013086820021271706,0.9998998641967773,1.0249796434518714,-1.015973736887176)"><path d="M77.06360949098344,83.4451705669403L95.44194149498344,78.92330056694031L95.44194149498344,78.32152056694031L77.06360949098344,82.84342056694031L77.06360949098344,83.4451705669403Z" fill="#5B95B2" fill-opacity="1"/></g><g><path d="M77.02937198337335,85.97418339035035L95.40600393137336,81.45225139035034L95.40600393137336,80.85046339035034L77.02937198337335,85.37242339035035L77.02937198337335,85.97418339035035Z" fill="#5B95B2" fill-opacity="1"/></g></g><g transform="matrix(1,-0.0030510432552546263,0.002050951821729541,1,-0.16829074673715638,0.23475697063382484)"><g><path d="M77.03976325970311,87.1786688067627L95.41639520770312,82.6567368067627L95.41639520770312,82.0549488067627L77.03976325970311,86.5769088067627L77.03976325970311,87.1786688067627Z" fill="#5B95B2" fill-opacity="1"/></g><g transform="matrix(1,0.013694101013243198,-0.013488232158124447,1,1.137550808202846,-1.0554827914226195)"><path d="M77.07496860673372,88.85891831481933L77.07496860673372,89.46072831481933L95.45352701573373,84.93838131481934L95.45352701573373,84.33653831481934L77.07496860673372,88.85891831481933Z" fill="#5B95B2" fill-opacity="1"/></g><g><path d="M77.03963686970312,88.3822456099701L95.41639520770312,83.86031360997009L95.41639520770312,83.25852560997009L77.03963686970312,87.7804856099701L77.03963686970312,88.3822456099701Z" fill="#5B95B2" fill-opacity="1"/></g><g transform="matrix(0.9994029402732849,0.033846545964479446,-0.03750649094581604,0.9993239641189575,3.235854650811703,-2.553669995812598)"><path d="M77.14714634418488,90.47992106460572L95.52374634418487,85.64826306460571L95.52374634418487,85.04643106460571L77.14714634418488,89.87812106460571L77.14714634418488,90.47992106460572Z" fill="#5B95B2" fill-opacity="1"/></g></g></g><g><path d="M57,27.99998664855957L73,27.99998664855957L73,23.16130264855957L57,22.99998664855957L57,27.99998664855957Z" fill="#325F75" fill-opacity="1"/></g><g><path d="M80,27.99998664855957L93,27.99998664855957L93,23.16130264855957L80,22.99998664855957L80,27.99998664855957Z" fill="#325F75" fill-opacity="1"/></g><g><path d="M79.2259292602539,41.478628158569336L79.2259292602539,47.39361815856934L80.5304492602539,47.72222815856934L80.5304492602539,41.807238158569334L79.2259292602539,41.478628158569336Z" fill="#344153" fill-opacity="1"/></g><g><path d="M74.00786209106445,41.478628158569336L74.00786209106445,47.39361815856934L75.31238209106445,47.72222815856934L75.31238209106445,41.807238158569334L74.00786209106445,41.478628158569336Z" fill="#344153" fill-opacity="1"/></g><g><path d="M15.304518699645996,29.813002611541748L50.852618699645994,29.000002611541746L50.852618699645994,15.354102611541748L15.304518699645996,18.147292611541747L15.304518699645996,29.813002611541748Z" fill="#5B95B2" fill-opacity="1"/></g><g><path d="M15.304518699645996,88.48069618530273L50.999918699645995,95.99999618530273L50.999918699645995,29.999996185302734L15.465149699645997,30.961300185302733L15.304518699645996,88.48069618530273Z" fill="#5B95B2" fill-opacity="1"/></g></g></g></svg>