<svg xmlns="http://www.w3.org/2000/svg" xmlns:xlink="http://www.w3.org/1999/xlink" fill="none" version="1.1" width="110" height="110" viewBox="0 0 110 110"><defs><clipPath id="master_svg0_1460_01149"><rect x="0" y="0" width="110" height="110" rx="0"/></clipPath></defs><g clip-path="url(#master_svg0_1460_01149)"><g><g><path d="M23.571422783203126,60.892852783203125L19.642852783203125,60.892852783203125L19.642852783203125,82.49995278320313L23.571422783203126,82.49995278320313L23.571422783203126,60.892852783203125Z" fill="#397492" fill-opacity="1"/></g><g><path d="M37.32145278320313,37.32143443359375L26.121912783203125,29.46429443359375L19.642852783203125,29.46429443359375L19.642852783203125,32.08334443359375L22.974942783203126,32.08334443359375L26.121912783203125,37.32143443359375L37.32145278320313,37.32143443359375Z" fill="#0F263D" fill-opacity="1"/></g><g><path d="M94.2857111328125,80.53570556640625L23.5714111328125,80.53570556640625L23.5714111328125,82.49999556640626L94.2857111328125,82.49999556640626L94.2857111328125,80.53570556640625Z" fill="#133143" fill-opacity="1"/></g><g><path d="M94.28574721679688,37.321441650390625L21.607147216796875,37.321441650390625L21.607147216796875,80.53574165039063L94.28574721679688,80.53574165039063L94.28574721679688,37.321441650390625Z" fill="#1F475F" fill-opacity="1"/></g><g></g><g><path d="M96.2499,82.5L13.75,82.5L13.75,86.42857L96.2499,86.42857L96.2499,82.5Z" fill="#0F263D" fill-opacity="1"/></g><g><path d="M23.571422783203126,62.92049443359375L21.361602783203125,64.82139443359375L19.642852783203125,62.92049443359375L19.642852783203125,29.46429443359375L23.571422783203126,29.46429443359375L23.571422783203126,62.92049443359375Z" fill="#0F263D" fill-opacity="1"/></g><g></g><g><path d="M92.32145330078124,72.67855278320312L92.32145330078124,47.142852783203125L88.39288330078125,47.142852783203125L88.39288330078125,72.67855278320312L92.32145330078124,72.67855278320312Z" fill="#397492" fill-opacity="1"/></g><g><path d="M25.53570556640625,45.1785888671875L55.00000556640625,45.1785888671875L55.00000556640625,76.6071888671875L25.53570556640625,76.6071888671875L25.53570556640625,45.1785888671875Z" fill="#224C62" fill-opacity="1"/></g><g><path d="M43.2143111328125,43.21429443359375L23.5714111328125,43.21429443359375L23.5714111328125,70.71429443359375L43.2143111328125,70.71429443359375L43.2143111328125,43.21429443359375Z" fill="#397492" fill-opacity="1"/></g><g></g><g><path d="M31.42857,47.142852783203125L27.5,47.142852783203125L27.5,56.964282783203124L31.42857,56.964282783203124L31.42857,47.142852783203125Z" fill="#64D98F" fill-opacity="1"/></g><g><path d="M33.3793288671875,68.7499811328125L35.3571588671875,66.7857011328125L33.3793288671875,64.8214111328125L31.4285888671875,66.7857011328125L33.3793288671875,68.7499811328125Z" fill="#224C62" fill-opacity="1"/></g><g><path d="M39.2857,60.892852783203125L27.5,60.892852783203125L27.5,62.85714278320312L39.2857,62.85714278320312L39.2857,60.892852783203125Z" fill="#B1D8BF" fill-opacity="1"/></g><g><path d="M55.0000188671875,37.321441650390625L45.1785888671875,37.321441650390625L45.1785888671875,72.67854165039063L55.0000188671875,72.67854165039063L55.0000188671875,37.321441650390625Z" fill="#397492" fill-opacity="1"/></g><g></g><g><path d="M94.28569999999999,43.21429443359375L55,43.21429443359375L55,47.14286443359375L94.28569999999999,47.14286443359375L94.28569999999999,43.21429443359375Z" fill="#397492" fill-opacity="1"/></g><g><path d="M96.24999556640626,41.25L94.28570556640625,41.25L94.28570556640625,49.10714L96.24999556640626,49.10714L96.24999556640626,41.25Z" fill="#397492" fill-opacity="1"/></g><g><path d="M66.78571113281251,37.321441650390625L23.5714111328125,37.321441650390625L23.5714111328125,41.250011650390626L66.78571113281251,41.250011650390626L66.78571113281251,37.321441650390625Z" fill="#0F263D" fill-opacity="1"/></g><g><path d="M88.39286443359374,37.321441650390625L84.46429443359375,37.321441650390625L84.46429443359375,43.214301650390624L88.39286443359374,43.214301650390624L88.39286443359374,37.321441650390625Z" fill="#0F263D" fill-opacity="1"/></g><g><path d="M82.4999811328125,37.321441650390625L78.5714111328125,37.321441650390625L78.5714111328125,43.214301650390624L82.4999811328125,43.214301650390624L82.4999811328125,37.321441650390625Z" fill="#0F263D" fill-opacity="1"/></g><g><path d="M76.6071588671875,37.321441650390625L72.6785888671875,37.321441650390625L72.6785888671875,43.214301650390624L76.6071588671875,43.214301650390624L76.6071588671875,37.321441650390625Z" fill="#0F263D" fill-opacity="1"/></g><g><path d="M70.71427556640624,37.321441650390625L66.78570556640625,37.321441650390625L66.78570556640625,43.214301650390624L70.71427556640624,43.214301650390624L70.71427556640624,37.321441650390625Z" fill="#0F263D" fill-opacity="1"/></g><g><path d="M37.32143443359375,70.71429443359375L29.46429443359375,70.71429443359375L30.96089443359375,80.53572443359374L35.82483443359375,80.53572443359374L37.32143443359375,70.71429443359375Z" fill="#629DBB" fill-opacity="1"/></g></g><g><rect x="33.39288330078125" y="47.142852783203125" width="1.9642857313156128" height="1.9642857313156128" rx="0" fill="#64D98F" fill-opacity="1"/></g><g><rect x="33.39288330078125" y="51.071441650390625" width="1.9642857313156128" height="1.9642857313156128" rx="0" fill="#64D98F" fill-opacity="1"/></g><g><rect x="33.39288330078125" y="55" width="1.9642857313156128" height="1.9642857313156128" rx="0" fill="#64D98F" fill-opacity="1"/></g><g><rect x="37.3214111328125" y="47.142852783203125" width="1.9642857313156128" height="1.9642857313156128" rx="0" fill="#64D98F" fill-opacity="1"/></g><g><rect x="37.3214111328125" y="51.071441650390625" width="1.9642857313156128" height="1.9642857313156128" rx="0" fill="#64D98F" fill-opacity="1"/></g><g><rect x="37.3214111328125" y="55" width="1.9642857313156128" height="1.9642857313156128" rx="0" fill="#64D98F" fill-opacity="1"/></g></g></svg>