<svg xmlns="http://www.w3.org/2000/svg" xmlns:xlink="http://www.w3.org/1999/xlink" fill="none" version="1.1" width="110" height="110" viewBox="0 0 110 110"><defs><clipPath id="master_svg0_1460_00751"><rect x="0" y="0" width="110" height="110" rx="0"/></clipPath></defs><g clip-path="url(#master_svg0_1460_00751)"><g><g><path d="M14.000000741411,28.40068L14.000000741411,81.5993C13.999391301,84.03,15.99124,86.00059999999999,18.44812,86L91.553,86C94.0092,85.99940000000001,96,84.0293,96,81.5993L96,28.40068C96.0006,25.97043,94.0094,24,91.553,24L18.44812,24C15.99124,23.99939706,13.999389819,25.97,14.000000741411,28.40068Z" fill="#E4EAED" fill-opacity="1"/></g><g><path d="M90.76576661682128,54.99836518096924Q90.76576661682128,55.59326518096924,90.7362666168213,56.18736518096924Q90.70676661682128,56.781465180969235,90.64786661682129,57.37336518096924Q90.58886661682129,57.96536518096924,90.50066661682129,58.553765180969236Q90.41246661682129,59.14216518096924,90.29516661682129,59.72556518096924Q90.17786661682129,60.30896518096924,90.03176661682129,60.88596518096924Q89.88566661682128,61.462965180969235,89.71116661682129,62.03216518096924Q89.5366666168213,62.60136518096924,89.33406661682129,63.16136518096924Q89.13156661682129,63.72146518096924,88.9014666168213,64.27096518096924Q88.67136661682129,64.82056518096924,88.4142666168213,65.35826518096924Q88.15726661682129,65.89596518096924,87.87376661682129,66.42056518096925Q87.59036661682129,66.94516518096924,87.28126661682128,67.45536518096924Q86.97216661682128,67.96556518096924,86.63816661682128,68.46016518096924Q86.30416661682129,68.95476518096925,85.9459666168213,69.43246518096925Q85.58786661682129,69.91026518096925,85.2063666168213,70.37006518096925Q84.82496661682129,70.82986518096924,84.4212666168213,71.27056518096924Q84.01746661682128,71.71136518096924,83.59226661682129,72.13196518096925Q83.16716661682129,72.55256518096924,82.7216666168213,72.95206518096924Q82.27616661682129,73.35146518096923,81.81146661682129,73.72886518096924Q81.3466666168213,74.10616518096924,80.8637666168213,74.46056518096924Q80.3808666168213,74.81486518096924,79.8808666168213,75.14536518096924Q79.3809666168213,75.47576518096923,78.86526661682129,75.78156518096924Q78.34956661682129,76.08736518096924,77.8193666168213,76.36776518096923Q77.28906661682129,76.64816518096924,76.74556661682129,76.90256518096925Q76.2020666168213,77.15686518096925,75.64656661682129,77.38446518096924Q75.09116661682128,77.61206518096924,74.52506661682129,77.81246518096924Q73.95896661682129,78.01286518096924,73.38356661682128,78.18556518096923Q72.80826661682129,78.35826518096924,72.2250666168213,78.50276518096925Q71.64176661682129,78.64726518096924,71.0521666168213,78.76336518096923Q70.46246661682129,78.87936518096924,69.86766661682128,78.96666518096924Q69.2729666168213,79.05396518096924,68.67466661682128,79.11226518096925Q68.07626661682129,79.17056518096925,67.47576661682129,79.19976518096924Q66.87526661682129,79.22896518096924,66.27406661682129,79.22896518096924Q65.67276661682129,79.22896518096924,65.07226661682128,79.19976518096924Q64.47176661682128,79.17056518096925,63.873366616821286,79.11226518096925Q63.27506661682129,79.05396518096924,62.68036661682129,78.96666518096924Q62.08556661682129,78.87936518096924,61.49586661682129,78.76336518096923Q60.906266616821284,78.64726518096924,60.32296661682129,78.50276518096925Q59.739766616821285,78.35826518096924,59.16446661682129,78.18556518096923Q58.589066616821285,78.01286518096924,58.02296661682129,77.81246518096924Q57.45686661682129,77.61206518096924,56.90146661682129,77.38446518096924Q56.345966616821286,77.15686518096925,55.80246661682129,76.90256518096925Q55.25896661682129,76.64816518096924,54.728666616821286,76.36776518096923Q54.19846661682129,76.08736518096924,53.68276661682129,75.78156518096924Q53.16706661682129,75.47576518096923,52.66716661682129,75.14536518096924Q52.16726661682129,74.81486518096924,51.684296616821285,74.46056518096924Q51.20137661682129,74.10616518096924,50.73661661682129,73.72886518096924Q50.27185661682129,73.35146518096923,49.82636661682129,72.95206518096924Q49.38087661682129,72.55256518096924,48.95573661682129,72.13196518096925Q48.53059661682129,71.71136518096924,48.12682661682129,71.27056518096924Q47.72305661682129,70.82986518096924,47.34163661682129,70.37006518096925Q46.96021661682129,69.91026518096925,46.60205661682129,69.43246518096925Q46.24390661682129,68.95476518096925,45.90986661682129,68.46016518096924Q45.57583661682129,67.96556518096924,45.26674661682129,67.45536518096924Q44.957646616821286,66.94516518096924,44.67422661682129,66.42056518096925Q44.39079661682129,65.89596518096924,44.13373661682129,65.35826518096924Q43.876676616821285,64.82056518096924,43.64658661682129,64.27096518096924Q43.41650661682129,63.72146518096924,43.21395661682129,63.16136518096924Q43.01140661682129,62.60136518096924,42.836876616821286,62.03216518096924Q42.66234261682129,61.462965180969235,42.51625361682129,60.88596518096924Q42.37016461682129,60.30896518096924,42.25286861682129,59.72556518096924Q42.13557261682129,59.14216518096924,42.047352616821286,58.553765180969236Q41.959132616821286,57.96536518096924,41.90020061682129,57.37336518096924Q41.84126941682129,56.781465180969235,41.81176801682129,56.18736518096924Q41.78226661682129,55.59326518096924,41.78226661682129,54.99836518096924Q41.78226661682129,54.40356518096924,41.81176801682129,53.80946518096924Q41.84126941682129,53.21536518096924,41.90020061682129,52.62336518096924Q41.959132616821286,52.031465180969235,42.047352616821286,51.44306518096924Q42.13557261682129,50.854665180969235,42.25286861682129,50.27126518096924Q42.37016461682129,49.68786518096924,42.51625361682129,49.11086518096924Q42.66234261682129,48.53386518096924,42.836876616821286,47.964665180969234Q43.01140661682129,47.39546518096924,43.21395661682129,46.835365180969234Q43.41650661682129,46.27536518096924,43.64658661682129,45.72576518096924Q43.876676616821285,45.17626518096924,44.13373661682129,44.638465180969234Q44.39079661682129,44.10076518096924,44.67422661682129,43.57616518096924Q44.957646616821286,43.051565180969234,45.26674661682129,42.54136518096924Q45.57583661682129,42.03116518096924,45.90986661682129,41.53666518096924Q46.24390661682129,41.04206518096924,46.60205661682129,40.564285180969236Q46.96021661682129,40.086515180969236,47.34163661682129,39.62670518096924Q47.72305661682129,39.16690518096924,48.12682661682129,38.72616518096924Q48.53059661682129,38.28542518096924,48.95573661682129,37.86482518096924Q49.38087661682129,37.44421518096924,49.82636661682129,37.04475518096924Q50.27185661682129,36.64529518096924,50.73661661682129,36.267945180969235Q51.20137661682129,35.89058518096924,51.684296616821285,35.53624518096924Q52.16726661682129,35.18191518096924,52.66716661682129,34.851445180969236Q53.16706661682129,34.52097518096924,53.68276661682129,34.21517518096924Q54.19846661682129,33.909375180969235,54.728666616821286,33.628975180969235Q55.25896661682129,33.348575180969235,55.80246661682129,33.09425518096924Q56.345966616821286,32.839935180969235,56.90146661682129,32.61230518096924Q57.45686661682129,32.38467518096924,58.02296661682129,32.18428518096924Q58.589066616821285,31.98389518096924,59.16446661682129,31.811225180969238Q59.739766616821285,31.638554180969237,60.32296661682129,31.49402318096924Q60.906266616821284,31.34949218096924,61.49586661682129,31.233448180969237Q62.08556661682129,31.117403180969237,62.68036661682129,31.03012418096924Q63.27506661682129,30.94284518096924,63.873366616821286,30.884542180969238Q64.47176661682128,30.826238680969237,65.07226661682128,30.79705188096924Q65.67276661682129,30.76786518096924,66.27406661682129,30.76786518096924Q66.87526661682129,30.76786518096924,67.47576661682129,30.79705188096924Q68.07626661682129,30.826238680969237,68.67466661682128,30.884542180969238Q69.2729666168213,30.94284518096924,69.86766661682128,31.03012418096924Q70.46246661682129,31.117403180969237,71.0521666168213,31.233448180969237Q71.64176661682129,31.34949218096924,72.2250666168213,31.49402318096924Q72.80826661682129,31.638554180969237,73.38356661682128,31.811225180969238Q73.95896661682129,31.98389518096924,74.52506661682129,32.18428518096924Q75.09116661682128,32.38467518096924,75.64656661682129,32.61230518096924Q76.2020666168213,32.839935180969235,76.74556661682129,33.09425518096924Q77.28906661682129,33.348575180969235,77.8193666168213,33.628975180969235Q78.34956661682129,33.909375180969235,78.86526661682129,34.21517518096924Q79.3809666168213,34.52097518096924,79.8808666168213,34.851445180969236Q80.3808666168213,35.18191518096924,80.8637666168213,35.53624518096924Q81.3466666168213,35.89058518096924,81.81146661682129,36.267945180969235Q82.27616661682129,36.64529518096924,82.7216666168213,37.04475518096924Q83.16716661682129,37.44421518096924,83.59226661682129,37.86482518096924Q84.01746661682128,38.28542518096924,84.4211666168213,38.72616518096924Q84.82496661682129,39.16690518096924,85.2063666168213,39.62670518096924Q85.58786661682129,40.086515180969236,85.9459666168213,40.564285180969236Q86.30416661682129,41.04206518096924,86.63816661682128,41.53666518096924Q86.97216661682128,42.03116518096924,87.28126661682128,42.54136518096924Q87.59036661682129,43.051565180969234,87.87376661682129,43.57616518096924Q88.15726661682129,44.10076518096924,88.4142666168213,44.638465180969234Q88.67136661682129,45.17626518096924,88.9014666168213,45.72576518096924Q89.13156661682129,46.27536518096924,89.33406661682129,46.835365180969234Q89.5366666168213,47.39546518096924,89.71116661682129,47.964665180969234Q89.88566661682128,48.53386518096924,90.03176661682129,49.11086518096924Q90.17786661682129,49.68786518096924,90.29516661682129,50.27126518096924Q90.41246661682129,50.854665180969235,90.50066661682129,51.44306518096924Q90.58886661682129,52.031465180969235,90.64786661682129,52.62336518096924Q90.70676661682128,53.21536518096924,90.7362666168213,53.80946518096924Q90.76576661682128,54.40356518096924,90.76576661682128,54.99836518096924Z" fill="#001933" fill-opacity="1"/></g><g><path d="M46.629425048828125,54.728203129577636C46.629425048828125,60.39990312957764,52.52708504882813,64.19680312957763,57.76902504882813,61.897503129577636L62.92812504882812,59.63750312957764C61.33282504882813,58.513503129577636,60.42532504882813,56.663503129577634,60.520025048828124,54.728203129577636L46.629425048828125,54.728203129577636ZM66.00192504882813,60.68870312957763L66.00192504882813,74.43220312957763C71.73262504882813,74.43220312957763,75.57042504882813,68.59530312957764,73.24852504882813,63.41030312957764L70.96302504882813,58.30410312957764C69.82782504882812,59.883103129577634,67.95822504882813,60.781703129577636,66.00192504882813,60.68870312957763ZM69.61412504882813,50.36030312957764C71.20992504882813,51.483503129577635,72.11782504882812,53.33330312957764,72.02342504882813,55.26850312957764L85.91622504882812,55.26850312957764C85.91622504882812,49.59680312957764,80.01852504882812,45.799903129577636,74.77762504882813,48.09710312957763L69.61522504882812,50.358103129577636L69.61412504882813,50.36030312957764ZM66.54592504882812,49.308003129577635L66.54592504882812,35.56340312957764C60.814125048828124,35.56340312957764,56.97632504882812,41.398153129577636,59.29822504882812,46.58420312957764L61.582525048828124,51.690503129577635C62.718425048828124,50.111303129577635,64.58912504882812,49.21330312957764,66.54592504882812,49.308003129577635Z" fill="#397492" fill-opacity="1"/></g><g><path d="M66.54594432861327,49.308075263671874C64.58944432861328,49.213171713671876,62.71893432861328,50.111232013671874,61.58368432861328,51.69054901367188C60.88480932861328,52.655109013671876,60.51037309861328,53.812749013671876,60.51339212251328,54.999529013671875C60.51339212251328,56.91272901367188,61.46647932861328,58.60495901367187,62.92929432861328,59.637539013671876L62.93150432861328,59.637539013671876C63.90466432861328,60.329239013671874,65.07348432861328,60.69973901367187,66.27173432861328,60.69643901367188C68.20666432861329,60.69643901367188,69.91935432861328,59.753539013671876,70.96197432861328,58.30413901367187C71.65857432861328,57.340149013671876,72.03247432861328,56.184519013671874,72.03117432861328,54.999529013671875C72.03397432861328,53.15679901367187,71.13287432861328,51.427269013671875,69.61418432861328,50.36038901367188C68.71591432861328,49.72326501367188,67.65006432861328,49.357712913671875,66.54594432861327,49.308075263671874Z" fill="#5A95B4" fill-opacity="1"/></g><g><path d="M35.690112478637694,32.07290267944336L20.532492478637696,32.07290267944336C19.727657478637695,32.07290561345336,19.075212478637695,32.71839167944336,19.075212478637695,33.51464267944336C19.075212478637695,34.31088267944336,19.727657478637695,34.95637267944336,20.532492478637696,34.95637267944336L35.690112478637694,34.95637267944336C36.49501247863769,34.95637267944336,37.14741247863769,34.31088267944336,37.14741247863769,33.51464267944336C37.14741247863769,32.71839167944336,36.49501247863769,32.07290561345336,35.690112478637694,32.07290267944336ZM35.690112478637694,53.557802679443355L20.532492478637696,53.557802679443355C19.727657478637695,53.557802679443355,19.075212478637695,54.20330267944336,19.075212478637695,54.99950267944336C19.075212478637695,55.795802679443355,19.727657478637695,56.44130267944336,20.532492478637696,56.44130267944336L35.690112478637694,56.44130267944336C36.49501247863769,56.44130267944336,37.14741247863769,55.795802679443355,37.14741247863769,54.99950267944336C37.14741247863769,54.20330267944336,36.49501247863769,53.557802679443355,35.690112478637694,53.557802679443355ZM35.690112478637694,67.88000267944335L20.532492478637696,67.88000267944335C19.727655478637697,67.88000267944335,19.075212478637695,68.52540267944336,19.075212478637695,69.32170267944336C19.075212478637695,70.11790267944336,19.727658478637697,70.76340267944336,20.532492478637696,70.76340267944336L35.690112478637694,70.76340267944336C36.49501247863769,70.76340267944336,37.14741247863769,70.11790267944336,37.14741247863769,69.32170267944336C37.14741247863769,68.52540267944336,36.49501247863769,67.88000267944335,35.690112478637694,67.88000267944335ZM35.690112478637694,60.71940267944336L20.532492478637696,60.71940267944336C19.749717478637695,60.749602679443356,19.130849478637696,61.386102679443354,19.130849478637696,62.16110267944336C19.130849478637696,62.936202679443355,19.749717478637695,63.57270267944336,20.532492478637696,63.60290267944336L35.690112478637694,63.60290267944336C36.49501247863769,63.60290267944336,37.14741247863769,62.95740267944336,37.14741247863769,62.16120267944336C37.14741247863769,61.36490267944336,36.49501247863769,60.71940267944336,35.690112478637694,60.71940267944336ZM35.690112478637694,75.04160267944336L20.532492478637696,75.04160267944336C19.727655478637697,75.04160267944336,19.075212478637695,75.68710267944336,19.075212478637695,76.48330267944337C19.075212478637695,77.27960267944336,19.727658478637697,77.92500267944337,20.532492478637696,77.92500267944337L35.690112478637694,77.92500267944337C36.49501247863769,77.92500267944337,37.14741247863769,77.27960267944336,37.14741247863769,76.48330267944337C37.14741247863769,75.68710267944336,36.49501247863769,75.04160267944336,35.690112478637694,75.04160267944336ZM35.690112478637694,46.39620267944336L34.0372124786377,46.39620267944336C33.232312478637695,46.39620267944336,32.579912478637695,47.04160267944336,32.579912478637695,47.83790267944336C32.579912478637695,48.63410267944336,33.232312478637695,49.27960267944336,34.0372124786377,49.27960267944336L35.68901247863769,49.27960267944336C36.4939124786377,49.27990267944336,37.14661247863769,48.634702679443365,37.146912478637695,47.83840267944336C37.1472124786377,47.04220267944336,36.49501247863769,46.39650267944336,35.690112478637694,46.39620267944336ZM20.532492478637696,49.27960267944336L29.179912478637696,49.27960267944336C29.984812478637693,49.27960267944336,30.637212478637693,48.63410267944336,30.637212478637693,47.83790267944336C30.637212478637693,47.04160267944336,29.984812478637693,46.39620267944336,29.179912478637696,46.39620267944336L20.532492478637696,46.39620267944336C19.727657478637695,46.39620267944336,19.075212478637695,47.04160267944336,19.075212478637695,47.83790267944336C19.075212478637695,48.63410267944336,19.727657478637695,49.27960267944336,20.532492478637696,49.27960267944336ZM35.690112478637694,39.23453267944336L20.532492478637696,39.23453267944336C19.727657478637695,39.23453267944336,19.075212478637695,39.88001267944336,19.075212478637695,40.67626267944336C19.075212478637695,41.472512679443355,19.727657478637695,42.11800267944336,20.532492478637696,42.11800267944336L35.690112478637694,42.11800267944336C36.49501247863769,42.11800267944336,37.14741247863769,41.472512679443355,37.14741247863769,40.67626267944336C37.14741247863769,39.88001267944336,36.49501247863769,39.23453267944336,35.690112478637694,39.23453267944336Z" fill="#001933" fill-opacity="1"/></g></g></g></svg>