<svg xmlns="http://www.w3.org/2000/svg" xmlns:xlink="http://www.w3.org/1999/xlink" fill="none" version="1.1" width="110" height="110" viewBox="0 0 110 110"><defs><clipPath id="master_svg0_1460_01109"><rect x="0" y="0" width="110" height="110" rx="0"/></clipPath></defs><g clip-path="url(#master_svg0_1460_01109)"><g><g><path d="M85,19L16,19L16,87L85,87L85,19Z" fill="#397492" fill-opacity="1"/></g><g><g><path d="M86,87L16,87L16,91L86,91L86,87Z" fill="#001933" fill-opacity="1"/></g><g><path d="M50.191884765625,53.007341040039066L50.191884765625,50.99269104003906L16.119384765625,50.99269104003906L16.119384765625,53.007341040039066L50.191884765625,53.007341040039066Z" fill="#001933" fill-opacity="1"/></g><g><path d="M52,19L50,19L50,87L52,87L52,19Z" fill="#001933" fill-opacity="1"/></g><g><path d="M39.35207119140625,25.748062133789062L26.67047119140625,25.748062133789062L26.67047119140625,36.06736213378906L39.35207119140625,36.06736213378906L39.35207119140625,25.748062133789062Z" fill="#1F475F" fill-opacity="1"/></g><g><path d="M38.16631953125,57.03666687011719L28.14501953125,57.03666687011719L28.14501953125,63.080626870117186L38.16631953125,63.080626870117186L38.16631953125,57.03666687011719Z" fill="#1F475F" fill-opacity="1"/></g><g><path d="M34.15788302734375,40.91944885253906L30.14935302734375,40.91944885253906L30.14935302734375,42.934098852539066L34.15788302734375,42.934098852539066L34.15788302734375,40.91944885253906Z" fill="#64D98F" fill-opacity="1"/></g><g><path d="M72.23881564453126,40.91944885253906L68.23028564453125,40.91944885253906L68.23028564453125,42.934098852539066L72.23881564453126,42.934098852539066L72.23881564453126,40.91944885253906Z" fill="#64D98F" fill-opacity="1"/></g><g><path d="M74.24312421875,34.87544250488281L66.22607421875,34.87544250488281L66.22607421875,38.90474250488281L74.24312421875,38.90474250488281L74.24312421875,34.87544250488281Z" fill="#1F475F" fill-opacity="1"/></g><g><path d="M84,19L86,19L86,87L84,87L84,19Z" fill="#001933" fill-opacity="1"/></g><g><path d="M94,23L90,23L90,83L94,83L94,23Z" fill="#397492" fill-opacity="1"/></g><g><path d="M90,21L86,21L86,85L90,85L90,21Z" fill="#0F263D" fill-opacity="1"/></g><g><path d="M89.4747285546875,26.528518676757812L86.3690185546875,26.528518676757812L86.3690185546875,35.200198676757815L89.4747285546875,35.200198676757815L89.4747285546875,26.528518676757812Z" fill="#397492" fill-opacity="1"/></g><g><path d="M89.4747285546875,37.62825012207031L86.3690185546875,37.62825012207031L86.3690185546875,46.299930122070315L89.4747285546875,46.299930122070315L89.4747285546875,37.62825012207031Z" fill="#397492" fill-opacity="1"/></g><g><path d="M89.4747285546875,48.29438781738281L86.3690185546875,48.29438781738281L86.3690185546875,57.13949781738281L89.4747285546875,57.13949781738281L89.4747285546875,48.29438781738281Z" fill="#397492" fill-opacity="1"/></g><g><path d="M89.4747285546875,59.39414978027344L86.3690185546875,59.39414978027344L86.3690185546875,68.23925978027344L89.4747285546875,68.23925978027344L89.4747285546875,59.39414978027344Z" fill="#397492" fill-opacity="1"/></g><g><path d="M89.4747285546875,70.58058166503906L86.3690185546875,70.58058166503906L86.3690185546875,79.42569166503907L89.4747285546875,79.42569166503907L89.4747285546875,70.58058166503906Z" fill="#397492" fill-opacity="1"/></g><g><path d="M89.1296276171875,73.78907775878906L86.6278076171875,73.78907775878906L86.6278076171875,76.13042775878907L89.1296276171875,76.13042775878907L89.1296276171875,73.78907775878906Z" fill="#00264C" fill-opacity="1"/></g><g><path d="M89.1296276171875,62.68934631347656L86.6278076171875,62.68934631347656L86.6278076171875,64.94398631347656L89.1296276171875,64.94398631347656L89.1296276171875,62.68934631347656Z" fill="#00264C" fill-opacity="1"/></g><g><path d="M89.1296276171875,29.650344848632812L86.6278076171875,29.650344848632812L86.6278076171875,32.07841484863281L89.1296276171875,32.07841484863281L89.1296276171875,29.650344848632812Z" fill="#00264C" fill-opacity="1"/></g><g><path d="M89.1296276171875,40.74998474121094L86.6278076171875,40.74998474121094L86.6278076171875,43.264774741210935L89.1296276171875,43.264774741210935L89.1296276171875,40.74998474121094Z" fill="#00264C" fill-opacity="1"/></g><g><path d="M89.1296276171875,51.58967590332031L86.6278076171875,51.58967590332031L86.6278076171875,53.844315903320314L89.1296276171875,53.844315903320314L89.1296276171875,51.58967590332031Z" fill="#00264C" fill-opacity="1"/></g><g><path d="M90.277194296875,50.99269104003906L84.264404296875,50.99269104003906L84.264404296875,55.02199104003906L90.277194296875,55.02199104003906L92.281454296875,53.007341040039066L90.277194296875,50.99269104003906Z" fill="#64D98F" fill-opacity="1"/></g><g><path d="M38.489277343750004,33.72599792480469L27.44677734375,33.72599792480469L27.44677734375,35.200177924804684L38.489277343750004,35.200177924804684L38.489277343750004,33.72599792480469Z" fill="#143A4E" fill-opacity="1"/></g><g><path d="M39.35207119140625,36.06736213378906L26.67047119140625,36.06736213378906L26.67047119140625,25.748062133789062L27.44689719140625,26.528513133789062L27.44689719140625,35.20019213378906L38.48937119140625,35.20019213378906L39.35207119140625,36.06736213378906Z" fill="#5393B4" fill-opacity="1"/></g><g><path d="M26.67047119140625,25.748062133789062L39.35207119140625,25.748062133789062L39.35207119140625,36.06736213378906L38.48937119140625,35.20019213378906L38.48937119140625,26.528513133789062L27.44689719140625,26.528513133789062L26.67047119140625,25.748062133789062Z" fill="#5293B4" fill-opacity="1"/></g><g></g></g></g></g></svg>