<svg xmlns="http://www.w3.org/2000/svg" xmlns:xlink="http://www.w3.org/1999/xlink" fill="none" version="1.1" width="110" height="110.00000762939453" viewBox="0 0 110 110.00000762939453"><defs><clipPath id="master_svg0_1460_00328"><rect x="0" y="0" width="110" height="110.00000762939453" rx="0"/></clipPath><mask id="master_svg1_1460_00335" style="mask-type:alpha" maskUnits="userSpaceOnUse"><g><path d="M67.6363,16.18612C73.5812,17.99197,78,24.770699999999998,78,32.8571L78,67.1429C78,75.2293,73.5812,82.008,67.6363,83.8139C64.2842,85.1733,59.8554,86,55,86C50.1446,86,45.7158,85.1733,42.3637,83.8139C36.41877,82.008,32,75.2293,32,67.1429L32,32.8571C32,24.770699999999998,36.41878,17.991979999999998,42.3637,16.18613C45.7158,14.826744,50.1446,14,55,14C59.8554,14,64.2842,14.826746,67.6363,16.18612Z" fill-rule="evenodd" fill="#FFFFFF" fill-opacity="1"/></g></mask></defs><g clip-path="url(#master_svg0_1460_00328)"><g><g><path d="M60,13L60,11L50,11L50,13L60,13Z" fill="#1F475F" fill-opacity="1"/></g><g><path d="M48.79413203552246,78.08244323730469L41.97060203552246,78.08244323730469L41.97060203552246,95.28024323730469L48.79413203552246,95.28024323730469L48.79413203552246,78.08244323730469Z" fill="#0F263D" fill-opacity="1"/></g><g><path d="M68.02940158203126,78.08244323730469L61.20587158203125,78.08244323730469L61.20587158203125,95.28024323730469L68.02940158203126,95.28024323730469L68.02940158203126,78.08244323730469Z" fill="#0F263D" fill-opacity="1"/></g><g><path d="M67.6363,16.18612C73.5812,17.99197,78,24.770699999999998,78,32.8571L78,67.1429C78,75.2293,73.5812,82.008,67.6363,83.8139C64.2842,85.1733,59.8554,86,55,86C50.1446,86,45.7158,85.1733,42.3637,83.8139C36.41877,82.008,32,75.2293,32,67.1429L32,32.8571C32,24.770699999999998,36.41878,17.991979999999998,42.3637,16.18613C45.7158,14.826744,50.1446,14,55,14C59.8554,14,64.2842,14.826746,67.6363,16.18612Z" fill-rule="evenodd" fill="#5B95B2" fill-opacity="1"/></g><g mask="url(#master_svg1_1460_00335)"><g><path d="M29,87.2404L50.5,91.2404L73.5,88.2404L80.5,79.24039Q92.2915,71.11737,91.7239,70.135116Q91.2085,69.243068,80.5,74.24038Q58,84.7404,30.5,75.74038L29,87.2404Z" fill="#4B7C95" fill-opacity="1"/></g><g transform="matrix(1,0,0,-1,0,58.48046875)"><path d="M29,46.480634375L50.5,50.480634375L73.5,47.480634375L80.5,38.480624375Q92.2915,30.357604375,91.7239,29.375350375Q91.2085,28.483302375,80.5,33.480614375Q58,43.980634375,30.5,34.980614375L29,46.480634375Z" fill="#6EAAC7" fill-opacity="1"/></g></g><g><path d="M70.58823369140624,95.9999848046875L58.64703369140625,95.9999848046875L58.64703369140625,92.5604248046875L70.58823369140624,92.5604248046875L70.58823369140624,95.9999848046875Z" fill="#1F475F" fill-opacity="1"/></g><g><path d="M51.35296414489746,95.9999848046875L39.41176414489746,95.9999848046875L39.41176414489746,92.5604248046875L51.35296414489746,92.5604248046875L51.35296414489746,95.9999848046875Z" fill="#1F475F" fill-opacity="1"/></g><g><path d="M59,15L51,15L51,13L59,13L59,15Z" fill="#5B95B2" fill-opacity="1"/></g><g><g><path d="M60,58L50,58L50,62L60,62L60,58Z" fill="#333E50" fill-opacity="1"/></g><g><path d="M57,59C56.447715,59,56,59.447715,56,60C56,60.55228,56.447715,61,57,61C57.55228,61,58,60.55228,58,60C58,59.447715,57.55228,59,57,59" fill="#64D98F" fill-opacity="1"/></g><g><path d="M53,59C52.447715,59,52,59.447715,52,60C52,60.55228,52.447715,61,53,61C53.55228,61,54,60.55228,54,60C54,59.447715,53.55228,59,53,59" fill="#64D98F" fill-opacity="1"/></g></g><g><g><ellipse cx="55" cy="45" rx="7" ry="7" fill="#333E50" fill-opacity="1"/></g><g><ellipse cx="54.99796521663666" cy="44.99933409690857" rx="5.310344219207764" ry="5.31034517288208" fill="#6EAAC7" fill-opacity="1"/></g><g transform="matrix(-0.010555156506597996,-0.9999141693115234,0.9999141693115234,-0.012773229740560055,9.559253710472397,100.16175176959695)"><path d="M54.61540874359131,45.30268573760986C54.435694743591306,45.30268573760986,54.29258458359131,45.453128737609866,54.30155744359131,45.63261873760986L54.51432874359131,49.88879573760986C54.52107874359131,50.02380573760986,54.63251174359131,50.12981573760986,54.76769174359131,50.12981573760986C54.902871743591305,50.12981573760986,55.01430474359131,50.02380573760986,55.02105374359131,49.88879573760986L55.23382574359131,45.63261873760986C55.24279874359131,45.453128737609866,55.09968774359131,45.30268573760986,54.91997474359131,45.30268573760986L54.61540874359131,45.30268573760986Z" fill="#FD4949" fill-opacity="1"/></g><g><rect x="54.51588201522827" y="44.51670217514038" width="0.4827585220336914" height="0.48275861144065857" rx="0.2413792610168457" fill="#5B95B2" fill-opacity="1"/></g><g><rect x="54.75615978240967" y="39.68898892402649" width="0.4827585220336914" height="0.9655172228813171" rx="0.2413792610168457" fill="#333E50" fill-opacity="1"/></g><g><rect x="54.75615978240967" y="49.34394073486328" width="0.4827585220336914" height="0.9655172228813171" rx="0.2413792610168457" fill="#333E50" fill-opacity="1"/></g><g transform="matrix(0,1,-1,0,95.17016458511353,-6.136760234832764)"><rect x="50.653462409973145" y="44.51670217514038" width="0.48275861144065857" height="0.9655170440673828" rx="0.24137930572032928" fill="#333E50" fill-opacity="1"/></g><g transform="matrix(0,1,-1,0,104.8266863822937,-15.79328203201294)"><rect x="60.30998420715332" y="44.51670217514038" width="0.48275861144065857" height="0.9655170440673828" rx="0.24137930572032928" fill="#333E50" fill-opacity="1"/></g></g></g></g></svg>