<svg xmlns="http://www.w3.org/2000/svg" xmlns:xlink="http://www.w3.org/1999/xlink" fill="none" version="1.1" width="110" height="110.00000762939453" viewBox="0 0 110 110.00000762939453"><defs><clipPath id="master_svg0_1460_00863"><rect x="0" y="0" width="110" height="110.00000762939453" rx="0"/></clipPath></defs><g clip-path="url(#master_svg0_1460_00863)"><g><g><rect x="98" y="39" width="4" height="24" rx="2" fill="#001933" fill-opacity="1"/></g><g><rect x="92" y="59" width="10" height="4" rx="2" fill="#001933" fill-opacity="1"/></g><g><path d="M98 39C98 39 98 39 98 39L105.85714256763458 39C106.94198762135042 39 107.8214282989502 39.879440677599774 107.8214282989502 40.96428573131561L107.8214282989502 40.96428573131561C107.8214282989502 42.04913078503145 106.94198762135042 42.928571462631226 105.85714256763458 42.928571462631226L98 42.928571462631226C98 42.928571462631226 98 42.928571462631226 98 42.928571462631226Z" fill="#1F475F" fill-opacity="1"/></g><g><path d="M60,33L48,33L48,29L60,29L60,33Z" fill="#1F475F" fill-opacity="1"/></g><g><rect x="16" y="39" width="78" height="42" rx="20" fill="#397492" fill-opacity="1"/></g><g><g><path d="M43.5739859375,79.814838671875Q43.5739859375,80.064838671875,43.5616859375,80.314538671875Q43.5493859375,80.56433867187499,43.5248859375,80.813138671875Q43.500285937499996,81.061938671875,43.463485937499996,81.309338671875Q43.4267859375,81.55663867187499,43.3778859375,81.801838671875Q43.3289859375,82.047038671875,43.268085937500004,82.289638671875Q43.2071859375,82.532138671875,43.1344859375,82.771438671875Q43.061785937500005,83.010738671875,42.9773859375,83.246138671875Q42.8929859375,83.481538671875,42.7970859375,83.712538671875Q42.7011859375,83.943538671875,42.5939859375,84.169538671875Q42.4868859375,84.395538671875,42.3687859375,84.616038671875Q42.250685937499995,84.836638671875,42.1218859375,85.051038671875Q41.9930859375,85.26553867187499,41.853885937499996,85.473438671875Q41.714585937500004,85.681338671875,41.5653859375,85.882138671875Q41.4160859375,86.082938671875,41.2571859375,86.276238671875Q41.0981859375,86.469538671875,40.9298859375,86.654738671875Q40.761685937500005,86.84003867187499,40.5844859375,87.016838671875Q40.4072859375,87.193638671875,40.2216859375,87.361538671875Q40.0359859375,87.529438671875,39.8422859375,87.688038671875Q39.6485859375,87.846738671875,39.4473859375,87.995638671875Q39.2460859375,88.144538671875,39.037785937500004,88.283538671875Q38.829485937499996,88.422438671875,38.6144859375,88.550938671875Q38.3995859375,88.679438671875,38.1785859375,88.797338671875Q37.9576859375,88.915238671875,37.7311859375,89.022138671875Q37.5046859375,89.12903867187501,37.2731859375,89.224738671875Q37.0416859375,89.32033867187499,36.8057859375,89.404638671875Q36.5697859375,89.488838671875,36.3300859375,89.561438671875Q36.0902859375,89.634038671875,35.8471859375,89.694738671875Q35.6041859375,89.755538671875,35.3583859375,89.804338671875Q35.112685937500004,89.853038671875,34.8647859375,89.889738671875Q34.616985937500004,89.926438671875,34.367585937499996,89.95093867187501Q34.1182859375,89.975438671875,33.8679859375,89.98773867187501Q33.6176859375,90.000038671875,33.3671859375,90.000038671875Q33.1166059375,90.000038671875,32.8663459375,89.98773867187501Q32.6160859375,89.975438671875,32.3667259375,89.95093867187501Q32.1173659375,89.926438671875,31.869515937499997,89.889738671875Q31.621665937499998,89.853038671875,31.3759159375,89.804338671875Q31.1301659375,89.755538671875,30.8871059375,89.694738671875Q30.6440559375,89.634038671875,30.4042759375,89.561438671875Q30.1645059375,89.488838671875,29.9285859375,89.404638671875Q29.6926759375,89.32033867187499,29.461185937499998,89.224738671875Q29.2296859375,89.12903867187501,29.0031859375,89.022138671875Q28.776675937500002,88.915238671875,28.5556959375,88.797338671875Q28.3347259375,88.679438671875,28.1198059375,88.550938671875Q27.9048959375,88.422438671875,27.6965559375,88.283538671875Q27.4882159375,88.144538671875,27.2869659375,87.995638671875Q27.085705937500002,87.846738671875,26.8920259375,87.688038671875Q26.6983359375,87.529438671875,26.5126759375,87.361538671875Q26.3270259375,87.193638671875,26.1498459375,87.016838671875Q25.9726759375,86.84003867187499,25.8044059375,86.654738671875Q25.6361359375,86.469538671875,25.4771759375,86.276238671875Q25.3182259375,86.082938671875,25.1689659375,85.882138671875Q25.0197059375,85.681338671875,24.8804959375,85.473438671875Q24.7412859375,85.26553867187499,24.6124759375,85.051038671875Q24.4836559375,84.836638671875,24.3655459375,84.616038671875Q24.2474259375,84.395538671875,24.1402999375,84.169538671875Q24.0331699375,83.943538671875,23.9372829375,83.712538671875Q23.8413969375,83.481538671875,23.7569839375,83.246138671875Q23.6725719375,83.010738671875,23.5998369375,82.771438671875Q23.5271029375,82.532138671875,23.4662209375,82.289638671875Q23.4053379375,82.047038671875,23.3564559375,81.801838671875Q23.3075729375,81.55663867187499,23.2708079375,81.309338671875Q23.2340426375,81.061938671875,23.2094831375,80.813138671875Q23.1849236375,80.56433867187499,23.1726290275,80.314538671875Q23.1603344475,80.064838671875,23.1603344475,79.814838671875Q23.1603344475,79.564788671875,23.1726290275,79.315058671875Q23.1849236375,79.065328671875,23.2094831375,78.816498671875Q23.2340426375,78.567668671875,23.2708079375,78.320348671875Q23.3075729375,78.073018671875,23.3564559375,77.827788671875Q23.4053379375,77.582558671875,23.4662209375,77.340028671875Q23.5271029375,77.097488671875,23.5998369375,76.858218671875Q23.6725719375,76.618958671875,23.7569839375,76.383538671875Q23.8413969375,76.148118671875,23.9372829375,75.917118671875Q24.0331699375,75.686118671875,24.1402999375,75.460098671875Q24.2474259375,75.234068671875,24.3655459375,75.013558671875Q24.4836559375,74.793048671875,24.6124759375,74.578588671875Q24.7412859375,74.364128671875,24.8804959375,74.156238671875Q25.0197059375,73.948338671875,25.1689659375,73.747518671875Q25.3182259375,73.546688671875,25.4771759375,73.353408671875Q25.6361359375,73.160128671875,25.8044059375,72.974868671875Q25.9726759375,72.789608671875,26.1498459375,72.612808671875Q26.3270259375,72.436008671875,26.5126759375,72.268098671875Q26.6983359375,72.100188671875,26.8920259375,71.941568671875Q27.085705937500002,71.782948671875,27.2869659375,71.634008671875Q27.4882159375,71.485058671875,27.6965559375,71.346148671875Q27.9048959375,71.207238671875,28.1198059375,71.078698671875Q28.3347259375,70.950158671875,28.5556959375,70.832288671875Q28.776675937500002,70.714428671875,29.0031859375,70.607525671875Q29.2296859375,70.50062267187499,29.461185937499998,70.404939671875Q29.6926759375,70.309256671875,29.9285859375,70.225022671875Q30.1645059375,70.140789671875,30.4042759375,70.068209671875Q30.6440559375,69.995628671875,30.8871059375,69.934875671875Q31.1301659375,69.874122671875,31.3759159375,69.825343671875Q31.621665937499998,69.776565671875,31.869515937499997,69.739877671875Q32.1173659375,69.703190571875,32.3667259375,69.678683071875Q32.6160859375,69.654175671875,32.8663459375,69.641907171875Q33.1166059375,69.629638671875,33.3671859375,69.629638671875Q33.6176859375,69.629638671875,33.8679859375,69.641907171875Q34.1182859375,69.654175671875,34.367585937499996,69.678683071875Q34.616985937500004,69.703190571875,34.8647859375,69.739877671875Q35.112685937500004,69.776565671875,35.3583859375,69.825343671875Q35.6041859375,69.874122671875,35.8471859375,69.934875671875Q36.0902859375,69.995628671875,36.3300859375,70.068209671875Q36.5697859375,70.140789671875,36.8057859375,70.225022671875Q37.0416859375,70.309256671875,37.2731859375,70.404939671875Q37.5046859375,70.50062267187499,37.7311859375,70.607525671875Q37.9576859375,70.714428671875,38.1785859375,70.832288671875Q38.3995859375,70.950158671875,38.6144859375,71.078698671875Q38.829485937499996,71.207238671875,39.037785937500004,71.346148671875Q39.2460859375,71.485058671875,39.4473859375,71.634008671875Q39.6485859375,71.782948671875,39.8422859375,71.941568671875Q40.0359859375,72.100188671875,40.2216859375,72.268098671875Q40.4072859375,72.436008671875,40.5844859375,72.612808671875Q40.761685937500005,72.789608671875,40.9298859375,72.974868671875Q41.0981859375,73.160128671875,41.2571859375,73.353408671875Q41.4160859375,73.546688671875,41.5653859375,73.747518671875Q41.714585937500004,73.948338671875,41.853885937499996,74.156238671875Q41.9930859375,74.364128671875,42.1218859375,74.578588671875Q42.250685937499995,74.793048671875,42.3687859375,75.013558671875Q42.4868859375,75.234068671875,42.5940859375,75.460098671875Q42.7011859375,75.686118671875,42.7970859375,75.917118671875Q42.8929859375,76.148118671875,42.9773859375,76.383538671875Q43.061785937500005,76.618948671875,43.1344859375,76.858218671875Q43.2071859375,77.097488671875,43.268085937500004,77.340028671875Q43.3289859375,77.582558671875,43.3778859375,77.827788671875Q43.4267859375,78.073018671875,43.463485937499996,78.320348671875Q43.500285937499996,78.567668671875,43.5248859375,78.816498671875Q43.5493859375,79.065328671875,43.5616859375,79.315058671875Q43.5739859375,79.564788671875,43.5739859375,79.814838671875Z" fill="#001933" fill-opacity="1"/></g><g><path d="M40.71434677734375,79.81480583007813Q40.71434677734375,79.99483583007813,40.70544677734375,80.17463583007813Q40.69664677734375,80.35444583007812,40.678946777343754,80.53360583007813Q40.66124677734375,80.71275583007812,40.63484677734375,80.89083583007812Q40.60834677734375,81.06890583007812,40.57314677734375,81.24547583007812Q40.53794677734375,81.42203583007813,40.49414677734375,81.59666583007812Q40.45034677734375,81.77128583007813,40.39794677734375,81.94356583007813Q40.34564677734375,82.11583583007813,40.28484677734375,82.28533583007813Q40.22404677734375,82.45483583007812,40.15504677734375,82.62117583007813Q40.08604677734375,82.78747583007812,40.00894677734375,82.95017583007812Q39.93184677734375,83.11297583007813,39.84684677734375,83.27167583007812Q39.76174677734375,83.43047583007812,39.66904677734375,83.58487583007812Q39.57634677734375,83.73927583007813,39.47614677734375,83.88897583007812Q39.37594677734375,84.03867583007812,39.26854677734375,84.18327583007813Q39.16104677734375,84.32787583007813,39.04664677734375,84.46707583007813Q38.93224677734375,84.60617583007813,38.81114677734375,84.73957583007812Q38.68994677734375,84.87297583007813,38.56244677734375,85.00027583007812Q38.434946777343754,85.12757583007813,38.30124677734375,85.24847583007812Q38.16764677734375,85.36937583007813,38.02824677734375,85.48357583007812Q37.88884677734375,85.59777583007812,37.74394677734375,85.70497583007813Q37.59904677734375,85.81227583007812,37.44914677734375,85.91227583007813Q37.29914677734375,86.01227583007812,37.14444677734375,86.10477583007813Q36.989746777343754,86.19737583007813,36.83074677734375,86.28227583007812Q36.67164677734375,86.36707583007812,36.50864677734375,86.44407583007812Q36.34554677734375,86.52107583007813,36.178946777343754,86.58987583007813Q36.01230677734375,86.65877583007813,35.842496777343754,86.71947583007812Q35.67268677734375,86.78007583007812,35.50008677734375,86.83237583007812Q35.327496777343754,86.88467583007812,35.15254677734375,86.92837583007812Q34.97759677734375,86.97207583007813,34.80070677734375,87.00727583007813Q34.62380677734375,87.04237583007813,34.44540677734375,87.06877583007812Q34.26700677734375,87.09517583007812,34.08751677734375,87.11287583007812Q33.90802677734375,87.13047583007813,33.72788677734375,87.13927583007812Q33.54774677734375,87.14817583007813,33.367386777343754,87.14817583007813Q33.187026777343746,87.14817583007813,33.00688677734375,87.13927583007812Q32.82674677734375,87.13047583007813,32.64725677734375,87.11287583007812Q32.46776677734375,87.09517583007812,32.28936677734375,87.06877583007812Q32.11095677734375,87.04237583007813,31.93406677734375,87.00727583007813Q31.75717677734375,86.97207583007813,31.58222677734375,86.92837583007812Q31.40727677734375,86.88467583007812,31.23468677734375,86.83237583007812Q31.06208677734375,86.78007583007812,30.89227677734375,86.71947583007812Q30.72246677734375,86.65877583007813,30.55583677734375,86.58987583007813Q30.38920677734375,86.52107583007813,30.22616677734375,86.44407583007812Q30.06312677734375,86.36707583007812,29.90406677734375,86.28227583007812Q29.74500677734375,86.19737583007813,29.59030677734375,86.10477583007813Q29.43560677734375,86.01227583007812,29.28564677734375,85.91227583007813Q29.13568677734375,85.81227583007812,28.99081677734375,85.70497583007813Q28.84595677734375,85.59777583007812,28.70653677734375,85.48357583007812Q28.56711677734375,85.36937583007813,28.43348677734375,85.24847583007812Q28.29984677734375,85.12757583007813,28.17231677734375,85.00027583007812Q28.04478677734375,84.87297583007813,27.92366677734375,84.73957583007812Q27.80254677734375,84.60617583007813,27.68812677734375,84.46697583007813Q27.57370677734375,84.32787583007813,27.46626677734375,84.18327583007813Q27.35882677734375,84.03867583007812,27.25862677734375,83.88897583007812Q27.15842677734375,83.73927583007813,27.06570677734375,83.58487583007812Q26.97298377734375,83.43047583007812,26.88796377734375,83.27167583007812Q26.80294477734375,83.11297583007813,26.72583177734375,82.95017583007812Q26.64871877734375,82.78747583007812,26.57969877734375,82.62117583007813Q26.51067977734375,82.45483583007812,26.44991877734375,82.28533583007813Q26.38915877734375,82.11583583007813,26.33680377734375,81.94356583007813Q26.28444877734375,81.77128583007813,26.24062577734375,81.59666583007812Q26.19680177734375,81.42203583007813,26.16161577734375,81.24547583007812Q26.12642977734375,81.06890583007812,26.09996627734375,80.89083583007812Q26.07350237734375,80.71275583007812,26.05582427734375,80.53360583007813Q26.03814617734375,80.35444583007812,26.02929648734375,80.17463583007813Q26.02044677734375,79.99483583007813,26.02044677734375,79.81480583007813Q26.02044677734375,79.63478583007813,26.02929648734375,79.45497583007813Q26.03814617734375,79.27517583007813,26.05582427734375,79.09601583007813Q26.07350237734375,78.91685583007812,26.09996627734375,78.73878583007813Q26.12642977734375,78.56070583007812,26.16161577734375,78.38414583007813Q26.19680177734375,78.20758583007813,26.24062577734375,78.03295583007812Q26.28444877734375,77.85832583007813,26.33680377734375,77.68605583007812Q26.38915877734375,77.51378583007812,26.44991877734375,77.34428583007812Q26.51067977734375,77.17478583007812,26.57969877734375,77.00846583007812Q26.64871877734375,76.84214583007812,26.72583177734375,76.67940583007812Q26.80294477734375,76.51666583007813,26.88796377734375,76.35789583007812Q26.97298377734375,76.19913583007812,27.06570677734375,76.04472583007812Q27.15842677734375,75.89031583007812,27.25862677734375,75.74062583007813Q27.35882677734375,75.59094583007813,27.46626677734375,75.44634583007813Q27.57370677734375,75.30175583007812,27.68812677734375,75.16259583007812Q27.80254677734375,75.02343583007813,27.92366677734375,74.89004583007812Q28.04478677734375,74.75665583007813,28.17231677734375,74.62935583007813Q28.29984677734375,74.50206583007812,28.43348677734375,74.38116583007813Q28.56711677734375,74.26027583007813,28.70653677734375,74.14606583007813Q28.84595677734375,74.03185583007813,28.99081677734375,73.92461583007812Q29.13568677734375,73.81737583007812,29.28564677734375,73.71736583007812Q29.43560677734375,73.61734583007812,29.59030677734375,73.52479583007812Q29.74500677734375,73.43224883007812,29.90406677734375,73.34738683007812Q30.06312677734375,73.26252383007812,30.22616677734375,73.18555383007812Q30.38920677734375,73.10858483007813,30.55583677734375,73.03969283007812Q30.72246677734375,72.97080083007812,30.89227677734375,72.91015283007812Q31.06208677734375,72.84950483007813,31.23468677734375,72.79724683007812Q31.40727677734375,72.74498883007813,31.58222677734375,72.70124683007812Q31.75717677734375,72.65750483007812,31.93406677734375,72.62238383007812Q32.11095677734375,72.58726283007813,32.28936677734375,72.56084813007813Q32.46777677734375,72.53443323007812,32.64725677734375,72.51678783007813Q32.82674677734375,72.49914243007812,33.00688677734375,72.49030915007812Q33.187026777343746,72.48147583007812,33.367386777343754,72.48147583007812Q33.54774677734375,72.48147583007812,33.72788677734375,72.49030915007812Q33.90802677734375,72.49914243007812,34.08751677734375,72.51678783007813Q34.26700677734375,72.53443323007812,34.44540677734375,72.56084813007813Q34.62380677734375,72.58726283007813,34.80070677734375,72.62238383007812Q34.97759677734375,72.65750483007812,35.15254677734375,72.70124683007812Q35.327496777343754,72.74498883007813,35.50008677734375,72.79724683007812Q35.67268677734375,72.84950483007813,35.842496777343754,72.91015283007812Q36.01230677734375,72.97080083007812,36.178946777343754,73.03969283007812Q36.34554677734375,73.10858483007813,36.50864677734375,73.18555383007812Q36.67164677734375,73.26252383007812,36.83074677734375,73.34738683007812Q36.989746777343754,73.43224883007812,37.14444677734375,73.52479583007812Q37.29914677734375,73.61734583007812,37.44914677734375,73.71736583007812Q37.59904677734375,73.81737583007812,37.74394677734375,73.92461583007812Q37.88884677734375,74.03185583007813,38.02824677734375,74.14606583007813Q38.16764677734375,74.26027583007813,38.30124677734375,74.38116583007813Q38.434946777343754,74.50206583007812,38.56244677734375,74.62935583007813Q38.68994677734375,74.75665583007813,38.81114677734375,74.89004583007812Q38.93224677734375,75.02343583007813,39.04664677734375,75.16259583007812Q39.16104677734375,75.30175583007812,39.26854677734375,75.44634583007813Q39.37594677734375,75.59094583007813,39.47614677734375,75.74062583007813Q39.57634677734375,75.89031583007812,39.66904677734375,76.04472583007812Q39.76174677734375,76.19913583007812,39.84684677734375,76.35789583007812Q39.93184677734375,76.51666583007813,40.00894677734375,76.67940583007812Q40.08604677734375,76.84214583007812,40.15504677734375,77.00846583007812Q40.22404677734375,77.17478583007812,40.28484677734375,77.34428583007812Q40.34564677734375,77.51378583007812,40.39794677734375,77.68605583007812Q40.45034677734375,77.85832583007813,40.49414677734375,78.03295583007812Q40.53794677734375,78.20758583007813,40.57314677734375,78.38414583007813Q40.60834677734375,78.56071583007812,40.63484677734375,78.73878583007813Q40.66124677734375,78.91685583007812,40.678946777343754,79.09601583007813Q40.69664677734375,79.27517583007813,40.70544677734375,79.45497583007813Q40.71434677734375,79.63478583007813,40.71434677734375,79.81480583007813Z" fill="#1F475F" fill-opacity="1"/></g><g><ellipse cx="33.36723232269287" cy="79.8148078918457" rx="2.040816307067871" ry="2.037036895751953" fill="#001933" fill-opacity="1"/></g></g><g><g><path d="M87.19660556640625,78.9352Q87.19660556640625,79.1852,87.18430556640625,79.4349Q87.17200556640626,79.68469999999999,87.14750556640625,79.9335Q87.12290556640625,80.1823,87.08610556640625,80.4297Q87.04940556640625,80.67699999999999,87.00050556640625,80.9222Q86.95160556640624,81.1674,86.89070556640625,81.41Q86.82980556640625,81.6525,86.75710556640625,81.8918Q86.68440556640626,82.1311,86.60000556640625,82.3665Q86.51560556640625,82.6019,86.41970556640625,82.8329Q86.32380556640625,83.0639,86.21660556640626,83.2899Q86.10950556640626,83.5159,85.99140556640626,83.7364Q85.87330556640624,83.957,85.74450556640625,84.1714Q85.61570556640625,84.38589999999999,85.47650556640625,84.5938Q85.33720556640625,84.8017,85.18800556640625,85.0025Q85.03870556640625,85.2033,84.87980556640625,85.3966Q84.72080556640626,85.5899,84.55250556640625,85.7751Q84.38430556640625,85.96039999999999,84.20710556640626,86.1372Q84.02990556640626,86.314,83.84430556640625,86.4819Q83.65860556640625,86.6498,83.46490556640626,86.8084Q83.27120556640625,86.9671,83.07000556640625,87.116Q82.86870556640625,87.2649,82.66040556640625,87.4039Q82.45210556640625,87.5428,82.23710556640626,87.6713Q82.02220556640626,87.7998,81.80120556640625,87.9177Q81.58030556640625,88.0356,81.35380556640625,88.1425Q81.12730556640625,88.24940000000001,80.89580556640625,88.3451Q80.66430556640626,88.44069999999999,80.42840556640625,88.525Q80.19240556640625,88.6092,79.95270556640625,88.6818Q79.71290556640625,88.7544,79.46980556640625,88.8151Q79.22680556640626,88.8759,78.98100556640625,88.9247Q78.73530556640625,88.9734,78.48740556640625,89.0101Q78.23960556640625,89.0468,77.99020556640625,89.07130000000001Q77.74090556640625,89.0958,77.49060556640624,89.10810000000001Q77.24030556640625,89.1204,76.98980556640625,89.1204Q76.73922556640625,89.1204,76.48896556640625,89.10810000000001Q76.23870556640625,89.0958,75.98934556640626,89.07130000000001Q75.73998556640625,89.0468,75.49213556640625,89.0101Q75.24428556640625,88.9734,74.99853556640625,88.9247Q74.75278556640625,88.8759,74.50972556640625,88.8151Q74.26667556640625,88.7544,74.02689556640625,88.6818Q73.78712556640625,88.6092,73.55120556640625,88.525Q73.31529556640625,88.44069999999999,73.08380556640626,88.3451Q72.85230556640624,88.24940000000001,72.62580556640626,88.1425Q72.39929556640625,88.0356,72.17831556640625,87.9177Q71.95734556640625,87.7998,71.74242556640625,87.6713Q71.52751556640625,87.5428,71.31917556640624,87.4039Q71.11083556640625,87.2649,70.90958556640625,87.116Q70.70832556640624,86.9671,70.51464556640624,86.8084Q70.32095556640625,86.6498,70.13529556640626,86.4819Q69.94964556640625,86.314,69.77246556640625,86.1372Q69.59529556640625,85.96039999999999,69.42702556640624,85.7751Q69.25875556640625,85.5899,69.09979556640624,85.3966Q68.94084556640625,85.2033,68.79158556640625,85.0025Q68.64232556640626,84.8017,68.50311556640625,84.5938Q68.36390556640625,84.38589999999999,68.23509556640624,84.1714Q68.10627556640625,83.957,67.98816556640625,83.7364Q67.87004556640625,83.5159,67.76291956640625,83.2899Q67.65578956640626,83.0639,67.55990256640625,82.8329Q67.46401656640624,82.6019,67.37960356640625,82.3665Q67.29519156640625,82.1311,67.22245656640625,81.8918Q67.14972256640625,81.6525,67.08884056640625,81.41Q67.02795756640624,81.1674,66.97907556640625,80.9222Q66.93019256640625,80.67699999999999,66.89342756640625,80.4297Q66.85666226640625,80.1823,66.83210276640625,79.9335Q66.80754326640626,79.68469999999999,66.79524865640624,79.4349Q66.78295407640626,79.1852,66.78295407640626,78.9352Q66.78295407640626,78.68515,66.79524865640624,78.43542Q66.80754326640626,78.18569,66.83210276640625,77.93686Q66.85666226640625,77.68803,66.89342756640625,77.44071Q66.93019256640625,77.19338,66.97907556640625,76.94815Q67.02795756640624,76.70292,67.08884056640625,76.46039Q67.14972256640625,76.21785,67.22245656640625,75.97858Q67.29519156640625,75.73932,67.37960356640625,75.5039Q67.46401656640624,75.26848,67.55990256640625,75.03748Q67.65578956640626,74.80648,67.76291956640625,74.58046Q67.87004556640625,74.35443,67.98816556640625,74.13392Q68.10627556640625,73.91341,68.23509556640624,73.69895Q68.36390556640625,73.48449,68.50311556640625,73.2766Q68.64232556640626,73.0687,68.79158556640625,72.86788Q68.94084556640625,72.66705,69.09979556640624,72.47377Q69.25875556640625,72.28049,69.42702556640624,72.09523Q69.59529556640625,71.90997,69.77246556640625,71.73317Q69.94964556640625,71.55637,70.13529556640626,71.38846Q70.32095556640625,71.22055,70.51464556640624,71.06193Q70.70832556640624,70.90331,70.90958556640625,70.75437Q71.11083556640625,70.60542,71.31917556640624,70.46651Q71.52751556640625,70.3276,71.74242556640625,70.19906Q71.95734556640625,70.07052,72.17831556640625,69.95265Q72.39929556640625,69.83479,72.62580556640626,69.727887Q72.85230556640624,69.62098399999999,73.08380556640626,69.525301Q73.31529556640625,69.429618,73.55120556640625,69.345384Q73.78712556640625,69.261151,74.02689556640625,69.188571Q74.26667556640625,69.11599,74.50972556640625,69.055237Q74.75278556640625,68.994484,74.99853556640625,68.945705Q75.24428556640625,68.896927,75.49213556640625,68.860239Q75.73998556640625,68.8235519,75.98934556640626,68.7990444Q76.23870556640625,68.774537,76.48896556640625,68.7622685Q76.73922556640625,68.75,76.98980556640625,68.75Q77.24030556640625,68.75,77.49060556640624,68.7622685Q77.74090556640625,68.774537,77.99020556640625,68.7990444Q78.23960556640625,68.8235519,78.48740556640625,68.860239Q78.73530556640625,68.896927,78.98100556640625,68.945705Q79.22680556640626,68.994484,79.46980556640625,69.055237Q79.71290556640625,69.11599,79.95270556640625,69.188571Q80.19240556640625,69.261151,80.42840556640625,69.345384Q80.66430556640626,69.429618,80.89580556640625,69.525301Q81.12730556640625,69.62098399999999,81.35380556640625,69.727887Q81.58030556640625,69.83479,81.80120556640625,69.95265Q82.02220556640626,70.07052,82.23710556640626,70.19906Q82.45210556640625,70.3276,82.66040556640625,70.46651Q82.86870556640625,70.60542,83.07000556640625,70.75437Q83.27120556640625,70.90331,83.46490556640626,71.06193Q83.65860556640625,71.22055,83.84430556640625,71.38846Q84.02990556640626,71.55637,84.20710556640626,71.73317Q84.38430556640625,71.90997,84.55250556640625,72.09523Q84.72080556640626,72.28049,84.87980556640625,72.47377Q85.03870556640625,72.66705,85.18800556640625,72.86788Q85.33720556640625,73.0687,85.47650556640625,73.2766Q85.61570556640625,73.48449,85.74450556640625,73.69895Q85.87330556640624,73.91341,85.99140556640626,74.13392Q86.10950556640626,74.35443,86.21670556640625,74.58046Q86.32380556640625,74.80648,86.41970556640625,75.03748Q86.51560556640625,75.26848,86.60000556640625,75.5039Q86.68440556640626,75.73931,86.75710556640625,75.97858Q86.82980556640625,76.21785,86.89070556640625,76.46039Q86.95160556640624,76.70292,87.00050556640625,76.94815Q87.04940556640625,77.19338,87.08610556640625,77.44071Q87.12290556640625,77.68803,87.14750556640625,77.93686Q87.17200556640626,78.18569,87.18430556640625,78.43542Q87.19660556640625,78.68515,87.19660556640625,78.9352Z" fill="#001933" fill-opacity="1"/></g><g><path d="M84.33696640625,78.93516715820313Q84.33696640625,79.11519715820313,84.32806640625,79.29499715820313Q84.31926640625,79.47480715820312,84.30156640625,79.65396715820313Q84.28386640625,79.83311715820312,84.25746640625,80.01119715820312Q84.23096640625,80.18926715820312,84.19576640625,80.36583715820312Q84.16056640625,80.54239715820313,84.11676640625,80.71702715820312Q84.07296640625,80.89164715820313,84.02056640625,81.06392715820313Q83.96826640625,81.23619715820313,83.90746640625,81.40569715820313Q83.84666640625,81.57519715820312,83.77766640625,81.74153715820313Q83.70866640625,81.90783715820312,83.63156640625,82.07053715820312Q83.55446640625,82.23333715820313,83.46946640625,82.39203715820312Q83.38436640625,82.55083715820312,83.29166640625,82.70523715820312Q83.19896640625,82.85963715820313,83.09876640625001,83.00933715820312Q82.99856640625,83.15903715820312,82.89116640625,83.30363715820313Q82.78366640625,83.44823715820313,82.66926640625,83.58743715820313Q82.55486640625,83.72653715820313,82.43376640625,83.85993715820312Q82.31256640625,83.99333715820313,82.18506640625,84.12063715820312Q82.05756640625,84.24793715820313,81.92386640625,84.36883715820312Q81.79026640625,84.48973715820313,81.65086640625,84.60393715820312Q81.51146640625,84.71813715820312,81.36656640625,84.82533715820313Q81.22166640625,84.93263715820312,81.07176640624999,85.03263715820313Q80.92176640625,85.13263715820312,80.76706640625,85.22513715820313Q80.61236640625,85.31773715820313,80.45336640625,85.40263715820312Q80.29426640625,85.48743715820312,80.13126640625,85.56443715820312Q79.96816640625,85.64143715820313,79.80156640625,85.71023715820313Q79.63492640625,85.77913715820313,79.46511640625,85.83983715820312Q79.29530640625,85.90043715820312,79.12270640625,85.95273715820312Q78.95011640625,86.00503715820312,78.77516640625,86.04873715820312Q78.60021640625,86.09243715820313,78.42332640625,86.12763715820313Q78.24642640625,86.16273715820313,78.06802640625,86.18913715820312Q77.88962640625,86.21553715820312,77.71013640625,86.23323715820312Q77.53064640625,86.25083715820313,77.35050640625,86.25963715820312Q77.17036640625,86.26853715820313,76.99000640625,86.26853715820313Q76.80964640625,86.26853715820313,76.62950640625,86.25963715820312Q76.44936640625,86.25083715820313,76.26987640625,86.23323715820312Q76.09038640625,86.21553715820312,75.91198640625,86.18913715820312Q75.73357640625,86.16273715820313,75.55668640625,86.12763715820313Q75.37979640625,86.09243715820313,75.20484640625,86.04873715820312Q75.02989640625,86.00503715820312,74.85730640625,85.95273715820312Q74.68470640625,85.90043715820312,74.51489640625,85.83983715820312Q74.34508640625,85.77913715820313,74.17845640625,85.71023715820313Q74.01182640625,85.64143715820313,73.84878640625,85.56443715820312Q73.68574640625,85.48743715820312,73.52668640625,85.40263715820312Q73.36762640625,85.31773715820313,73.21292640625,85.22513715820313Q73.05822640625,85.13263715820312,72.90826640625,85.03263715820313Q72.75830640625,84.93263715820312,72.61343640625,84.82533715820313Q72.46857640625,84.71813715820312,72.32915640625001,84.60393715820312Q72.18973640625,84.48973715820313,72.05610640625,84.36883715820312Q71.92246640625,84.24793715820313,71.79493640625,84.12063715820312Q71.66740640625,83.99333715820313,71.54628640625,83.85993715820312Q71.42516640625,83.72653715820313,71.31074640625,83.58733715820313Q71.19632640625,83.44823715820313,71.08888640625,83.30363715820313Q70.98144640625,83.15903715820312,70.88124640625,83.00933715820312Q70.78104640625,82.85963715820313,70.68832640625,82.70523715820312Q70.59560340625,82.55083715820312,70.51058340625,82.39203715820312Q70.42556440625,82.23333715820313,70.34845140625,82.07053715820312Q70.27133840625,81.90783715820312,70.20231840625,81.74153715820313Q70.13329940625,81.57519715820312,70.07253840625,81.40569715820313Q70.01177840625,81.23619715820313,69.95942340625,81.06392715820313Q69.90706840625,80.89164715820313,69.86324540625,80.71702715820312Q69.81942140625,80.54239715820313,69.78423540625,80.36583715820312Q69.74904940625,80.18926715820312,69.72258590625,80.01119715820312Q69.69612200625,79.83311715820312,69.67844390625,79.65396715820313Q69.66076580625,79.47480715820312,69.65191611625,79.29499715820313Q69.64306640625,79.11519715820313,69.64306640625,78.93516715820313Q69.64306640625,78.75514715820313,69.65191611625,78.57533715820313Q69.66076580625,78.39553715820313,69.67844390625,78.21637715820313Q69.69612200625,78.03721715820312,69.72258590625,77.85914715820313Q69.74904940625,77.68106715820312,69.78423540625,77.50450715820313Q69.81942140625,77.32794715820313,69.86324540625,77.15331715820312Q69.90706840625,76.97868715820313,69.95942340625,76.80641715820312Q70.01177840625,76.63414715820312,70.07253840625,76.46464715820312Q70.13329940625,76.29514715820312,70.20231840625,76.12882715820312Q70.27133840625,75.96250715820312,70.34845140625,75.79976715820312Q70.42556440625,75.63702715820313,70.51058340625,75.47825715820312Q70.59560340625,75.31949715820312,70.68832640625,75.16508715820312Q70.78104640625,75.01067715820312,70.88124640625,74.86098715820313Q70.98144640625,74.71130715820313,71.08888640625,74.56670715820313Q71.19632640625,74.42211715820312,71.31074640625,74.28295715820312Q71.42516640625,74.14379715820313,71.54628640625,74.01040715820312Q71.66740640625,73.87701715820313,71.79493640625,73.74971715820313Q71.92246640625,73.62242715820312,72.05610640625,73.50152715820313Q72.18973640625,73.38063715820313,72.32915640625001,73.26642715820313Q72.46857640625,73.15221715820313,72.61343640625,73.04497715820312Q72.75830640625,72.93773715820312,72.90826640625,72.83772715820312Q73.05822640625,72.73770715820312,73.21292640625,72.64515715820312Q73.36762640625,72.55261015820312,73.52668640625,72.46774815820312Q73.68574640625,72.38288515820312,73.84878640625,72.30591515820312Q74.01182640625,72.22894615820313,74.17845640625,72.16005415820312Q74.34508640625,72.09116215820312,74.51489640625,72.03051415820312Q74.68470640625,71.96986615820313,74.85730640625,71.91760815820312Q75.02989640625,71.86535015820313,75.20484640625,71.82160815820312Q75.37979640625,71.77786615820312,75.55668640625,71.74274515820312Q75.73357640625,71.70762415820313,75.91198640625,71.68120945820313Q76.09039640625,71.65479455820312,76.26987640625,71.63714915820313Q76.44936640625,71.61950375820312,76.62950640625,71.61067047820312Q76.80964640625,71.60183715820312,76.99000640625,71.60183715820312Q77.17036640625,71.60183715820312,77.35050640625,71.61067047820312Q77.53064640625,71.61950375820312,77.71013640625,71.63714915820313Q77.88962640625,71.65479455820312,78.06802640625,71.68120945820313Q78.24642640625,71.70762415820313,78.42332640625,71.74274515820312Q78.60021640625,71.77786615820312,78.77516640625,71.82160815820312Q78.95011640625,71.86535015820313,79.12270640625,71.91760815820312Q79.29530640625,71.96986615820313,79.46511640625,72.03051415820312Q79.63492640625,72.09116215820312,79.80156640625,72.16005415820312Q79.96816640625,72.22894615820313,80.13126640625,72.30591515820312Q80.29426640625,72.38288515820312,80.45336640625,72.46774815820312Q80.61236640625,72.55261015820312,80.76706640625,72.64515715820312Q80.92176640625,72.73770715820312,81.07176640624999,72.83772715820312Q81.22166640625,72.93773715820312,81.36656640625,73.04497715820312Q81.51146640625,73.15221715820313,81.65086640625,73.26642715820313Q81.79026640625,73.38063715820313,81.92386640625,73.50152715820313Q82.05756640625,73.62242715820312,82.18506640625,73.74971715820313Q82.31256640625,73.87701715820313,82.43376640625,74.01040715820312Q82.55486640625,74.14379715820313,82.66926640625,74.28295715820312Q82.78366640625,74.42211715820312,82.89116640625,74.56670715820313Q82.99856640625,74.71130715820313,83.09876640625001,74.86098715820313Q83.19896640625,75.01067715820312,83.29166640625,75.16508715820312Q83.38436640625,75.31949715820312,83.46946640625,75.47825715820312Q83.55446640625,75.63702715820313,83.63156640625,75.79976715820312Q83.70866640625,75.96250715820312,83.77766640625,76.12882715820312Q83.84666640625,76.29514715820312,83.90746640625,76.46464715820312Q83.96826640625,76.63414715820312,84.02056640625,76.80641715820312Q84.07296640625,76.97868715820313,84.11676640625,77.15331715820312Q84.16056640625,77.32794715820313,84.19576640625,77.50450715820313Q84.23096640625,77.68107715820312,84.25746640625,77.85914715820313Q84.28386640625,78.03721715820312,84.30156640625,78.21637715820313Q84.31926640625,78.39553715820313,84.32806640625,78.57533715820313Q84.33696640625,78.75514715820313,84.33696640625,78.93516715820313Z" fill="#1F475F" fill-opacity="1"/></g><g><ellipse cx="76.98985195159912" cy="78.9351692199707" rx="2.040816307067871" ry="2.037036895751953" fill="#001933" fill-opacity="1"/></g></g><g><g><path d="M40,35L59.677,35L59.677,39L40,38.99999L40,35ZM68.9988,35L71,35L71,39L68.9988,39L68.9988,35Z" fill="#001933" fill-opacity="1"/></g><g><path d="M39,33L61,33L61,35L39,35L39,33Z" fill="#0F263D" fill-opacity="1"/></g><g><path d="M42,26L45,26L45,33L42,33L42,26Z" fill="#0A0F18" fill-opacity="1"/></g><g><path d="M52,27L56,27L56,29L52,29L52,27Z" fill="#0F263D" fill-opacity="1"/></g><g><path d="M50.00000396332,25L58,25L58,27L50,27L50.00000396332,25Z" fill="#001933" fill-opacity="1"/></g><g><g><path d="M76,31.999969482421875Q76,32.14725948242187,75.9928,32.294379482421874Q75.9855,32.44148948242187,75.9711,32.58806948242187Q75.9567,32.734659482421876,75.9351,32.88034948242188Q75.9134,33.026049482421875,75.8847,33.17050948242188Q75.856,33.31496948242187,75.8202,33.45784948242188Q75.7844,33.600729482421876,75.7416,33.74167948242187Q75.6989,33.882629482421876,75.6493,34.02130948242188Q75.5996,34.15998948242188,75.5433,34.29606948242187Q75.4869,34.43214948242188,75.4239,34.56529948242188Q75.361,34.69844948242188,75.2915,34.82834948242187Q75.2221,34.95824948242188,75.1464,35.084589482421876Q75.0706,35.21091948242187,74.9888,35.33338948242188Q74.907,35.45585948242187,74.8192,35.57416948242187Q74.7315,35.69246948242188,74.6381,35.80632948242187Q74.5446,35.920189482421875,74.4457,36.02936948242188Q74.3468,36.138469482421876,74.2426,36.24256948242187Q74.1385,36.34676948242188,74.0294,36.44566948242188Q73.92022,36.54456948242188,73.80636,36.638069482421876Q73.6925,36.73146948242187,73.57419,36.81916948242188Q73.45589,36.90696948242187,73.33342,36.98876948242187Q73.21095,37.070569482421874,73.08461,37.146369482421875Q72.95828,37.22206948242187,72.82838,37.291469482421874Q72.69848,37.36096948242188,72.56533,37.42386948242188Q72.43218,37.486869482421874,72.2961,37.54326948242188Q72.16002,37.59956948242188,72.02134,37.64926948242187Q71.88265,37.69886948242188,71.74171,37.74156948242187Q71.60076,37.78436948242187,71.45788,37.820169482421875Q71.315,37.85596948242188,71.17054,37.88466948242188Q71.02608000000001,37.91336948242187,70.88038,37.93506948242187Q70.73468,37.95666948242187,70.5881,37.971069482421875Q70.44152,37.98546948242188,70.2944,37.99276948242188Q70.14729,37.999969482421875,70,37.999969482421875Q69.85271,37.999969482421875,69.70559,37.99276948242188Q69.55848,37.98546948242188,69.41189,37.971069482421875Q69.26531,37.95666948242187,69.11961,37.93506948242187Q68.97391999999999,37.91336948242187,68.82945,37.88466948242188Q68.68499,37.85596948242188,68.54212,37.820169482421875Q68.39924,37.78436948242187,68.25829,37.74156948242187Q68.11734,37.69886948242188,67.97866,37.64926948242187Q67.83998,37.59956948242188,67.7039,37.54326948242188Q67.56782,37.486869482421874,67.43467,37.42386948242188Q67.30152,37.36096948242188,67.17162,37.291469482421874Q67.04172,37.22206948242187,66.91538,37.146369482421875Q66.78904,37.070569482421874,66.66657000000001,36.98876948242187Q66.54411,36.90696948242187,66.4258,36.81916948242188Q66.30749,36.73146948242187,66.19364,36.638069482421876Q66.07978,36.54456948242188,65.97064,36.44566948242188Q65.86151,36.34676948242188,65.75735,36.24256948242187Q65.6532,36.138469482421876,65.55429,36.02936948242188Q65.45537,35.920189482421875,65.36193,35.80632948242187Q65.26849,35.69246948242188,65.18075,35.57415948242188Q65.09301,35.45585948242187,65.01118,35.33338948242188Q64.929347,35.21091948242187,64.853623,35.084589482421876Q64.7779,34.95824948242188,64.708467,34.82834948242187Q64.639035,34.69844948242188,64.576059,34.56529948242188Q64.513084,34.43214948242188,64.456718,34.29606948242187Q64.400352,34.15998948242188,64.35073,34.02130948242188Q64.301109,33.882629482421876,64.258353,33.74167948242187Q64.215596,33.600729482421876,64.179807,33.45784948242188Q64.144018,33.31496948242187,64.115283,33.17050948242188Q64.086548,33.026049482421875,64.0649358,32.88034948242188Q64.0433236,32.734659482421876,64.0288865,32.58806948242187Q64.0144493,32.44148948242187,64.00722207,32.294379482421874Q63.99999480552,32.14725948242187,63.99999480552,31.999969482421875Q63.99999480552,31.852679482421877,64.00722207,31.705559482421876Q64.0144493,31.558449482421874,64.0288865,31.411869482421874Q64.0433236,31.265279482421874,64.0649358,31.119589482421876Q64.086548,30.973889482421875,64.115283,30.829429482421876Q64.144018,30.684969482421874,64.179807,30.542089482421876Q64.215596,30.399209482421874,64.258353,30.258259482421874Q64.301109,30.117309482421874,64.350731,29.978629482421876Q64.400352,29.839949482421876,64.456718,29.703869482421876Q64.513084,29.567789482421876,64.576059,29.434639482421876Q64.639035,29.301489482421875,64.708467,29.171589482421876Q64.7779,29.041689482421877,64.853623,28.915349482421874Q64.929347,28.789019482421875,65.01118,28.666549482421875Q65.09301,28.544079482421875,65.18075,28.425769482421874Q65.26849,28.307469482421876,65.36193,28.193609482421873Q65.45537,28.079749482421875,65.55429,27.970619482421874Q65.6532,27.861479482421874,65.75735,27.757329482421873Q65.86151,27.653179482421876,65.97064,27.554259482421877Q66.07978,27.455349482421873,66.19364,27.361909482421876Q66.30749,27.268469482421875,66.4258,27.180719482421875Q66.54411,27.092979482421875,66.66657000000001,27.011149482421875Q66.78904,26.929320482421875,66.91538,26.853597482421875Q67.04172,26.777874482421876,67.17162,26.708441482421875Q67.30152,26.639009482421876,67.43467,26.576033482421874Q67.56782,26.513058482421876,67.7039,26.456692482421875Q67.83998,26.400326482421875,67.97866,26.350705482421876Q68.11734,26.301083482421873,68.25829,26.258327482421876Q68.39924,26.215570482421874,68.54212,26.179781482421873Q68.68499,26.143992482421876,68.82945,26.115257482421875Q68.97391999999999,26.086522582421875,69.11961,26.064910382421875Q69.26531,26.043298282421876,69.41189,26.028861082421876Q69.55848,26.014423982421874,69.70559,26.007196742421876Q69.85271,25.999969482421875,70,25.999969482421875Q70.14729,25.999969482421875,70.2944,26.007196742421876Q70.44152,26.014423982421874,70.5881,26.028861082421876Q70.73468,26.043298282421876,70.88038,26.064910382421875Q71.02608000000001,26.086522582421875,71.17054,26.115257482421875Q71.315,26.143992482421876,71.45788,26.179781482421873Q71.60076,26.215570482421874,71.7417,26.258327482421876Q71.88265,26.301083482421873,72.02134,26.350705482421876Q72.16002,26.400326482421875,72.2961,26.456692482421875Q72.43218,26.513058482421876,72.56533,26.576033482421874Q72.69848,26.639009482421876,72.82838,26.708441482421875Q72.95828,26.777874482421876,73.08461,26.853597482421875Q73.21095,26.929320482421875,73.33342,27.011149482421875Q73.45589,27.092979482421875,73.57419,27.180719482421875Q73.6925,27.268469482421875,73.80636,27.361909482421876Q73.92022,27.455349482421873,74.0294,27.554259482421877Q74.1385,27.653179482421876,74.2426,27.757329482421873Q74.3468,27.861479482421874,74.4457,27.970619482421874Q74.5446,28.079749482421875,74.6381,28.193609482421873Q74.7315,28.307469482421876,74.8192,28.425769482421874Q74.907,28.544079482421875,74.9888,28.666549482421875Q75.0706,28.789019482421875,75.1464,28.915349482421874Q75.2221,29.041689482421877,75.2915,29.171589482421876Q75.361,29.301489482421875,75.4239,29.434639482421876Q75.4869,29.567789482421876,75.5433,29.703869482421876Q75.5996,29.839949482421876,75.6493,29.978629482421876Q75.6989,30.117309482421874,75.7416,30.258259482421874Q75.7844,30.399209482421874,75.8202,30.542089482421876Q75.856,30.684969482421874,75.8847,30.829429482421876Q75.9134,30.973889482421875,75.9351,31.119589482421876Q75.9567,31.265289482421874,75.9711,31.411869482421874Q75.9855,31.558449482421874,75.9928,31.705559482421876Q76,31.852679482421877,76,31.999969482421875Z" fill="#397492" fill-opacity="1"/></g><g><path d="M74.71421751148225,31.999980903663634Q74.71421751148225,32.11571090366363,74.70853751148223,32.231290903663634Q74.70285751148224,32.34688090366363,74.69151751148223,32.462060903663634Q74.68017751148224,32.57723090366363,74.66319751148224,32.69171090366363Q74.64620751148223,32.80618090366364,74.62363751148224,32.919690903663636Q74.60105751148224,33.03319090366364,74.57293751148224,33.14545090366364Q74.54481751148224,33.257710903663636,74.51122751148225,33.36846090366363Q74.47762751148224,33.479210903663635,74.43863751148224,33.58817090366364Q74.39965751148225,33.697130903663634,74.35536751148224,33.80405090366364Q74.31107751148224,33.91097090366364,74.26159751148224,34.015590903663636Q74.21211751148223,34.12021090366363,74.15755751148224,34.222270903663635Q74.10300751148225,34.32434090366363,74.04350751148223,34.42360090366363Q73.98401751148224,34.52287090366364,73.91971751148223,34.61909090366363Q73.85542751148223,34.71532090366364,73.78648751148224,34.80827090366363Q73.71754751148224,34.90123090366364,73.64412751148224,34.99069090366363Q73.57070751148224,35.080150903663636,73.49298751148224,35.16590090366363Q73.41526751148224,35.25165090366364,73.33343751148224,35.333480903663634Q73.25160751148223,35.41531090366364,73.16585751148224,35.49303090366364Q73.08010751148224,35.57075090366364,72.99064751148224,35.644170903663635Q72.90118751148223,35.717590903663634,72.80822751148224,35.78653090366363Q72.71527751148224,35.85547090366364,72.61904751148224,35.91976090366364Q72.52282751148223,35.98406090366363,72.42355751148224,36.043550903663636Q72.32429751148224,36.103050903663636,72.22222751148225,36.157600903663635Q72.12016751148224,36.21216090366364,72.01554751148224,36.26164090366363Q71.91092751148224,36.311120903663635,71.80400751148224,36.35541090366364Q71.69708751148224,36.399700903663636,71.58812751148224,36.43868090366364Q71.47916751148225,36.477670903663636,71.36841751148224,36.511270903663636Q71.25766751148224,36.54486090366363,71.14540751148223,36.572980903663634Q71.03314751148224,36.601100903663635,70.91964751148224,36.62368090366363Q70.80613751148223,36.646250903663635,70.69165751148223,36.663240903663635Q70.57718751148224,36.68022090366364,70.46201751148224,36.691560903663635Q70.34683751148224,36.70290090366363,70.23124751148224,36.70858090366364Q70.11566751148224,36.714260903663636,69.99993751148224,36.714260903663636Q69.88420751148224,36.714260903663636,69.76861751148223,36.70858090366364Q69.65302751148224,36.70290090366363,69.53785751148224,36.691560903663635Q69.42267751148223,36.68022090366364,69.30820751148224,36.663240903663635Q69.19372751148224,36.646250903663635,69.08021751148223,36.62368090366363Q68.96671751148224,36.601100903663635,68.85445751148224,36.572980903663634Q68.74219751148223,36.54486090366363,68.63144751148224,36.511270903663636Q68.52069751148224,36.477670903663636,68.41173751148224,36.43868090366364Q68.30277751148223,36.399700903663636,68.19585751148225,36.35541090366364Q68.08893751148224,36.311120903663635,67.98431751148223,36.26164090366363Q67.87969751148223,36.21216090366364,67.77763751148224,36.157600903663635Q67.67556751148224,36.103050903663636,67.57630751148224,36.043550903663636Q67.47703751148224,35.98406090366363,67.38081751148223,35.91976090366364Q67.28458751148224,35.85547090366364,67.19163751148224,35.78653090366363Q67.09867751148224,35.717590903663634,67.00921751148223,35.644170903663635Q66.91975751148225,35.57075090366364,66.83400751148224,35.49303090366364Q66.74826751148224,35.41531090366364,66.66642751148224,35.333480903663634Q66.58459751148224,35.25165090366364,66.50687751148224,35.16590090366363Q66.42915751148225,35.080150903663636,66.35573751148223,34.99069090366363Q66.28232351148223,34.90123090366364,66.21338351148223,34.80827090366363Q66.14444351148224,34.71532090366364,66.08014751148224,34.61909090366363Q66.01585251148224,34.52287090366364,65.95635551148224,34.42360090366363Q65.89685851148224,34.32434090366363,65.84230451148224,34.222270903663635Q65.78774951148223,34.12021090366363,65.73826951148224,34.015590903663636Q65.68878851148224,33.91097090366364,65.64450151148223,33.80405090366364Q65.60021351148224,33.697130903663634,65.56122551148223,33.58817090366364Q65.52223751148225,33.479210903663635,65.48864351148224,33.36846090366363Q65.45504851148223,33.257710903663636,65.42692851148225,33.14545090366364Q65.39880851148224,33.03319090366364,65.37623121148224,32.919690903663636Q65.35365351148224,32.80618090366364,65.33667251148223,32.69170090366364Q65.31969151148223,32.57723090366363,65.30834811148223,32.462060903663634Q65.29700461148224,32.34688090366363,65.29132607148225,32.231290903663634Q65.28564751148224,32.11571090366363,65.28564751148224,31.999980903663634Q65.28564751148224,31.884250903663634,65.29132607148225,31.768660903663637Q65.29700461148224,31.653070903663636,65.30834811148223,31.537900903663633Q65.31969151148223,31.422720903663635,65.33667251148223,31.308250903663634Q65.35365351148224,31.193770903663633,65.37623121148224,31.080260903663635Q65.39880851148224,30.966760903663634,65.42692851148225,30.854500903663634Q65.45504851148223,30.742240903663635,65.48864351148224,30.631490903663636Q65.52223751148225,30.520740903663636,65.56122551148223,30.411780903663637Q65.60021351148224,30.302820903663637,65.64450151148223,30.195900903663635Q65.68878851148224,30.088980903663636,65.73826951148224,29.984360903663635Q65.78774951148223,29.879740903663635,65.84230451148224,29.777680903663637Q65.89685851148224,29.675610903663635,65.95635551148224,29.576350903663634Q66.01585251148224,29.477080903663634,66.08014751148224,29.380860903663635Q66.14444351148224,29.284630903663636,66.21338351148223,29.191680903663634Q66.28232351148223,29.098720903663637,66.35573751148223,29.009260903663634Q66.42915751148225,28.919800903663635,66.50687751148224,28.834050903663634Q66.58459751148224,28.748310903663636,66.66642751148224,28.666470903663637Q66.74826751148224,28.584640903663637,66.83400751148224,28.506920903663634Q66.91975751148225,28.429200903663634,67.00921751148223,28.355780903663636Q67.09867751148224,28.282366903663636,67.19163751148224,28.213426903663635Q67.28458751148224,28.144486903663637,67.38081751148223,28.080190903663635Q67.47703751148224,28.015895903663637,67.57630751148224,27.956398903663636Q67.67556751148224,27.896901903663636,67.77763751148224,27.842347903663637Q67.87969751148223,27.787792903663636,67.98431751148223,27.738312903663637Q68.08893751148224,27.688831903663637,68.19585751148225,27.644544903663636Q68.30277751148223,27.600256903663634,68.41173751148224,27.561268903663635Q68.52069751148224,27.522280903663635,68.63144751148224,27.488686903663634Q68.74219751148223,27.455091903663636,68.85445751148224,27.426971903663635Q68.96671751148224,27.398851903663637,69.08021751148223,27.376274603663635Q69.19372751148224,27.353696903663636,69.30820751148224,27.336715903663634Q69.42267751148223,27.319734903663637,69.53785751148224,27.308391503663636Q69.65302751148224,27.297048003663637,69.76861751148223,27.291369463663635Q69.88420751148224,27.285690903663635,69.99993751148224,27.285690903663635Q70.11566751148224,27.285690903663635,70.23124751148224,27.291369463663635Q70.34683751148224,27.297048003663637,70.46201751148224,27.308391503663636Q70.57718751148224,27.319734903663637,70.69166751148224,27.336715903663634Q70.80613751148223,27.353696903663636,70.91964751148224,27.376274603663635Q71.03314751148224,27.398851903663637,71.14540751148223,27.426971903663635Q71.25766751148224,27.455091903663636,71.36841751148224,27.488686903663634Q71.47916751148225,27.522280903663635,71.58812751148224,27.561268903663635Q71.69708751148224,27.600256903663634,71.80400751148224,27.644544903663636Q71.91092751148224,27.688831903663637,72.01554751148224,27.738312903663637Q72.12016751148224,27.787792903663636,72.22222751148225,27.842347903663637Q72.32429751148224,27.896901903663636,72.42355751148224,27.956398903663636Q72.52282751148223,28.015895903663637,72.61904751148224,28.080190903663635Q72.71527751148224,28.144486903663637,72.80822751148224,28.213426903663635Q72.90118751148223,28.282366903663636,72.99064751148224,28.355780903663636Q73.08010751148224,28.429200903663634,73.16585751148224,28.506920903663634Q73.25160751148223,28.584640903663637,73.33343751148224,28.666470903663637Q73.41526751148224,28.748310903663636,73.49298751148224,28.834050903663634Q73.57070751148224,28.919800903663635,73.64412751148224,29.009260903663634Q73.71754751148224,29.098720903663637,73.78648751148224,29.191680903663634Q73.85542751148223,29.284630903663636,73.91971751148223,29.380860903663635Q73.98401751148224,29.477080903663634,74.04350751148223,29.576350903663634Q74.10300751148225,29.675610903663635,74.15755751148224,29.777680903663637Q74.21211751148223,29.879740903663635,74.26159751148224,29.984360903663635Q74.31107751148224,30.088980903663636,74.35536751148224,30.195900903663635Q74.39965751148225,30.302820903663637,74.43863751148224,30.411780903663637Q74.47762751148224,30.520740903663636,74.51122751148225,30.631490903663636Q74.54481751148224,30.742240903663635,74.57293751148224,30.854500903663634Q74.60105751148224,30.966760903663634,74.62363751148224,31.080260903663635Q74.64620751148223,31.193770903663633,74.66319751148224,31.308250903663634Q74.68017751148224,31.422720903663635,74.69151751148223,31.537900903663633Q74.70285751148224,31.653070903663636,74.70853751148223,31.768660903663637Q74.71421751148225,31.884250903663634,74.71421751148225,31.999980903663634Z" fill="#64D98F" fill-opacity="1"/></g><g><path d="M73.66487800491333,31.80938420071411L68.71472300491332,31.59043510071411C68.48093700491333,31.580094560714112,68.28574800491333,31.76684120071411,68.28574800491333,32.00085620071411C68.28574800491333,32.23425020071411,68.47994400491334,32.42076120071411,68.71314800491334,32.411343200714114L73.66410800491333,32.21140020071411C73.77197800491334,32.20704420071411,73.85717800491334,32.11833120071411,73.85717800491334,32.01037620071411C73.85717800491334,31.90272020071411,73.77242800491334,31.81414120071411,73.66487800491333,31.80938420071411" fill="#E06464" fill-opacity="1"/></g><g><ellipse cx="69.57169663906097" cy="31.999997973442078" rx="0.8571428060531616" ry="0.8571428060531616" fill="#1F475F" fill-opacity="1"/></g></g></g></g><g><g><rect x="29.46429443359375" y="49.107147216796875" width="19.64285659790039" height="1.9642857313156128" rx="0.9821428656578064" fill="#001933" fill-opacity="1"/></g><g><rect x="29.46429443359375" y="53.03570556640625" width="19.64285659790039" height="1.9642857313156128" rx="0.9821428656578064" fill="#001933" fill-opacity="1"/></g><g><rect x="29.46429443359375" y="56.96429443359375" width="19.64285659790039" height="1.9642857313156128" rx="0.9821428656578064" fill="#001933" fill-opacity="1"/></g><g><rect x="29.46429443359375" y="60.892852783203125" width="19.64285659790039" height="1.9642857313156128" rx="0.9821428656578064" fill="#001933" fill-opacity="1"/></g></g><g><rect x="40" y="31" width="7" height="2" rx="0" fill="#397492" fill-opacity="1"/></g><g><rect x="40" y="28" width="7" height="2" rx="0" fill="#397492" fill-opacity="1"/></g><g><rect x="40" y="25" width="7" height="2" rx="0" fill="#397492" fill-opacity="1"/></g></g></svg>