<svg xmlns="http://www.w3.org/2000/svg" xmlns:xlink="http://www.w3.org/1999/xlink" fill="none" version="1.1" width="110" height="110.00000762939453" viewBox="0 0 110 110.00000762939453"><defs><clipPath id="master_svg0_1460_00573"><rect x="0" y="0" width="110" height="110.00000762939453" rx="0"/></clipPath></defs><g clip-path="url(#master_svg0_1460_00573)"><g><g><g><path d="M46.47846221923828,74.75120162963867L63.52156221923828,74.75120162963867L63.52156221923828,84.24390162963867L46.47846221923828,84.24390162963867L46.47846221923828,74.75120162963867Z" fill="#4E6070" fill-opacity="1"/></g><g><path d="M41.4565,82.9709L68.5438,82.9709L68.5438,87L41.4565,87L41.4565,82.9709ZM86.9569,23L23.04342,23C21.36965,23,20,24.37807,20,26.06213L20,65.3483L90,65.3483L90,26.06213C90,24.37807,88.6307,22.999999938023,86.9569,23Z" fill="#397492" fill-opacity="1"/></g><g><path d="M20,71.68904278686523C20,73.37310278686523,21.36965,74.75117278686524,23.04342,74.75117278686524L86.9569,74.75117278686524C88.6307,74.75117278686524,90,73.37310278686523,90,71.68904278686523L90,65.34826278686523L20,65.34826278686523L20,71.68904278686523Z" fill="#629DBB" fill-opacity="1"/></g></g><g><ellipse cx="55.393258452415466" cy="70.0361453294754" rx="1.5730336904525757" ry="1.5421687364578247" fill="#64D98F" fill-opacity="1"/></g></g></g></svg>