<svg xmlns="http://www.w3.org/2000/svg" xmlns:xlink="http://www.w3.org/1999/xlink" fill="none" version="1.1" width="110" height="110.00000762939453" viewBox="0 0 110 110.00000762939453"><defs><clipPath id="master_svg0_1460_00695"><rect x="0" y="0" width="110" height="110.00000762939453" rx="0"/></clipPath></defs><g clip-path="url(#master_svg0_1460_00695)"><g><g><path d="M84.46430556640625,17.6785888671875L25.53570556640625,17.6785888671875L25.53570556640625,98.2142888671875L84.46430556640625,98.2142888671875L84.46430556640625,17.6785888671875Z" fill="#0F263D" fill-opacity="1"/></g><g><path d="M80.53569443359375,21.60711669921875L29.46429443359375,21.60711669921875L29.46429443359375,78.57141669921876L80.53569443359375,78.57141669921876L80.53569443359375,21.60711669921875Z" fill="#BBE4F8" fill-opacity="1"/></g><g><path d="M54.99999443359375,86.4285511328125L29.46429443359375,78.5714111328125L29.46429443359375,94.2857111328125L54.99999443359375,94.2857111328125L54.99999443359375,86.4285511328125Z" fill="#397492" fill-opacity="1"/></g><g transform="matrix(-1,0,0,1,161.0714111328125,0)"><path d="M106.07140556640624,86.4285511328125L80.53570556640625,78.5714111328125L80.53570556640625,94.2857111328125L106.07140556640624,94.2857111328125L106.07140556640624,86.4285511328125Z" fill="#397492" fill-opacity="1"/></g><g><path d="M80.53569443359375,78.5714111328125L54.99999443359375,86.4285511328125L29.46429443359375,78.5714111328125L80.53569443359375,78.5714111328125Z" fill="#5B95B2" fill-opacity="1"/></g><g><path d="M58.928581650390626,13.75L51.071441650390625,13.75L51.071441650390625,15.71429L58.928581650390626,15.71429L58.928581650390626,13.75Z" fill="#397492" fill-opacity="1"/></g><g><path d="M62.85715278320313,15.71429443359375L47.142852783203125,15.71429443359375L47.142852783203125,17.67858443359375L62.85715278320313,17.67858443359375L62.85715278320313,15.71429443359375Z" fill="#5B95B2" fill-opacity="1"/></g><g><g><g><g><path d="M55.04872373046875,49.20538330078125L47.54870373046875,41.64288330078125L46.86688373046875,42.42859730078125L46.18507373046875,43.31252330078125L45.69805373046875,44.19645330078125L45.21104373046875,45.17859330078125L44.91883673046875,46.06252330078125L44.62662873046875,47.14288330078125L44.52922633046875,48.12502330078125L44.43182373046875,48.71431330078125L44.43182373046875,49.20538330078125L44.52922633046875,50.28574330078125L44.62662873046875,51.36609330078125L44.91883673046875,52.34828330078125L45.21104373046875,53.33038330078125L45.69805373046875,54.31248330078125L46.18507373046875,55.19648330078125L46.86688373046875,55.98218330078125L47.54870373046875,56.76788330078125L48.32792373046875,57.45538330078125L49.10714373046875,58.04468330078125L49.98377373046875,58.63398330078125L50.86039373046875,59.02678330078125L51.93182373046875,59.41968330078125L52.905843730468746,59.61608330078125L53.97727373046875,59.81248330078125L55.04872373046875,59.91078330078125L56.02272373046875,59.81248330078125L57.09412373046875,59.71428330078125L58.06822373046875,59.41968330078125L59.04222373046875,59.02678330078125L60.01622373046875,58.63398330078125L60.89282373046875,58.04468330078125L61.76952373046875,57.45538330078125L62.54872373046875,56.76788330078125L55.04872373046875,49.20538330078125Z" fill="#397492" fill-opacity="1"/></g><g><path d="M39.56170654296875,57.75011763671875L39.95131654296875,58.53582763671875L44.52923654296875,55.88404163671875L44.13962654296875,55.09832763671875L39.56170654296875,57.75011763671875Z" fill="#0F263D" fill-opacity="1"/></g><g><path d="M37.321441650390625,48.81243896484375L37.321441650390625,49.69636696484375L42.678581650390626,49.69636696484375L42.678581650390626,48.81243896484375L37.321441650390625,48.81243896484375Z" fill="#0F263D" fill-opacity="1"/></g><g><path d="M39.95130743359375,39.973388671875L39.46429443359375,40.660888671875L44.04221443359375,43.410888671875L44.529224433593754,42.625178671875L39.95130743359375,39.973388671875Z" fill="#0F263D" fill-opacity="1"/></g><g><path d="M46.57469119140625,33.58935546875L45.79547119140625,33.98221246875L48.42534119140625,38.59828546875L49.20456119140625,38.20542546875L46.57469119140625,33.58935546875Z" fill="#0F263D" fill-opacity="1"/></g><g><path d="M55.43836006054688,31.4285888671875L54.561737060546875,31.4285888671875L54.561737060546875,36.7321588671875L55.43836006054688,36.7321588671875L55.43836006054688,31.4285888671875Z" fill="#0F263D" fill-opacity="1"/></g><g><path d="M64.20453067382813,33.98221246875L63.42531067382812,33.58935546875L60.795440673828125,38.20542546875L61.57466067382813,38.59828546875L64.20453067382813,33.98221246875Z" fill="#0F263D" fill-opacity="1"/></g><g><path d="M70.53569416015625,40.660714L70.04868416015626,39.875L65.47076416015625,42.52679L65.95777716015625,43.3125L70.53569416015625,40.660714Z" fill="#0F263D" fill-opacity="1"/></g><g><path d="M72.67859375976562,49.59828346875L72.67859375976562,48.71435546875L67.41885375976562,48.71435546875L67.41885375976562,49.59828346875L72.67859375976562,49.59828346875Z" fill="#0F263D" fill-opacity="1"/></g><g><path d="M70.14609626953126,58.437744140625L70.53570626953125,57.750244140625L65.95778626953125,55.000244140625L65.56817626953125,55.785958140625L70.14609626953126,58.437744140625Z" fill="#0F263D" fill-opacity="1"/></g><g><path d="M39.6363509171875,53.24282616796875L43.0454376171875,52.35889826796875L43.0908576171875,52.53404606796875L39.6817643171875,53.41797416796875L39.6363509171875,53.24282616796875Z" fill-rule="evenodd" fill="#0F263D" fill-opacity="1"/></g><g><path d="M39.6817643171875,44.99305354140625L43.0908576171875,45.87698144140625L43.0454376171875,46.05212944140625L39.6363509171875,45.16820134140625L39.6817643171875,44.99305354140625Z" fill-rule="evenodd" fill="#0F263D" fill-opacity="1"/></g><g><path d="M43.8129753,37.84587463671875L46.345439999999996,40.30122763671875L46.21949,40.43113763671875L43.6870247,37.97578063671875L43.8129753,37.84587463671875Z" fill-rule="evenodd" fill="#0F263D" fill-opacity="1"/></g><g><path d="M50.9475722625,33.66353333515625L51.9216015625,37.19925103515625L51.7471565625,37.24730103515625L50.7731308625,33.71158873515625L50.9475722625,33.66353333515625Z" fill-rule="evenodd" fill="#0F263D" fill-opacity="1"/></g><g><path d="M59.22677734375,33.71158873515625L58.25274804375,37.24730103515625L58.07830664375,37.19925103515625L59.05233234375,33.66353333515625L59.22677734375,33.71158873515625Z" fill-rule="evenodd" fill="#0F263D" fill-opacity="1"/></g><g><path d="M66.31290826171875,37.97578063671875L63.78044356171875,40.43113763671875L63.65449296171875,40.30122763671875L66.18695826171874,37.84587463671875L66.31290826171875,37.97578063671875Z" fill-rule="evenodd" fill="#0F263D" fill-opacity="1"/></g><g><path d="M70.36359321289062,45.16820134140625L66.95449991289063,46.05212944140625L66.90908651289062,45.87698144140625L70.31817321289063,44.99305354140625L70.36359321289062,45.16820134140625Z" fill-rule="evenodd" fill="#0F263D" fill-opacity="1"/></g><g><path d="M70.31817321289063,53.41797416796875L66.90908651289062,52.53404606796875L66.95449991289063,52.35889826796875L70.36359321289062,53.24282616796875L70.31817321289063,53.41797416796875Z" fill-rule="evenodd" fill="#0F263D" fill-opacity="1"/></g><g><path d="M41.966401619140626,54.52211840625L43.62224461914062,53.93283320625L43.682914619140625,54.10329960625L42.027067619140624,54.69258540625L41.966401619140626,54.52211840625Z" fill-rule="evenodd" fill="#5B95B2" fill-opacity="1"/></g><g><path d="M41.012632178125,50.98170410546875L42.765875078125,50.78527580546875L42.786025078125,50.96509040546875L41.032777978125,51.16151910546875L41.012632178125,50.98170410546875Z" fill-rule="evenodd" fill="#5B95B2" fill-opacity="1"/></g><g><path d="M41.037698778125,47.25013676875L42.790945078125,47.54477946875L42.760955078125,47.72321646875L41.007711378125,47.42857416875L41.037698778125,47.25013676875Z" fill-rule="evenodd" fill="#5B95B2" fill-opacity="1"/></g><g><path d="M42.035518619140625,43.62383150625L43.69136461914063,44.40954540625L43.61379461914063,44.57301540625L41.957950619140625,43.78730130625L42.035518619140625,43.62383150625Z" fill-rule="evenodd" fill="#5B95B2" fill-opacity="1"/></g><g><path d="M43.90353187421875,40.49177120546875L45.26717107421875,41.57213310546875L45.15480107421875,41.71395310546875L43.79117027421875,40.63359500546875L43.90353187421875,40.49177120546875Z" fill-rule="evenodd" fill="#5B95B2" fill-opacity="1"/></g><g><path d="M46.550461121875,37.85761583671875L47.621884921875,39.33082763671875L47.475556921875,39.43725763671875L46.404128721875,37.96403943671875L46.550461121875,37.85761583671875Z" fill-rule="evenodd" fill="#5B95B2" fill-opacity="1"/></g><g><path d="M49.677902128515626,36.01053626953125L50.35971972851563,37.68017876953125L50.192208728515624,37.74857876953125L49.510391328515624,36.07894126953125L49.677902128515626,36.01053626953125Z" fill-rule="evenodd" fill="#5B95B2" fill-opacity="1"/></g><g><path d="M53.28803988203125,35.05316764515625L53.48284508203125,36.91924103515625L53.30288308203125,36.93802103515625L53.10807828203125,35.07195442515625L53.28803988203125,35.05316764515625Z" fill-rule="evenodd" fill="#5B95B2" fill-opacity="1"/></g><g><path d="M56.98870469921875,35.07655713515625L56.69649729921875,36.94263103515625L56.51773609921875,36.91463103515625L56.80994369921875,35.04856493515625L56.98870469921875,35.07655713515625Z" fill-rule="evenodd" fill="#5B95B2" fill-opacity="1"/></g><g><path d="M60.48963305859375,36.07894126953125L59.80781545859375,37.74857876953125L59.64030465859375,37.68017876953125L60.32212205859375,36.01053626953125L60.48963305859375,36.07894126953125Z" fill-rule="evenodd" fill="#5B95B2" fill-opacity="1"/></g><g><path d="M63.693326572265626,37.96403943671875L62.62190277226563,39.43725763671875L62.47557037226562,39.33082763671875L63.54699857226562,37.85761583671875L63.693326572265626,37.96403943671875Z" fill-rule="evenodd" fill="#5B95B2" fill-opacity="1"/></g><g><path d="M66.3037704296875,40.63542580546875L64.8427296296875,41.71578310546875L64.7351512296875,41.57029310546875L66.1961904296875,40.48994040546875L66.3037704296875,40.63542580546875Z" fill-rule="evenodd" fill="#5B95B2" fill-opacity="1"/></g><g><path d="M68.13939318359375,43.78730130625L66.48354718359376,44.57301540625L66.40597918359374,44.40954540625L68.06182318359375,43.62383150625L68.13939318359375,43.78730130625Z" fill-rule="evenodd" fill="#5B95B2" fill-opacity="1"/></g><g><path d="M69.08416850585938,47.42931996875L67.23351736585937,47.62574846875L67.21441964585938,47.44581946875L69.06506850585937,47.24939096875L69.08416850585938,47.42931996875Z" fill-rule="evenodd" fill="#5B95B2" fill-opacity="1"/></g><g><path d="M69.06506850585937,51.16157610546875L67.21441964585938,50.96514760546875L67.23351736585937,50.78521860546875L69.08416850585938,50.98164710546875L69.06506850585937,51.16157610546875Z" fill-rule="evenodd" fill="#5B95B2" fill-opacity="1"/></g><g><path d="M68.06591318359375,54.690975875L66.41007178359375,54.003475975L66.47945458359375,53.836367775L68.13529318359375,54.523867875L68.06591318359375,54.690975875Z" fill-rule="evenodd" fill="#5B95B2" fill-opacity="1"/></g></g><g><path d="M55.048736572265625,49.20558310546875L62.548736572265625,56.76808310546875L63.23053657226563,55.98228310546875L63.81493657226562,55.09838310546875L64.30193657226562,54.21448310546875L64.78903657226563,53.23228310546875L65.17863657226562,52.34838310546875L65.37343657226563,51.26808310546875L65.56823657226562,50.28588310546875L65.56823657226562,49.69658310546875L65.56823657226562,49.20558310546875L65.56823657226562,48.12518310546875L65.37343657226563,47.04482310546875L65.17863657226562,46.06268310546875L64.78903657226563,45.08054310546875L64.30193657226562,44.09839310546875L63.81493657226562,43.21446310546875L63.23053657226563,42.42875310546875L62.548736572265625,41.64304310546875L61.76953657226562,40.95554310546875L60.990336572265626,40.36625310546875L60.11363657226563,39.77697310546875L59.13963657226562,39.38411110546875L58.165636572265626,38.99125410546875L57.19158657226562,38.79482610546875L56.12015657226563,38.59839740546875L55.048736572265625,38.50018310546875L53.977306572265626,38.59839740546875L53.00327657226563,38.69661210546875L51.93184657226563,38.99125410546875L50.957826572265624,39.38411110546875L49.983796572265625,39.77697310546875L49.10717657226562,40.36625310546875L48.32795657226563,40.95554310546875L47.548736572265625,41.64304310546875L55.048736572265625,49.20558310546875Z" fill="#397492" fill-opacity="1"/></g><g><ellipse cx="54.951313495635986" cy="49.205599784851074" rx="7.889606952667236" ry="7.955355644226074" fill="#64D98F" fill-opacity="1"/></g><g><path d="M69.17206602539062,65.21429443359375L62.061676025390625,65.21429443359375L62.061676025390625,68.75000443359374L69.17206602539062,68.75000443359374L69.17206602539062,65.21429443359375Z" fill="#0F263D" fill-opacity="1"/><path d="M61.971206225390624,68.84047443359376L61.971206225390624,65.12382463359376L69.26253602539063,65.12382463359376L69.26253602539063,68.84047443359376L61.971206225390624,68.84047443359376ZM69.08159602539062,65.30476423359374L62.152145825390626,65.30476423359374L62.152145825390626,68.65953443359375L69.08159602539062,68.65953443359375L69.08159602539062,65.30476423359374Z" fill-rule="evenodd" fill="#0F263D" fill-opacity="1"/></g></g><g><path d="M48.42535400390625,65.21429443359375L40.92535400390625,65.21429443359375L40.92535400390625,68.75000443359374L48.42535400390625,68.75000443359374L48.42535400390625,65.21429443359375Z" fill="#0F263D" fill-opacity="1"/><path d="M40.83488420390625,68.84047443359376L40.83488420390625,65.12382463359376L48.515824003906246,65.12382463359376L48.515824003906246,68.84047443359376L40.83488420390625,68.84047443359376ZM48.334884003906254,65.30476423359374L41.01582380390625,65.30476423359374L41.01582380390625,68.65953443359375L48.334884003906254,68.65953443359375L48.334884003906254,65.30476423359374Z" fill-rule="evenodd" fill="#0F263D" fill-opacity="1"/></g><g><path d="M55.340958060546875,50.97322443359375L54.561737060546875,49.30357443359375L67.41883706054688,44.58929443359375L55.340958060546875,50.97322443359375Z" fill="#0F263D" fill-opacity="1"/></g></g></g></g></svg>