<svg xmlns="http://www.w3.org/2000/svg" xmlns:xlink="http://www.w3.org/1999/xlink" fill="none" version="1.1" width="110" height="110.00000762939453" viewBox="0 0 110 110.00000762939453"><defs><clipPath id="master_svg0_1460_00583"><rect x="0" y="0" width="110" height="110.00000762939453" rx="0"/></clipPath></defs><g clip-path="url(#master_svg0_1460_00583)"><g><g><g><path d="M65.89108822509766,24.872636198997498L60.663368225097656,24.872636198997498L60.663368225097656,30.108456198997498L65.89108822509766,30.108456198997498L65.89108822509766,24.872636198997498Z" fill="#1F475F" fill-opacity="1"/></g><g><path d="M65.01980822509766,27.4905461989975L65.01980822509766,25.745272198997498L65.89108822509766,25.745272198997498L65.89108822509766,24.872636198997498L60.663368225097656,24.872636198997498L60.663368225097656,25.745272198997498L61.53465522509766,25.745272198997498L61.53465522509766,27.4905461989975L65.01980822509766,27.4905461989975Z" fill="#5B95B2" fill-opacity="1"/></g><g><path d="M70.24748497314454,30.9810861989975L68.50498497314453,27.4905461989975L58.04950497314453,27.4905461989975L56.09512497314453,24.872636198997498L52.82178497314453,24.872636198997498L52.82178497314453,26.587816198997498L55.13238497314453,26.587816198997498L57.17822497314453,29.235816198997497L67.63368497314453,29.235816198997497L68.50498497314453,30.9810861989975L70.24748497314454,30.9810861989975Z" fill="#95B8C9" fill-opacity="1"/></g><g><path d="M68.50498497314453,30.108452397994995L67.63368497314453,28.363182397994997L57.17822497314453,28.363182397994997L55.435644973144534,25.745272397994995L52.82178497314453,25.745272397994995L52.82178497314453,26.635717397994995L54.56435497314453,26.635698397994997L56.30693497314453,29.235822397994994L67.19798497314453,29.235822397994994L67.63368497314453,30.108452397994995L68.50498497314453,30.108452397994995Z" fill="#397492" fill-opacity="1"/></g><g><path d="M52.8218,24L11,24L11,27.49054L52.8218,27.49054L52.8218,24Z" fill="#397492" fill-opacity="1"/></g><g><path d="M52.8218,24.872636198997498L11,24.872636198997498L11,25.745272198997498L52.8218,25.745272198997498L52.8218,24.872636198997498Z" fill="#5B95B2" fill-opacity="1"/></g><g><path d="M86.03008852539062,68.65902207397461L84.25698852539062,68.1953570739746L84.25698852539062,67.26803207397461L86.03008852539062,67.8244270739746L86.03008852539062,68.65902207397461Z" fill="#003366" fill-opacity="1"/></g><g><path d="M86.03008852539062,53.17271302246094L84.25698852539062,52.80178302246094L84.25698852539062,51.78172302246094L86.03008852539062,52.24538502246094L86.03008852539062,53.17271302246094Z" fill="#003366" fill-opacity="1"/></g><g><path d="M40.30277442932129,68.65902207397461L42.07587442932129,68.1953570739746L42.07587442932129,67.26803207397461L40.30277442932129,67.8244270739746L40.30277442932129,68.65902207397461Z" fill="#003366" fill-opacity="1"/></g><g><path d="M40.30277442932129,53.17271302246094L42.07587442932129,52.80178302246094L42.07587442932129,51.78172302246094L40.30277442932129,52.24538502246094L40.30277442932129,53.17271302246094Z" fill="#003366" fill-opacity="1"/></g><g></g><g></g><g></g><g><path d="M34.51683470935058,85.99995326538087L34.51683470935058,46.03225326538086L34.89025070935059,46.03225326538086L34.89025070935059,85.99995326538087L34.51683470935058,85.99995326538087Z" fill-rule="evenodd" fill="#1C4B63" fill-opacity="1"/></g><g><path d="M91.44268735976563,85.99997901000977L91.44268735976563,45.939579010009766L91.62939515976562,45.939579010009766L91.62939515976562,85.99997901000977L91.44268735976563,85.99997901000977Z" fill-rule="evenodd" fill="#000000" fill-opacity="1"/></g><g><rect x="39.75247573852539" y="51.05172157287598" width="49.663368225097656" height="29.66963005065918" rx="0" fill="#1F475F" fill-opacity="1"/></g><g><g><path d="M27.55445671081543,83.33926505310059L29.29702671081543,84.21189505310059L29.29702671081543,78.10344505310059L27.55445671081543,78.97608105310059L27.55445671081543,83.33926505310059Z" fill="#22556E" fill-opacity="1"/></g><g transform="matrix(-1,0,0,1,82.99010276794434,0)"><path d="M41.49505138397217,83.33926505310059L43.23762138397217,84.21189505310059L43.23762138397217,78.10344505310059L41.49505138397217,78.97608105310059L41.49505138397217,83.33926505310059Z" fill="#22556E" fill-opacity="1"/></g><g><path d="M27.55445671081543,68.50444907409668L29.29702671081543,69.37707907409668L29.29702671081543,63.26862907409668L27.55445671081543,64.14126507409668L27.55445671081543,68.50444907409668Z" fill="#22556E" fill-opacity="1"/></g><g><path d="M27.55445671081543,52.79699713451386L29.29702671081543,53.66962713451385L29.29702671081543,47.561177134513855L27.55445671081543,48.433813134513855L27.55445671081543,52.79699713451386Z" fill="#22556E" fill-opacity="1"/></g><g transform="matrix(-1,0,0,1,82.99010276794434,0)"><path d="M41.49505138397217,68.50444907409668L43.23762138397217,69.37707907409668L43.23762138397217,63.26862907409668L41.49505138397217,64.14126507409668L41.49505138397217,68.50444907409668Z" fill="#22556E" fill-opacity="1"/></g><g transform="matrix(-1,0,0,1,82.99010276794434,0)"><path d="M41.49505138397217,52.79699713451386L43.23762138397217,53.66962713451385L43.23762138397217,47.561177134513855L41.49505138397217,48.433813134513855L41.49505138397217,52.79699713451386Z" fill="#22556E" fill-opacity="1"/></g><g><rect x="29.297031044960022" y="45.81590461730957" width="5.227723121643066" height="40.141265869140625" rx="0" fill="#5B95B2" fill-opacity="1"/></g><g><rect x="34.5247540473938" y="45.81590461730957" width="5.227723121643066" height="40.141265869140625" rx="0" fill="#397492" fill-opacity="1"/></g></g><g><g><path d="M85.05941009521484,83.33926505310059L86.80198009521484,84.21189505310059L86.80198009521484,78.10344505310059L85.05941009521484,78.97608105310059L85.05941009521484,83.33926505310059Z" fill="#22556E" fill-opacity="1"/></g><g transform="matrix(-1,0,0,1,198.00000953674316,0)"><path d="M99.00000476837158,83.33926505310059L100.74257476837158,84.21189505310059L100.74257476837158,78.10344505310059L99.00000476837158,78.97608105310059L99.00000476837158,83.33926505310059Z" fill="#22556E" fill-opacity="1"/></g><g><path d="M85.05941009521484,68.50444907409668L86.80198009521484,69.37707907409668L86.80198009521484,63.26862907409668L85.05941009521484,64.14126507409668L85.05941009521484,68.50444907409668Z" fill="#22556E" fill-opacity="1"/></g><g><path d="M85.05941009521484,52.79699713451386L86.80198009521484,53.66962713451385L86.80198009521484,47.561177134513855L85.05941009521484,48.433813134513855L85.05941009521484,52.79699713451386Z" fill="#22556E" fill-opacity="1"/></g><g transform="matrix(-1,0,0,1,198.00000953674316,0)"><path d="M99.00000476837158,68.50444907409668L100.74257476837158,69.37707907409668L100.74257476837158,63.26862907409668L99.00000476837158,64.14126507409668L99.00000476837158,68.50444907409668Z" fill="#22556E" fill-opacity="1"/></g><g transform="matrix(-1,0,0,1,198.00000953674316,0)"><path d="M99.00000476837158,52.79699713451386L100.74257476837158,53.66962713451385L100.74257476837158,47.561177134513855L99.00000476837158,48.433813134513855L99.00000476837158,52.79699713451386Z" fill="#22556E" fill-opacity="1"/></g><g><rect x="86.80198442935944" y="45.81590461730957" width="5.227723121643066" height="40.141265869140625" rx="0" fill="#397492" fill-opacity="1"/></g><g><rect x="92.02970743179321" y="45.81590461730957" width="5.227723121643066" height="40.141265869140625" rx="0" fill="#5B95B2" fill-opacity="1"/></g></g></g><g><path d="M77.21783558959962,42.32535934448242L49.33663558959961,42.32535934448242L49.33663558959961,55.41485934448242L77.21783558959962,55.41485934448242L77.21783558959962,42.32535934448242Z" fill-rule="evenodd" fill="#0F263D" fill-opacity="1"/></g><g><rect x="44.10891342163086" y="36.21690654754639" width="38.33663558959961" height="6.108453273773193" rx="0" fill="#397492" fill-opacity="1"/></g><g><rect x="51.07920837402344" y="30.108453273773193" width="24.396041870117188" height="6.108453273773193" rx="0" fill="#5B95B2" fill-opacity="1"/></g></g></g></svg>