<svg xmlns="http://www.w3.org/2000/svg" xmlns:xlink="http://www.w3.org/1999/xlink" fill="none" version="1.1" width="110" height="110" viewBox="0 0 110 110"><defs><clipPath id="master_svg0_1460_00060"><rect x="110" y="0" width="110" height="110" rx="0"/></clipPath><mask id="master_svg1_1460_00128" style="mask-type:alpha" maskUnits="userSpaceOnUse"><g><path d="M133.6294634222473,46.95606752624512C132.8861145222473,55.36566752624512,138.79742452224733,60.08146752624512,143.9656345222473,60.824467526245115Q149.3800345222473,62.06266752624512,152.5794345222473,62.55796752624512L161.1932345222473,37.297807526245116L140.0280945222473,34.57366752624512Q134.3728125222473,38.54658752624512,133.6294634222473,46.95606752624512Z" fill="#FFFFFF" fill-opacity="1"/></g></mask><mask id="master_svg2_1460_00177" style="mask-type:alpha" maskUnits="userSpaceOnUse"><g><path d="M138.30529252166747,32.0971794128418Q134.61370252166748,34.078369412841795,137.07477852166747,41.2601894128418Q143.9657325216675,42.0031394128418,153.07164252166748,42.746079412841794L155.2866425216675,32.3448284128418L138.30529252166747,32.0971794128418Z" fill="#FFFFFF" fill-opacity="1"/></g></mask><radialGradient cx="0" cy="0" r="1" gradientUnits="userSpaceOnUse" id="master_svg3_1460_00098" gradientTransform="translate(180.38941103219986 32.34482842683792) rotate(90) scale(0.9905956387519836 0.9844236969947815)"><stop offset="0%" stop-color="#738FC1" stop-opacity="1"/><stop offset="97.85714149475098%" stop-color="#334A72" stop-opacity="1"/></radialGradient><mask id="master_svg4_1460_00159" style="mask-type:alpha" maskUnits="userSpaceOnUse"><g><path d="M189.2494379486084,53.642620833337304C188.2649379486084,66.2727208333373,184.5396379486084,74.50512083333732,179.8973679486084,73.9498208333373C178.4207279486084,72.2163208333373,174.4830379486084,67.7586208333373,174.4830379486084,54.899720833337305C175.2937399486084,39.23757083333731,180.6356879486084,34.82134083333731,182.6045379486084,33.583085133337306C184.2259379486084,33.05217083333731,189.7416379486084,36.554830833337306,189.2494379486084,53.642620833337304Z" fill="#FFFFFF" fill-opacity="1"/></g></mask></defs><g transform="matrix(-1,0,0,1,220,0)" clip-path="url(#master_svg0_1460_00060)"><g><g><path d="M126,88.31348064941406L150.1184,95.00000064941406L153.3178,92.27586064941406L129.19938,86.33229064941406L126,88.31348064941406Z" fill="#629DBB" fill-opacity="1"/></g><g><path d="M129.19937705993652,86.33229161376953L153.31777705993653,92.27589161376953L154.0560770599365,68.99687161376953L129.69158905993652,63.54859161376953L129.19937705993652,86.33229161376953Z" fill="#397492" fill-opacity="1"/></g><g><path d="M153.31775665283203,92.27581794433594L163.90035665283204,83.85580794433594L162.91588665283203,80.88401794433594L153.31775665283203,80.88401794433594L153.31775665283203,92.27581794433594Z" fill="#23536B" fill-opacity="1"/></g><g><path d="M127.23071453924103,46.46081253662109C126.49239633924103,55.8715125366211,133.62928533924102,59.09091253662109,138.05935533924102,59.09091253662109L145.93465533924103,59.09091253662109L155.53275533924102,35.811912536621094L135.10591533924102,35.811912536621094Q127.96903233924102,37.05015253662109,127.23071453924103,46.46081253662109Z" fill="#629DBB" fill-opacity="1"/></g><g><path d="M133.72104166433715,46.64601767272949C132.97336566433717,54.676717672729495,137.51067266433716,59.833817672729495,141.99685266433715,59.833817672729495Q146.94764266433717,60.77981767272949,152.78134266433716,61.07211767272949L161.19774266433717,37.42274767272949L139.90939266433716,34.82131767272949Q134.46871766433716,38.61527767272949,133.72104166433715,46.64601767272949Z" fill="#14516A" fill-opacity="1"/></g><g mask="url(#master_svg1_1460_00128)"><g><path d="M150.86152133865357,38.517337638931274L129.38272133865357,36.802507638931274L129.30486133865355,37.78999963893128L150.78372133865355,39.504827638931275L150.86152133865357,38.517337638931274ZM150.70582133865355,40.49232763893127L129.22700133865357,38.77748763893128L129.14914533865357,39.764987638931274L150.62792133865355,41.47981763893127L150.70582133865355,40.49232763893127ZM150.55012133865355,42.467307638931274L129.07128533865355,40.752477638931275L128.99342433865357,41.739967638931276L150.47222133865355,43.454797638931275L150.55012133865355,42.467307638931274ZM150.39442133865356,44.44229763893127L128.91556433865355,42.72745763893128L128.83770433865357,43.714957638931274L150.31652133865356,45.42978763893127L150.39442133865356,44.44229763893127ZM129.38077133865357,44.75201763893128L128.75984333865355,44.702447638931275L128.68198333865357,45.689937638931276L150.16082133865356,47.404807638931274L150.16272133865357,47.380007638931275L150.78372133865355,47.42960763893127L150.86152133865357,46.442107638931276L129.38272133865357,44.72727763893128L129.38077133865357,44.75201763893128ZM129.22505133865357,46.727007638931276L128.60412333865355,46.67742763893128L128.52626233865357,47.664907638931275L150.00512133865357,49.37970763893127L150.00702133865357,49.355007638931276L150.62792133865355,49.404607638931274L150.70582133865355,48.41710763893127L129.22700133865357,46.70225763893127L129.22505133865357,46.727007638931276ZM129.06933333865356,48.70200763893128L128.44840233865355,48.65240763893127L128.37054233865356,49.63990763893128L149.84932133865357,51.35470763893127L149.85132133865358,51.33000763893128L150.47222133865355,51.379607638931276L150.55012133865355,50.39210763893128L129.07128533865355,48.67720763893128L129.06933333865356,48.70200763893128ZM128.91361333865356,50.67700763893127L128.29268163865356,50.627407638931274L128.21482133865356,51.61490763893127L149.69362133865357,53.329707638931275L149.69562133865355,53.30500763893127L150.31652133865356,53.354507638931274L150.39442133865356,52.36710763893127L128.91556433865355,50.65220763893127L128.91361333865356,50.67700763893127ZM150.23862133865356,54.34200763893128L128.75984333865355,52.627207638931274L128.68198333865357,53.61470763893128L150.16082133865356,55.329507638931275L150.23862133865356,54.34200763893128ZM150.08292133865356,56.31700763893127L128.60412333865355,54.602207638931276L128.52626233865357,55.58970763893127L150.00512133865357,57.30450763893127L150.08292133865356,56.31700763893127ZM149.92722133865357,58.292007638931274L128.44840233865355,56.57720763893127L128.37054233865356,57.564707638931274L149.84932133865357,59.27950763893128L149.92722133865357,58.292007638931274Z" fill-rule="evenodd" fill="#71B7D2" fill-opacity="1"/></g></g><g><path d="M136.77120955993652,38.93996503564453Q136.82750955993652,38.871975835644534,136.82750955993652,38.78369903564453Q136.82750955993652,38.734965535644534,136.80885955993654,38.68994163564453Q136.79020955993653,38.64491803564453,136.75574955993653,38.610458035644534Q136.72128955993654,38.57599803564453,136.67626955993651,38.557349035644535Q136.63124955993652,38.538699035644534,136.5825095599365,38.538699035644534Q136.52777955993653,38.538699035644534,136.47825955993653,38.56198903564453Q136.42872955993653,38.58528003564453,136.39381955993653,38.62743303564453L136.39296955993652,38.62672703564453Q135.13509955993652,40.14563903564453,134.13614355993653,42.91008903564453L134.13332055993652,42.91789903564453L134.13103155993653,42.92588903564453Q131.02198955993651,53.76719903564453,139.15158955993653,59.29439903564453L139.15220955993652,59.29349903564453Q139.21455955993653,59.33589903564453,139.28995955993653,59.33589903564453Q139.3386895599365,59.33589903564453,139.38371955993654,59.31729903564453Q139.42873955993653,59.29859903564453,139.46319955993653,59.26419903564453Q139.49765955993652,59.22969903564453,139.51630955993653,59.18469903564453Q139.5349595599365,59.13959903564453,139.5349595599365,59.09089903564453Q139.5349595599365,59.03009903564453,139.5064895599365,58.97629903564453Q139.47802955993652,58.922499035644535,139.42770955993652,58.888299035644536L139.42832955993651,58.887399035644535Q131.59630955993651,53.562499035644535,134.60188955993652,43.06954903564453Q135.57062955993652,40.391429035644535,136.77205955993654,38.940671035644534L136.77120955993652,38.93996503564453Z" fill-rule="evenodd" fill="#0F3849" fill-opacity="1"/></g><g><path d="M129.6915888786316,63.54858834350586L154.54828887863158,69.24451834350586L158.7320888786316,64.04388834350586L138.0591888786316,59.58620834350586L129.6915888786316,63.54858834350586Z" fill="#94C7E1" fill-opacity="1"/></g><g><path d="M170.54517364501953,28.63009186050415L187.52647364501954,30.61128186050415L189.00307364501953,30.115991860504153L189.24927364501954,23.67711186050415L170.54517364501953,22.43887186050415L170.54517364501953,27.39185186050415L170.54517364501953,28.63009186050415Z" fill="#508DAC" fill-opacity="1"/></g><g transform="matrix(0.9995710849761963,0.029285959899425507,-0.029285959899425507,0.9995710849761963,1.0540585877897684,-3.9685469569130873)"><path d="M136.5064147109375,35.31972Q135.3114327109375,37.18233,136.9825507109375,40.88372Q143.8030487109375,41.44186,152.8158787109375,42L155.0081787109375,34.186046L138.2004887109375,34Q137.0532987109375,34.467298,136.5064147109375,35.31972Z" fill="#23536B" fill-opacity="1"/></g><g mask="url(#master_svg2_1460_00177)"></g><g><path d="M135.84423732757568,61.07210159301758L135.84423732757568,62.557991593017576L148.14953732757567,65.03448159301757Q148.39563732757568,63.79624159301758,148.39563732757568,63.548591593017576Q148.39563732757568,63.300941593017576,147.4112373275757,63.300941593017576L135.84423732757568,61.07210159301758Z" fill="#397492" fill-opacity="1"/></g><g><path d="M135.84423732757568,61.07210186523437L148.14953732757567,63.54859186523437Q148.39563732757568,62.310351865234374,148.39563732757568,62.062701865234374Q148.39563732757568,61.81505186523437,149.1339373275757,61.07210186523437L138.7975073275757,59.090911865234375L135.84423732757568,61.07210186523437Z" fill="#6BA8C7" fill-opacity="1"/></g><g><path d="M139.53582572937012 59.087823420763016C139.53582572937012 58.81598232315188 139.75619648025636 58.595611572265625 140.0280375778675 58.595611572265625L141.0124613046646 58.595611572265625C141.0124613046646 58.595611572265625 141.0124613046646 58.595611572265625 141.0124613046646 58.595611572265625L141.0124613046646 60.57680284976959C141.0124613046646 60.57680284976959 141.0124613046646 60.57680284976959 141.0124613046646 60.57680284976959L139.53582572937012 60.57680284976959C139.53582572937012 60.57680284976959 139.53582572937012 60.57680284976959 139.53582572937012 60.57680284976959Z" fill="#38667A" fill-opacity="1"/></g><g><path d="M140.52024936676025 58.595611572265625C140.52024936676025 58.595611572265625 140.52024936676025 58.595611572265625 140.52024936676025 58.595611572265625L141.50467309355736 58.595611572265625C141.7765141911685 58.595611572265625 141.99688494205475 58.81598232315188 141.99688494205475 59.087823420763016L141.99688494205475 60.57680284976959C141.99688494205475 60.57680284976959 141.99688494205475 60.57680284976959 141.99688494205475 60.57680284976959L140.52024936676025 60.57680284976959C140.52024936676025 60.57680284976959 140.52024936676025 60.57680284976959 140.52024936676025 60.57680284976959Z" fill="#0F3849" fill-opacity="1"/></g><g><path d="M145.4424288408203,51.16610289306641C144.4580058408203,60.08150289306641,145.4424678408203,78.40750289306641,155.5327868408203,83.60810289306642Q159.9625868408203,84.8464028930664,175.46728684082032,87.32290289306641C166.60748684082031,82.36990289306641,161.4392868408203,62.31030289306641,167.34578684082032,45.47020289306641Q173.25228684082032,28.630092893066408,182.3231868408203,27.302729893066406Q182.3434868408203,27.296619893066406,182.3436868408203,27.290009893066408Q182.3477868408203,27.125110893066406,169.8068868408203,26.648902893066406L160.70098684082032,26.648902893066406Q155.28668684082032,28.630092893066408,152.8256068408203,32.34482289306641C150.3645468408203,36.059562893066406,146.4268568408203,42.25080289306641,145.4424288408203,51.16610289306641Z" fill="#629DBB" fill-opacity="1"/></g><g><path d="M200.81622991333006,43.24133360061646C200.81622991333006,59.51733360061645,198.35512991333007,80.88403360061645,183.3427299133301,87.81813360061645C171.03737991333008,91.28523360061645,164.63862991333008,76.10973360061647,164.63862991333008,59.83383360061646C165.62305391333007,39.278933600616455,175.83402991333008,27.391783600616456,182.3582299133301,27.391783600616456C182.76602991333007,27.391783600616456,185.04102991333008,28.110273600616456,186.29592991333007,29.373043600616455C187.2803299133301,30.363633600616453,188.7570299133301,28.877743600616455,188.7570299133301,28.382443600616455C188.7570299133301,27.391853600616457,188.7570299133301,24.172413600616455,188.7570299133301,23.181813600616454C192.94082991333008,21.943573600616453,198.47822991333007,20.086206600616457,200.3240299133301,19.714733600616455C200.3240299133301,28.877743600616455,200.57012991333008,35.06903360061646,200.81622991333006,43.24133360061646Z" fill="#397492" fill-opacity="1"/></g><g><path d="M165.13084030151367,21.44828L190.23364030151367,22.93417L205.00004030151368,17.48589L181.37384030151367,16L165.13084030151367,21.44828Z" fill="#94C7E1" fill-opacity="1"/></g><g><path d="M169.80685424804688,20.952975638751983L189.74145424804686,21.695925638751984L200.81615424804687,17.981191638751984L181.37385424804688,16.990595638751984L169.80685424804688,20.952975638751983Z" fill="#23536B" fill-opacity="1"/></g><g><path d="M169.80685424804688,20.952975638751983L181.37385424804688,21.448275638751984L181.37385424804688,16.990595638751984L169.80685424804688,20.952975638751983Z" fill="#397492" fill-opacity="1"/></g><g><path d="M195.15573485107421,53.557547903442384C193.5081348510742,70.67104790344239,188.30773485107423,80.88404790344238,180.8764348510742,80.88404790344238C173.44516485107422,80.88404790344238,169.06853485107422,69.44874790344238,169.06853485107422,54.661647903442386C169.06853485107422,39.87444790344238,175.91658485107422,27.887147903442383,183.34783485107423,27.887147903442383C190.77913485107422,27.887147903442383,195.15573485107421,38.770347903442385,195.15573485107421,53.557547903442384Z" fill="#23536B" fill-opacity="1"/></g><g><path d="M196.63244854125978,53.75871928710937C195.45104854125975,66.71381928710937,191.72244854125978,74.44511928710938,186.39438854125976,74.44511928710938C181.06630854125976,74.44511928710938,177.92834854125977,65.78851928710938,177.92834854125977,54.59451928710938C177.92834854125977,43.400539287109375,182.83826854125977,34.326019287109375,188.16634854125977,34.326019287109375C193.49444854125977,34.326019287109375,196.63244854125978,42.56472928710937,196.63244854125978,53.75871928710937Z" fill="#212326" fill-opacity="1"/></g><g><path d="M165.13084030151367,22.438872042938232L190.23364030151367,23.92476604293823L190.23364030151367,22.934166042938234L165.13084030151367,21.448276042938232L165.13084030151367,22.438872042938232Z" fill="#23536B" fill-opacity="1"/></g><g><path d="M190.233642578125,23.9247634879303L205.000042578125,18.476489487930298L205.000042578125,17.485893487930298L190.233642578125,22.9341734879303L190.233642578125,23.9247634879303Z" fill="#23536B" fill-opacity="1"/></g><g><ellipse cx="180.38941103219986" cy="32.34482842683792" rx="0.9844236969947815" ry="0.9905956387519836" fill="url(#master_svg3_1460_00098)" fill-opacity="1"/></g><g><ellipse cx="173.49844270944595" cy="43.24137955904007" rx="0.9844236969947815" ry="0.9905956387519836" fill="#497A92" fill-opacity="1"/></g><g><ellipse cx="171.5295973420143" cy="57.109717190265656" rx="0.9844236969947815" ry="0.9905956387519836" fill="#497A92" fill-opacity="1"/></g><g><ellipse cx="175.46729189157486" cy="74.94043999910355" rx="0.9844236969947815" ry="0.9905956387519836" fill="#497A92" fill-opacity="1"/></g><g><path d="M198.1089944213867,53.6039411529541C197.61679442138671,69.7398411529541,191.13179442138673,79.39814115295411,183.56029442138671,79.39814115295411C175.98879442138673,79.39814115295411,171.52959442138672,68.6040411529541,171.52959442138672,54.6461411529541C171.52959442138672,40.6881411529541,178.50685442138672,29.3730411529541,186.07829442138672,29.3730411529541C193.64979442138673,29.3730411529541,198.1089944213867,39.6460411529541,198.1089944213867,53.6039411529541Z" fill="#3A4453" fill-opacity="1"/></g><g><path d="M198.60120862426757,53.6039411529541C198.10900862426757,69.7398411529541,191.6240086242676,79.39814115295411,184.05250862426757,79.39814115295411C176.4810086242676,79.39814115295411,172.02180862426758,68.6040411529541,172.02180862426758,54.6461411529541C172.02180862426758,40.6881411529541,178.99906862426758,29.3730411529541,186.57050862426757,29.3730411529541C194.1420086242676,29.3730411529541,198.60120862426757,39.6460411529541,198.60120862426757,53.6039411529541Z" fill="#629DBB" fill-opacity="1"/></g><g><g><g><path d="M196.63236819458007,53.456912393188475C195.23346819458007,67.53161239318848,190.8179681945801,75.93101239318847,184.50846819458008,75.93101239318847C178.1988681945801,75.93101239318847,174.48286819458008,66.52631239318848,174.48286819458008,54.364912393188476C174.48286819458008,42.203552393188474,180.29724819458008,32.34481239318848,186.60686819458007,32.34481239318848C192.9163681945801,32.34481239318848,196.63236819458007,41.295512393188474,196.63236819458007,53.456912393188475Z" fill="#94C7E1" fill-opacity="1"/></g></g><g><g style="opacity:0.5;"><path d="M189.5000741039276,53.5000281244278C187.49997410392763,74.00002812442779,181.23059410392761,74.00002812442779,180.0000641039276,74.00002812442779C174.7290861609276,68.00002812442779,174.7289741039276,60.081428124427795,174.7289741039276,51.1661281244278C175.7133981039276,38.7836481244278,180.9999741039276,34.500008124427794,182.99997410392763,33.4999909244278C184.4766041039276,33.0046981244278,189.49997410392763,37.500008124427794,189.5000741039276,53.5000281244278Z" fill="#1E2C43" fill-opacity="1"/></g><g><path d="M189.24926819458008,53.6426105813384C188.26476819458009,66.2727105813384,184.53946819458008,74.50511058133841,179.89719819458008,73.9498105813384C178.42055819458008,72.2163105813384,174.48286819458008,67.7586105813384,174.48286819458008,54.899710581338404C175.29357019458007,39.23756058133841,180.63551819458007,34.82133058133841,182.60436819458008,33.583074881338405C184.22576819458007,33.052160581338406,189.74146819458008,36.554820581338404,189.24926819458008,53.6426105813384Z" fill="#212C3E" fill-opacity="1"/></g><g mask="url(#master_svg4_1460_00159)"><g><path d="M191.21816254196168,31.08140552295685L167.87674254196168,29.373015522956848L167.79213254196168,30.356799522956848L191.13356254196168,32.065185522956845L191.21816254196168,31.08140552295685ZM191.04896254196166,33.04897552295685L167.70752254196168,31.340585522956847L167.62291254196168,32.324365522956846L190.96436254196166,34.03275552295685L191.04896254196166,33.04897552295685ZM190.87966254196166,35.01654552295685L167.53829654196167,33.30814552295685L167.45368454196168,34.29193552295685L190.79506254196167,36.00032552295685L190.87966254196166,35.01654552295685ZM191.13356254196168,37.98644552295685L190.62746254196168,37.94939552295685L190.62586254196168,37.96789552295685L167.28446054196166,36.25950552295685L167.36907254196166,35.27571552295685L167.87515254196168,35.31275552295685L167.87674254196168,35.29426552295685L191.21816254196168,37.00265552295685L191.13356254196168,37.98644552295685ZM167.70752254196168,37.26183552295685L167.87621254196168,37.27418552295685L167.87674254196168,37.268015522956844L191.21816254196168,38.976405522956846L191.13356254196168,39.960215522956844L190.96486254196168,39.947815522956844L190.96436254196166,39.95401552295685L190.45826254196166,39.917015522956845L190.45666254196166,39.935415522956845L167.11523554196168,38.22706552295685L167.19984754196167,37.243285522956846L167.70593254196166,37.28032552295685L167.70752254196168,37.26183552295685ZM167.53829654196167,39.229405522956846L167.70699254196168,39.24174552295685L167.70752254196168,39.235585522956846L191.04896254196166,40.944015522956846L190.96436254196166,41.927715522956845L190.79566254196166,41.91541552295685L190.79506254196167,41.92161552295685L190.28896254196167,41.884515522956846L190.28746254196167,41.90301552295685L166.94601154196167,40.19461552295685L167.03062354196166,39.21085552295685L167.53670654196168,39.247895522956846L167.53829654196167,39.229405522956846ZM167.36907254196166,41.197015522956846L167.53776654196167,41.20931552295685L167.53829654196167,41.20311552295685L190.87966254196166,42.91151552295685L190.79506254196167,43.89531552295685L190.62636254196167,43.883015522956846L190.62586254196168,43.88911552295685L190.11976254196168,43.85211552295685L190.11816254196168,43.87061552295685L166.77678654196168,42.16221552295685L166.86139954196167,41.17841552295685L167.36748154196167,41.215415522956846L167.36907254196166,41.197015522956846ZM167.19984754196167,43.16451552295685L167.36854254196166,43.17691552295685L167.36907254196166,43.17071552295685L167.87515254196168,43.207715522956846L167.87674254196168,43.189315522956846L191.21816254196168,44.89761552295685L191.13356254196168,45.88141552295685L190.62746254196168,45.84441552295685L190.62586254196168,45.86291552295685L190.45716254196168,45.85051552295685L190.45666254196166,45.85671552295685L189.95056254196166,45.81971552295685L189.94896254196166,45.83811552295685L166.60756254196167,44.12981552295685L166.69217474196168,43.146015522956844L167.19825754196168,43.18301552295685L167.19984754196167,43.16451552295685ZM167.19984754196167,45.138315522956844L167.70593254196166,45.17531552295685L167.70752254196168,45.15681552295685L191.04896254196166,46.865215522956845L190.96436254196166,47.84901552295685L190.45826254196166,47.81201552295685L190.45666254196166,47.83041552295685L190.28796254196166,47.818115522956845L190.28746254196167,47.82431552295685L166.94601154196167,46.11591552295685L167.03062354196166,45.13211552295685L167.19931754196168,45.14441552295685L167.19984754196167,45.138315522956844ZM167.03062354196166,47.105815522956846L167.53670654196168,47.14291552295685L167.53829654196167,47.12441552295685L190.87966254196166,48.83281552295685L190.79506254196167,49.81661552295685L190.28896254196167,49.77951552295685L190.28746254196167,49.798015522956845L190.11876254196167,49.78571552295685L190.11816254196168,49.79181552295685L166.77678654196168,48.08341552295685L166.86139954196167,47.09971552295685L167.03009354196166,47.11201552295685L167.03062354196166,47.105815522956846ZM166.86139954196167,49.07341552295685L167.36748154196167,49.11041552295685L167.36907254196166,49.09201552295685L190.71046254196168,50.80031552295685L190.62586254196168,51.78411552295685L190.11976254196168,51.74711552295685L190.11816254196168,51.76561552295685L189.94946254196168,51.75321552295685L189.94896254196166,51.75941552295684L166.60756254196167,50.051015522956845L166.69217474196168,49.06721552295684L166.86086854196168,49.07961552295685L166.86139954196167,49.07341552295685ZM190.54126254196166,52.76791552295685L167.19984754196167,51.05951552295684L167.11523554196168,52.043315522956846L190.45666254196166,53.75171552295684L190.54126254196166,52.76791552295685ZM190.37206254196167,54.735515522956845L167.03062354196166,53.02711552295685L166.94601154196167,54.01091552295685L190.28746254196167,55.71931552295685L190.37206254196167,54.735515522956845ZM190.20276254196168,56.703015522956846L166.86139954196167,54.99471552295685L166.77678654196168,55.97841552295685L190.11816254196168,57.68681552295685L190.20276254196168,56.703015522956846ZM167.87674254196168,57.00551552295685L191.21816254196168,58.71391552295685L191.13356254196168,59.69771552295685L167.79213254196168,57.98931552295684L167.87674254196168,57.00551552295685ZM167.70752254196168,58.973115522956846L191.04896254196166,60.68151552295684L190.96436254196166,61.66521552295685L167.62291254196168,59.95691552295685L167.70752254196168,58.973115522956846ZM167.53829654196167,60.94061552295685L190.87966254196166,62.64901552295685L190.79506254196167,63.63281552295685L167.45368454196168,61.92441552295685L167.53829654196167,60.94061552295685ZM167.36907254196166,62.90821552295685L190.71046254196168,64.61661552295685L190.62586254196168,65.60041552295685L167.28446054196166,63.89201552295685L167.36907254196166,62.90821552295685ZM167.19984754196167,64.87581552295686L167.87462254196166,64.92521552295685L167.87674254196168,64.90051552295685L191.21816254196168,66.60891552295685L191.13356254196168,67.59271552295685L190.45876254196168,67.54331552295685L190.45666254196166,67.56801552295684L167.11523554196168,65.85961552295686L167.19984754196167,64.87581552295686ZM167.03062354196166,66.84331552295686L167.70540254196166,66.89271552295685L167.70752254196168,66.86811552295686L191.04896254196166,68.57651552295684L190.96436254196166,69.56031552295684L190.28956254196166,69.51091552295685L190.28746254196167,69.53551552295684L166.94601154196167,67.82711552295684L167.03062354196166,66.84331552295686ZM166.86139954196167,68.81091552295685L167.53617654196168,68.86031552295685L167.53829654196167,68.83561552295686L190.87966254196166,70.54401552295684L190.79506254196167,71.52781552295684L190.12036254196167,71.47841552295685L190.11816254196168,71.50311552295685L166.77678654196168,69.79471552295685L166.86139954196167,68.81091552295685ZM166.69217474196168,70.77851552295685L167.36695154196167,70.82791552295686L167.36907254196166,70.80321552295685L190.71046254196168,72.51161552295684L190.62586254196168,73.49541552295685L189.95106254196168,73.44601552295686L189.94896254196166,73.47071552295685L166.60756254196167,71.76231552295684L166.69217474196168,70.77851552295685ZM167.19984754196167,72.77081552295684L190.54126254196166,74.47921552295685L190.45666254196166,75.46301552295685L167.11523554196168,73.75461552295684L167.19984754196167,72.77081552295684ZM167.03062354196166,74.73831552295684L190.37206254196167,76.44671552295685L190.28746254196167,77.43051552295685L166.94601154196167,75.72211552295684L167.03062354196166,74.73831552295684ZM166.86139954196167,76.70591552295684L190.20276254196168,78.41431552295685L190.11816254196168,79.39811552295686L166.77678654196168,77.68971552295685L166.86139954196167,76.70591552295684Z" fill-rule="evenodd" fill="#23536B" fill-opacity="1"/></g><g><path d="M187.55962410845947,32.51592883049011Q187.52877710845948,32.43315413049011,187.52877710845948,32.34481883049011Q187.52877610845948,32.29655803049011,187.53819210845947,32.24922463049011Q187.54760710845946,32.201890830490115,187.56607510845947,32.157303830490115Q187.58454410845948,32.112716830490115,187.61135610845946,32.07258983049011Q187.63816910845946,32.032461830490114,187.67229410845948,31.99833683049011Q187.70642010845947,31.964210830490114,187.74654710845948,31.937398830490114Q187.78667410845947,31.91058683049011,187.83125710845948,31.89211783049011Q187.87584710845948,31.87364883049011,187.92318710845947,31.86423383049011Q187.97051710845946,31.854818830490114,188.01877710845946,31.854818830490114Q188.0937171084595,31.854818830490114,188.16522710845948,31.877216830490113Q188.23673710845947,31.89961383049011,188.29828710845948,31.942361830490114Q188.35983710845946,31.985108830490113,188.40579710845947,32.04429883049011Q188.45175710845947,32.103488830490114,188.47792710845948,32.17370883049011L188.48000710845946,32.172936830490116Q195.18337710845947,50.16071883049011,187.25855410845946,75.82861883049011L187.25644110845948,75.82791883049012Q187.23327410845948,75.90301883049011,187.18781710845948,75.9670188304901Q187.14236110845948,76.03101883049011,187.07916810845947,76.07761883049011Q187.01597610845948,76.12431883049011,186.94137710845948,76.14881883049011Q186.86677900845947,76.1734188304901,186.78824710845947,76.1734188304901Q186.73998630845946,76.1734188304901,186.69265290845948,76.1639188304901Q186.64531910845946,76.1545188304901,186.60073210845948,76.13611883049012Q186.55614510845948,76.1176188304901,186.51601810845946,76.09081883049012Q186.47589010845948,76.06401883049011,186.44176510845946,76.02981883049011Q186.40763910845948,75.99571883049012,186.38082710845947,75.95561883049011Q186.35401510845946,75.91551883049011,186.33554610845948,75.87091883049011Q186.31707710845947,75.82631883049011,186.30766210845948,75.77901883049012Q186.29824710845946,75.7316188304901,186.29824710845946,75.68341883049011Q186.29824710845946,75.60941883049011,186.32005310845946,75.53881883049011L186.31794010845948,75.53821883049011Q194.14390710845947,50.19051883049011,187.55755110845948,32.51670083049011L187.55962410845947,32.51592883049011Z" fill-rule="evenodd" fill="#2D3F5D" fill-opacity="1"/></g></g></g></g><g><ellipse cx="186.29595330357552" cy="30.85893478989601" rx="0.49221184849739075" ry="0.4952978193759918" fill="#94C7E1" fill-opacity="1"/></g><g><ellipse cx="178.42056038975716" cy="36.307210355997086" rx="0.49221184849739075" ry="0.4952978193759918" fill="#94C7E1" fill-opacity="1"/></g><g><ellipse cx="173.99065545201302" cy="46.21316662430763" rx="0.49221184849739075" ry="0.4952978193759918" fill="#94C7E1" fill-opacity="1"/></g><g><ellipse cx="173.49844506382942" cy="57.6050161421299" rx="0.49221184849739075" ry="0.4952978193759918" fill="#94C7E1" fill-opacity="1"/></g><g><ellipse cx="174.4828658401966" cy="66.52037945389748" rx="0.49221184849739075" ry="0.4952978193759918" fill="#94C7E1" fill-opacity="1"/></g><g><ellipse cx="178.91277459263802" cy="74.94043865799904" rx="0.49221184849739075" ry="0.4952978193759918" fill="#94C7E1" fill-opacity="1"/></g><g><ellipse cx="187.77258828282356" cy="76.92163220047951" rx="0.49221184849739075" ry="0.4952978193759918" fill="#94C7E1" fill-opacity="1"/></g><g><ellipse cx="193.1869139969349" cy="70.97805920243263" rx="0.49221184849739075" ry="0.4952978193759918" fill="#94C7E1" fill-opacity="1"/></g><g><ellipse cx="196.14019158482552" cy="63.54858914017677" rx="0.49221184849739075" ry="0.4952978193759918" fill="#94C7E1" fill-opacity="1"/></g><g><ellipse cx="197.6168227493763" cy="55.128526121377945" rx="0.49221184849739075" ry="0.4952978193759918" fill="#94C7E1" fill-opacity="1"/></g><g><ellipse cx="197.1246123611927" cy="44.727273374795914" rx="0.49221184849739075" ry="0.4952978193759918" fill="#94C7E1" fill-opacity="1"/></g><g><ellipse cx="194.1713424026966" cy="36.307210355997086" rx="0.49221184849739075" ry="0.4952978193759918" fill="#94C7E1" fill-opacity="1"/></g></g></g></svg>