<svg xmlns="http://www.w3.org/2000/svg" xmlns:xlink="http://www.w3.org/1999/xlink" fill="none" version="1.1" width="110" height="110" viewBox="0 0 110 110"><defs><clipPath id="master_svg0_1460_00279"><rect x="110" y="0" width="110" height="110" rx="0"/></clipPath></defs><g transform="matrix(-1,0,0,1,220,0)" clip-path="url(#master_svg0_1460_00279)"><g transform="matrix(-1,0,0,1,396,0)"><g><path d="M246,48L198,48L198,98L246,98L246,48Z" fill="#629DBB" fill-opacity="1"/></g><g><path d="M245,55L199,55L199,97L245,97L245,55Z" fill="#BDDDED" fill-opacity="1"/></g><g><path d="M244,56L200,56L200,72L244,72L244,56Z" fill="#397492" fill-opacity="1"/></g><g><path d="M204.84732,61.1499L204.84732,56L204.66123,56L204.66123,61.1499L200,61.1499L200,61.336L204.66123,61.336L204.66123,66.4832L200,66.4832L200,66.66929999999999L204.66123,66.66929999999999L204.66123,72L204.84732,72L204.84732,66.66929999999999L209.13573,66.66929999999999L209.13573,72L209.32183,72L209.32183,66.66929999999999L213.5171,66.66929999999999L213.5171,72L213.7032,72L213.7032,66.66929999999999L217.712,66.66929999999999L217.712,72L217.8981,72L217.8981,66.66929999999999L222.0934,66.66929999999999L222.0934,72L222.27949999999998,72L222.27949999999998,66.66929999999999L226.47469999999998,66.66929999999999L226.47469999999998,72L226.6608,72L226.6608,66.66929999999999L230.6697,66.66929999999999L230.6697,72L230.8558,72L230.8558,66.66929999999999L235.1442,66.66929999999999L235.1442,72L235.3303,72L235.3303,66.66929999999999L239.3392,66.66929999999999L239.3392,72L239.52530000000002,72L239.52530000000002,66.66929999999999L244,66.66929999999999L244,66.4832L239.52530000000002,66.4832L239.52530000000002,61.336L244,61.336L244,61.1499L239.52530000000002,61.1499L239.52530000000002,56L239.3392,56L239.3392,61.1499L235.3303,61.1499L235.3303,56L235.1442,56L235.1442,61.1499L230.8558,61.1499L230.8558,56L230.6697,56L230.6697,61.1499L226.6608,61.1499L226.6608,56L226.47469999999998,56L226.47469999999998,61.1499L222.27949999999998,61.1499L222.27949999999998,56L222.0934,56L222.0934,61.1499L217.8981,61.1499L217.8981,56L217.712,56L217.712,61.1499L213.7032,61.1499L213.7032,56L213.5171,56L213.5171,61.1499L209.32183,61.1499L209.32183,56L209.13573,56L209.13573,61.1499L204.84732,61.1499ZM204.84732,61.336L204.84732,66.4832L209.13573,66.4832L209.13573,61.336L204.84732,61.336ZM209.32183,61.336L209.32183,66.4832L213.5171,66.4832L213.5171,61.336L209.32183,61.336ZM213.7032,61.336L213.7032,66.4832L217.712,66.4832L217.712,61.336L213.7032,61.336ZM217.8981,61.336L217.8981,66.4832L222.0934,66.4832L222.0934,61.336L217.8981,61.336ZM222.27949999999998,61.336L222.27949999999998,66.4832L226.47469999999998,66.4832L226.47469999999998,61.336L222.27949999999998,61.336ZM226.6608,61.336L226.6608,66.4832L230.6697,66.4832L230.6697,61.336L226.6608,61.336ZM230.8558,61.336L230.8558,66.4832L235.1442,66.4832L235.1442,61.336L230.8558,61.336ZM235.3303,61.336L235.3303,66.4832L239.3392,66.4832L239.3392,61.336L235.3303,61.336Z" fill-rule="evenodd" fill="#FFFFFF" fill-opacity="1"/></g><g><path d="M253.89796,95.4268L255.82653,96L257.7551,96L259.5,95.4268L261.2449,94.4713L262.5306,93.13380000000001L263.449,91.5096L264,89.50318L264,87.49682L263.449,85.49045L262.5306,83.86624L261.2449,82.43312L259.5,81.573248L257.7551,81L246,81L246,89L250,89L250.13265,91.5096L250.95918,93.13380000000001L252.33673,94.4713L253.89796,95.4268Z" fill="#629DBB" fill-opacity="1"/></g><g><ellipse cx="257" cy="89" rx="8" ry="8" fill="#629DBB" fill-opacity="1"/></g><g><ellipse cx="257" cy="89" rx="7" ry="7" fill="#397492" fill-opacity="1"/></g><g><ellipse cx="257" cy="89" rx="5" ry="5" fill="#2C6480" fill-opacity="1"/></g><g><ellipse cx="257" cy="89" rx="3" ry="3" fill="#1B4256" fill-opacity="1"/></g><g><ellipse cx="257" cy="89" rx="1" ry="1" fill="#092F42" fill-opacity="1"/></g><g><path d="M246,89L244,87.82353L244,82.05882L246,81L246,89Z" fill="#397492" fill-opacity="1"/></g><g><path d="M244,82.51064L241.6273,81.74468L239.6343,80.21277L237.2616,78.58511L234.794,77.91489L233.75,77.81915L234.4144,78.87234L232.4213,80.78723L229.669,79.82979L227.2963,78.39362L224.8287,77.43617L222.2662,76.861702L221.9815,76.861702L221.9815,76.957447L221.9815,77.14894L223.3102,79.25532L223.4051,80.02128L223.2153,80.30851L222.9306,80.5L220.2731,80.78723L217.7106,79.6383L215.6227,78.20213L213.3449,76.861702L210.6875,76.0957447L209.64352,76L209.4537,76.382979L209.3588,76.861702L210.40278,79.35106L210.59259,79.82979L210.49768,79.92553L207.55556,79.73404L204.42361,79.44681L203.37963,79.6383L203,79.82979L203.474537,80.11702L205.5625,81.45745L206.7963,82.51064L206.8912,82.79787L206.70139,82.89362L203.474537,83.18085L203,83.37234L203,83.75532L205.08796,84.90425L207.93518,85.76596L208.69444,86.2447L208.88426,86.8191L208.78935,87.10640000000001L206.32176,87.8723L203.569444,88.8298L203,89.2128L206.32176,89.2128L208.97917,88.8298L212.0162,88.4468L213.0602,88.6383L213.25,88.9255L213.4398,89.2128L212.0162,91.60640000000001L211.44676,91.89359999999999L214.1991,92.1808L216.6667,91.2234L219.3241,90.266L221.0324,90.1702L221.2222,90.4574L221.0324,93.1383L220.7477,93.9043L223.1204,93.0426L225.7778,91.7979L228.1505,91.03190000000001L230.9977,90.9362L232.5162,91.03190000000001L232.8009,91.3191L232.8958,93.9043L233.5602,94L234.2245,93.9043L236.5972,92.3723L238.4005,90.5532L240.4884,88.734L242.95600000000002,87.39359999999999L244,87.2021L244,86.6277L244,82.51064Z" fill="#FF0300" fill-opacity="1"/></g><g><path d="M244,82.95349L241.4221,82.02326L239.0352,80.16279L236.5528,78.95349L234.8342,78.76744L235.407,79.69767L235.2161,80.34884L233.0201,81.27907L230.6332,80.16279L228.3417,78.86046L225.7638,78.02326L224.1407,77.744186L224.1407,77.837209L225.3819,79.88372L225.4774,80.53488L225.28640000000001,80.81395L225,81L221.9447,81L219.4623,79.69767L217.1709,78.30233L214.8794,77.27907L213.63819,77.0930232L213.1608,77L212.68342,77L212.49246,77.27907L212.39699,77.651163L213.25628,79.88372L213.44724,80.34884L213.35176,80.44186L213.1608,80.44186L210.48744,80.25581L207.71859,80.06977L206.38191,80.34884L208.57789,81.74419L209.8191,82.95349L209.62814,83.04651L206.668342,83.32558L206.190955,83.60465L206.38191,84.16279L206.763819,84.44186L209.72362,85.18604L211.25126,86.11628L211.34673,86.39535000000001L211.25126,86.76744L208.48241,87.6046L206.477387,88.2558L206,88.5349L206.477387,88.7209L209.8191,88.5349L212.87437,88.0698L215.07035,88.1628L215.26131,88.2558L215.35678000000001,88.5349L214.30653,90.8605L213.73367,91.1395L214.40201,91.6046L217.3618,90.9535L219.6533,90.0233L222.2312,89.6512L222.51760000000002,89.6512L222.70850000000002,89.8372L222.4221,92.907L225,91.8837L227.5779,90.8605L230.8241,90.3023L233.2111,90.4884L233.402,90.5814L233.593,92.907L234.1658,93L234.7387,92.907L237.0302,91.6046L239.2261,89.5581L241.32659999999998,88.0698L243.809,87.1395L243.90449999999998,84.53488L244,83.97674L244,83.4186L244,82.95349Z" fill="#FF3600" fill-opacity="1"/></g><g><path d="M243,83.82803L235.1538,80.00637L234.4066,82.20382000000001L226.2802,79.1465L225.6264,82.01274L221.1429,80.19745L215.53846,78L216.09890000000001,81.05732L209.934066,81.05732L212.54945,83.25478L209.373626,84.11465L213.67033,86.50318L209,88.7962L217.12637,88.7962L215.72528,91.3758L223.2912,89.9427L223.478,93L232.6319,90.8025L233.6593,93L242.6264,87.74522L243,83.82803Z" fill="#FF3E00" fill-opacity="1"/></g><g><path d="M243,84.088L237.2466,81.016L236.863,82.456L230.5342,80.152L229.7671,82.072L226.2192,80.632L221.71233,79L221.71233,81.208L216.43836,81.208L218.26027,82.84L215.479452,83.512L218.45204999999999,85.528L215,87.352L221.13699,87.736L220.17808,89.56L226.2192,88.6L226.6986,91L233.9863,89.368L235.2329,91L242.4247,86.968L243,84.088Z" fill="#FF6B00" fill-opacity="1"/></g><g><path d="M242,85.26804L238.4215,83.13402L238.4215,83.96907L234.278,82.20619L233.6188,83.31959L230.98206,82.20619L227.59193,81L227.21525,82.39175L223.26009,82.39175L224.01345,83.69072L221.659193,84.15464L223.5426,85.54639L221,86.93814L225.04933,87.30928L224.57847,88.70103L228.81614,88.14433L229.47534,89.81443L234.843,88.8866L236.0673,90L241.2466,87.30928L242,85.26804Z" fill="#FFA400" fill-opacity="1"/></g><g><ellipse cx="236.5" cy="85.5" rx="4.5" ry="1.5" fill="#FFCA00" fill-opacity="1"/></g><g><path d="M229.381,26.3265L237,30.8265L237,37.2551L229.381,37.2551L229.381,48L214.52381,48L214.52381,37.2551L207,37.2551L207,31.7449L214.52381,26.3265L214.52381,15.58163L222.0476,14.93878L222.4286,13.92857L223.1905,13.0102L224.0476,12.367347L225.0952,12L226.3333,12L227.4762,12.367347L228.3333,13.0102L229.0952,13.92857L229.381,14.93878L229.381,26.3265Z" fill="#397492" fill-opacity="1"/></g><g><ellipse cx="218.0249366760254" cy="15.237197875976562" rx="3.6802101135253906" ry="3.6306304931640625" fill="#1F475F" fill-opacity="1"/></g></g><g transform="matrix(-1,0,0,1,364,0)"><rect x="182" y="37" width="15" height="11" rx="0" fill="#397492" fill-opacity="1"/></g><g transform="matrix(-1,0,0,1,378,0)"><path d="M189,38L219,38L219,30L189,30L189,38Z" fill="#629DBB" fill-opacity="1"/></g></g></svg>