<svg xmlns="http://www.w3.org/2000/svg" xmlns:xlink="http://www.w3.org/1999/xlink" fill="none" version="1.1" width="110" height="110.00000762939453" viewBox="0 0 110 110.00000762939453"><defs><clipPath id="master_svg0_1460_00188"><rect x="0" y="0" width="110" height="110.00000762939453" rx="0"/></clipPath></defs><g clip-path="url(#master_svg0_1460_00188)"><g><g><path d="M25.53570556640625,54.70416259765625L25.53570556640625,94.21436259765625L35.35713556640625,94.21436259765625L35.35713556640625,54.70416259765625L25.53570556640625,54.70416259765625Z" fill="#397492" fill-opacity="1"/></g><g><path d="M74.64281669921874,64.5816650390625L35.35711669921875,64.5816650390625L35.35711669921875,84.3367650390625L74.64281669921874,84.3367650390625L74.64281669921874,64.5816650390625Z" fill="#1F475F" fill-opacity="1"/></g><g><path d="M74.64288330078125,54.70416259765625L74.64288330078125,94.21436259765625L84.46431330078124,94.21436259765625L84.46431330078124,54.70416259765625L74.64288330078125,54.70416259765625Z" fill="#397492" fill-opacity="1"/></g><g><path d="M50.08929443359375,65.9347349609375L50.22960043359375,66.1376349609375L50.51021243359375,66.3406349609375L50.93113143359375,66.5435349609375L51.492354433593746,66.6450349609375L52.19388443359375,66.8480349609375L53.03572443359375,66.9495349609375L53.87755443359375,67.0510349609375L54.85970443359375,67.0510349609375L55.98215443359375,67.0510349609375L56.82398443359375,66.9495349609375L57.66582443359375,66.8480349609375L58.507664433593746,66.6450349609375L59.06888443359375,66.5435349609375L59.48980443359375,66.3406349609375L59.77041443359375,66.1376349609375L59.91072443359375,65.9347349609375L59.91072443359375,37.4183349609375L50.08929443359375,37.4183349609375L50.08929443359375,65.9347349609375Z" fill="#0F263D" fill-opacity="1"/></g><g><g><path d="M65,37L45,37L45,58L65,58L65,37Z" fill="#397492" fill-opacity="1"/></g><g><ellipse cx="54.99997138977051" cy="34.75510215759277" rx="19.642854690551758" ry="19.755102157592773" fill="#002A55" fill-opacity="1"/></g><g><ellipse cx="55.00002479553223" cy="34.755109786987305" rx="14.732141494750977" ry="14.816328048706055" fill="#5B95B2" fill-opacity="1"/></g><g><path d="M64.8214888671875,27.346923828125L45.1785888671875,27.346923828125L45.1785888671875,34.755083828125L64.8214888671875,34.755083828125L64.8214888671875,27.346923828125Z" fill="#64D98F" fill-opacity="1"/></g><g><path d="M50.0892988671875,37.2244873046875L45.1785888671875,37.2244873046875L45.1785888671875,42.1632673046875L50.0892988671875,42.1632673046875L50.0892988671875,37.2244873046875Z" fill="#64D98F" fill-opacity="1"/></g><g><path d="M64.82141556640624,37.2244873046875L59.91070556640625,37.2244873046875L59.91070556640625,42.1632673046875L64.82141556640624,42.1632673046875L64.82141556640624,37.2244873046875Z" fill="#64D98F" fill-opacity="1"/></g><g><path d="M57.45532669921875,37.2244873046875L52.54461669921875,37.2244873046875L52.54461669921875,42.1632673046875L57.45532669921875,42.1632673046875L57.45532669921875,37.2244873046875Z" fill="#64D98F" fill-opacity="1"/></g></g><g><path d="M62,58L48,58L48,62L62,62L62,58Z" fill="#397492" fill-opacity="1"/></g></g></g></svg>