<svg xmlns="http://www.w3.org/2000/svg" xmlns:xlink="http://www.w3.org/1999/xlink" fill="none" version="1.1" width="110" height="110" viewBox="0 0 110 110"><defs><clipPath id="master_svg0_1460_00548"><rect x="110" y="0" width="110" height="110" rx="0"/></clipPath><clipPath id="master_svg1_1460_00550"><rect x="207" y="15" width="84" height="80" rx="0"/></clipPath></defs><g transform="matrix(-1,0,0,1,220,0)" clip-path="url(#master_svg0_1460_00548)"><g transform="matrix(-1,0,0,1,414,0)" clip-path="url(#master_svg1_1460_00550)"><g><path d="M215.91286908203125,20.58914439453125L209.35430908203125,17.33575439453125L209.35430908203125,89.41085439453126L215.91286908203125,92.66425439453126L215.91286908203125,20.58914439453125Z" fill="#629DBB" fill-opacity="1"/></g><g><path d="M215.91286908203125,20.58914439453125L209.35430908203125,17.33575439453125L282.00300908203127,17.33575439453125L288.56150908203125,20.58914439453125L215.91286908203125,20.58914439453125Z" fill="#94C7E1" fill-opacity="1"/></g><g><path d="M288.56160283203127,20.58917236328125L215.91290283203125,20.58917236328125L215.91290283203125,92.66427236328126L288.56160283203127,92.66427236328126L288.56160283203127,20.58917236328125Z" fill="#397492" fill-opacity="1"/></g><g></g><g><path d="M222.0555419921875,89.910829296875L222.0555419921875,23.342529296875L285.7822419921875,23.342529296875L285.7822419921875,89.910829296875L222.0555419921875,89.910829296875ZM284.7822419921875,24.342529296875L223.0555419921875,24.342529296875L223.0555419921875,88.910829296875L284.7822419921875,88.910829296875L284.7822419921875,24.342529296875Z" fill-rule="evenodd" fill="#1F475F" fill-opacity="1"/></g><g><path d="M220.87382345703125,27.17938232421875L217.59454345703125,27.17938232421875L217.59454345703125,32.10117232421875L220.87382345703125,32.10117232421875L220.87382345703125,27.17938232421875Z" fill="#1F475F" fill-opacity="1"/></g><g><path d="M220.87382345703125,41L217.59454345703125,41L217.59454345703125,45.92179L220.87382345703125,45.92179L220.87382345703125,41Z" fill="#1F475F" fill-opacity="1"/></g><g><path d="M220.87382345703125,54.958251953125L217.59454345703125,54.958251953125L217.59454345703125,59.880041953125L220.87382345703125,59.880041953125L220.87382345703125,54.958251953125Z" fill="#1F475F" fill-opacity="1"/></g><g><path d="M220.87382345703125,68.05523681640625L217.59454345703125,68.05523681640625L217.59454345703125,72.97702681640625L220.87382345703125,72.97702681640625L220.87382345703125,68.05523681640625Z" fill="#1F475F" fill-opacity="1"/></g><g><path d="M220.87382345703125,81.1522216796875L217.59454345703125,81.1522216796875L217.59454345703125,86.0740116796875L220.87382345703125,86.0740116796875L220.87382345703125,81.1522216796875Z" fill="#1F475F" fill-opacity="1"/></g><g><path d="M247,50L235,50L235,54L247,54L247,50Z" fill="#1F475F" fill-opacity="1"/></g><g><path d="M247,44L235,44L235,48L247,48L247,44Z" fill="#1F475F" fill-opacity="1"/></g><g><g><ellipse cx="277.9669660329819" cy="75.5631023645401" rx="1.4294294118881226" ry="1.41814386844635" fill="#64D98F" fill-opacity="1"/></g><g><ellipse cx="277.9669660329819" cy="81.40251886844635" rx="1.4294294118881226" ry="1.41814386844635" fill="#64D98F" fill-opacity="1"/></g><g><ellipse cx="277.9669660329819" cy="69.80705988407135" rx="1.4294294118881226" ry="1.41814386844635" fill="#64D98F" fill-opacity="1"/></g><g><ellipse cx="270.9880231618881" cy="62.1324383020401" rx="1.4294294118881226" ry="1.41814386844635" fill="#64D98F" fill-opacity="1"/></g><g><ellipse cx="264.4294294118881" cy="75.5631023645401" rx="1.4294294118881226" ry="1.41814386844635" fill="#64D98F" fill-opacity="1"/></g><g><ellipse cx="264.4294294118881" cy="81.40251886844635" rx="1.4294294118881226" ry="1.41814386844635" fill="#64D98F" fill-opacity="1"/></g><g><ellipse cx="264.4294294118881" cy="69.80705988407135" rx="1.4294294118881226" ry="1.41814386844635" fill="#64D98F" fill-opacity="1"/></g></g><g><path d="M259,44L249,44L249,54L259,54L259,44Z" fill="#1F475F" fill-opacity="1"/></g><g><ellipse cx="254" cy="49" rx="3" ry="3" fill="#64D98F" fill-opacity="1"/></g></g></g></svg>