<svg xmlns="http://www.w3.org/2000/svg" xmlns:xlink="http://www.w3.org/1999/xlink" fill="none" version="1.1" width="110" height="110" viewBox="0 0 110 110"><defs><clipPath id="master_svg0_1460_00214"><rect x="0" y="0" width="110" height="110" rx="0"/></clipPath><clipPath id="master_svg1_1460_00216"><rect x="9" y="25" width="92" height="60" rx="0"/></clipPath></defs><g clip-path="url(#master_svg0_1460_00214)"><g clip-path="url(#master_svg1_1460_00216)"><g><path d="M28.289215087890625,75.05609130859375L36.46835508789063,75.05609130859375L36.46835508789063,83.14598130859375L28.289215087890625,83.14598130859375L28.289215087890625,75.05609130859375Z" fill="#0F263D" fill-opacity="1"/></g><g><path d="M25.256103515625,81.1571044921875L39.535503515625,81.1571044921875L39.535503515625,84.0559844921875L25.256103515625,84.0559844921875L25.256103515625,81.1571044921875Z" fill="#3B7A9A" fill-opacity="1"/></g><g><path d="M76.682373046875,75.05609130859375L84.861513046875,75.05609130859375L84.861513046875,83.14598130859375L76.682373046875,83.14598130859375L76.682373046875,75.05609130859375Z" fill="#0F263D" fill-opacity="1"/></g><g><path d="M73.64926147460938,81.1571044921875L87.92866147460937,81.1571044921875L87.92866147460937,84.0559844921875L73.64926147460938,84.0559844921875L73.64926147460938,81.1571044921875Z" fill="#3B7A9A" fill-opacity="1"/></g><g><path d="M13.430419921875,82.9774169921875L101.015319921875,82.9774169921875L101.015319921875,84.9998869921875L13.430419921875,84.9998869921875L13.430419921875,82.9774169921875Z" fill="#5B95B2" fill-opacity="1"/></g><g><path d="M27.266693115234375,47.685584960937504L27.266693115234375,42.1237849609375C27.266693115234375,33.4945249609375,34.389363115234374,26.4495849609375,43.11379311523437,26.4495849609375L72.59279311523437,26.4495849609375L72.59279311523437,36.4944849609375L43.07969311523438,36.4944849609375C39.94439311523438,36.4944849609375,37.38839311523438,39.0225849609375,37.38839311523438,42.1237849609375L37.38839311523438,47.685584960937504L27.266693115234375,47.685584960937504Z" fill="#5B95B2" fill-opacity="1"/></g><g><path d="M37.42253739257812,42.12344072265625C37.42253739257812,39.02230072265625,39.97851739257813,36.49421072265625,43.113877392578125,36.49421072265625L72.59287739257812,36.49421072265625L72.59287739257812,31.47174072265625L43.07977739257812,31.47174072265625C37.149897392578126,31.47174072265625,32.310577392578125,36.22455072265625,32.310577392578125,42.12344072265625L32.310577392578125,47.685240722656246L37.388457392578125,47.685240722656246L37.388457392578125,42.12344072265625L37.42253739257812,42.12344072265625Z" fill="#3B7A9A" fill-opacity="1"/></g><g><path d="M28.561776015625,42.1237849609375C28.561776015625,34.2023949609375,35.071006015625,27.764194960937502,43.079766015625,27.764194960937502L72.558766015625,27.764194960937502L72.558766015625,26.4495849609375L43.079766015625,26.4495849609375C34.355336015625,26.4495849609375,27.232666015625,33.4945249609375,27.232666015625,42.1237849609375L27.232666015625,47.685584960937504L28.527696015625,47.685584960937504L28.527696015625,42.1237849609375L28.561776015625,42.1237849609375Z" fill="#5B95B2" fill-opacity="1"/></g><g><path d="M37.42243275390625,42.12348890625C37.42243275390625,39.02236890625,39.97841275390625,36.49427890625,43.11375275390625,36.49427890625L72.59272275390626,36.49427890625L72.59272275390626,35.21337890625L43.07967275390625,35.21337890625C39.22866275390625,35.21337890625,36.09332275390625,38.31449890625,36.09332275390625,42.12348890625L36.09332275390625,47.68527890625L37.38835275390625,47.68527890625L37.38835275390625,42.12348890625L37.42243275390625,42.12348890625Z" fill="#326985" fill-opacity="1"/></g><g><path d="M73.9559942578125,36.6629L73.9559942578125,26.34831C73.9559942578125,25.606742,73.3425542578125,25,72.5928042578125,25C71.8430522578125,25,71.2296142578125,25.606742,71.2296142578125,26.34831L71.2296142578125,36.6629C71.2296142578125,37.4045,71.8430522578125,38.0112,72.5928042578125,38.0112C73.3766342578125,38.0112,73.9559942578125,37.4045,73.9559942578125,36.6629Z" fill="#5B95B2" fill-opacity="1"/></g><g><path d="M71.263671875,26.34831L71.263671875,36.6629C71.263671875,37.4045,71.877109875,38.0112,72.626861875,38.0112L72.626861875,25C71.877109875,25,71.263671875,25.606742,71.263671875,26.34831Z" fill="#326985" fill-opacity="1"/></g><g><path d="M99.51585888671875,54.865291601562504L99.51585888671875,68.6854916015625C99.51585888671875,68.7866916015625,99.51585888671875,68.8877916015625,99.48185888671875,68.9888916015625L99.48185888671875,69.1573916015625C99.48185888671875,69.2248916015625,99.48185888671875,69.2585916015625,99.44775888671876,69.32599160156249L99.44775888671876,69.4270916015625C99.44775888671876,69.5281916015625,99.41365888671875,69.6292916015625,99.37955888671874,69.6967916015625C99.37955888671874,69.7641916015625,99.34545888671875,69.83159160156251,99.34545888671875,69.8652916015625C99.34545888671875,69.8989916015625,99.31145888671875,69.96639160156249,99.31145888671875,70.0000916015625C99.27735888671876,70.0675916015625,99.27735888671876,70.1686916015625,99.24325888671875,70.23609160156249C99.20915888671874,70.3034916015625,99.20915888671874,70.3708916015625,99.17505888671874,70.4045916015625C99.17505888671874,70.4720916015625,99.14105888671875,70.50579160156249,99.14105888671875,70.5394916015625C99.14105888671875,70.6068916015625,99.10695888671876,70.6405916015625,99.07285888671875,70.6742916015625L99.07285888671875,70.7079916015625C99.07285888671875,70.74169160156251,99.07285888671875,70.74169160156251,99.03875888671875,70.7753916015625C99.00465888671874,70.87649160156249,98.97065888671875,70.9439916015625,98.93655888671876,71.0450916015625C98.93655888671876,71.0787916015625,98.90245888671875,71.0787916015625,98.90245888671875,71.1124916015625C98.86835888671875,71.14619160156249,98.86835888671875,71.2135916015625,98.83425888671874,71.2472916015625L98.62985888671875,71.65179160156251C98.56165888671876,71.7866916015625,98.45945888671875,71.92149160156251,98.35715888671875,72.05629160156249C98.28905888671875,72.1236916015625,98.25495888671875,72.2248916015625,98.18675888671875,72.2922916015625Q98.18675888671875,72.32599160156249,98.15265888671874,72.32599160156249C98.05045888671876,72.4607916015625,97.91415888671875,72.6293916015625,97.81185888671875,72.7304916015625L97.77785888671875,72.7641916015625C97.70965888671876,72.83159160156251,97.64145888671875,72.9326916015625,97.53925888671876,73.0000916015625L97.23255888671875,73.3034916015625C97.19845888671875,73.3371916015625,97.16435888671876,73.3708916015625,97.09625888671874,73.4045916015625Q97.09625888671874,73.4382916015625,97.06215888671875,73.4382916015625Q97.02805888671875,73.4382916015625,97.02805888671875,73.4720916015625C96.99395888671876,73.50579160156249,96.92585888671874,73.5394916015625,96.89175888671875,73.5731916015625C96.85765888671875,73.6068916015625,96.82355888671876,73.6405916015625,96.78945888671875,73.6405916015625C96.72135888671875,73.7079916015625,96.65315888671876,73.74169160156251,96.58505888671874,73.8090916015625Q96.55095888671875,73.8090916015625,96.55095888671875,73.8427916015625C96.48275888671876,73.9102916015625,96.38055888671875,73.9439916015625,96.31235888671876,74.01139160156251C96.27825888671876,74.0450916015625,96.21015888671874,74.0787916015625,96.17605888671875,74.0787916015625L96.03975888671874,74.14619160156249C95.97155888671875,74.1798916015625,95.93745888671876,74.2135916015625,95.86935888671874,74.2135916015625C95.80115888671875,74.2472916015625,95.69895888671874,74.2809916015625,95.63075888671875,74.3484916015625L95.59665888671876,74.3484916015625L95.39225888671875,74.4495916015625C95.35815888671874,74.4495916015625,95.35815888671874,74.4832916015625,95.32405888671875,74.4832916015625L95.28995888671875,74.4832916015625C95.25595888671876,74.4832916015625,95.22185888671875,74.5169916015625,95.15365888671874,74.5506916015625L95.11955888671875,74.5506916015625C95.05145888671875,74.5843916015625,94.98325888671874,74.5843916015625,94.91505888671875,74.6180916015625C94.77875888671875,74.65179160156251,94.67655888671875,74.6854916015625,94.54025888671876,74.7191916015625C94.47205888671874,74.7191916015625,94.40395888671875,74.7528916015625,94.36985888671876,74.7528916015625L94.30165888671874,74.7528916015625C94.26755888671875,74.7528916015625,94.23355888671875,74.7528916015625,94.19945888671876,74.7866916015625C94.16535888671875,74.7866916015625,94.13125888671874,74.7866916015625,94.09715888671874,74.8203916015625C94.02905888671876,74.8203916015625,93.99495888671875,74.8540916015625,93.92675888671874,74.8540916015625C93.89265888671875,74.8540916015625,93.85865888671876,74.8540916015625,93.82455888671875,74.8877916015625L93.79045888671875,74.8877916015625C93.75635888671874,74.8877916015625,93.68825888671876,74.8877916015625,93.65415888671875,74.92149160156251L93.34745888671875,74.92149160156251C93.24525888671874,74.92149160156251,93.14295888671876,74.92149160156251,93.07485888671874,74.9551916015625L55.24629888671875,74.9551916015625C53.542318886718746,74.9551916015625,51.94056888671875,74.3146916015625,50.74777888671875,73.2697916015625C50.20249888671875,72.7978916015625,49.72538888671875,72.2248916015625,49.35050888671875,71.5843916015625C49.04378988671875,71.0787916015625,48.80523488671875,70.5056916015625,48.63483588671875,69.8989916015625C48.49851548671875,69.3596916015625,48.43035888671875,68.7866916015625,48.43035888671875,68.2135916015625L48.43035888671875,54.3933816015625C48.43035888671875,54.2922616015625,48.43035888671875,54.1911316015625,48.46443718671875,54.0900116015625L48.46443718671875,53.9888916015625C48.46443718671875,53.9214716015625,48.49851548671875,53.8203516015625,48.49851548671875,53.7192316015625L48.49851548671875,53.6518116015625C48.49851548671875,53.5506916015625,48.53259388671875,53.4495616015625,48.56667588671875,53.3821516015625C48.60075388671875,53.3147316015625,48.60075388671875,53.2136116015625,48.63483588671875,53.1461916015625C48.63483588671875,53.112491601562496,48.63483588671875,53.0787816015625,48.66891388671875,53.0450716015625C48.70299288671875,52.9776516015625,48.70299288671875,52.8765316015625,48.73707488671875,52.8091116015625C48.77115288671875,52.7417016015625,48.77115288671875,52.6742816015625,48.80523488671875,52.6405816015625C48.80523488671875,52.573161601562504,48.83931288671875,52.5394516015625,48.83931288671875,52.5057416015625C48.83931288671875,52.4720416015625,48.87339088671875,52.404621601562496,48.90747288671875,52.3709116015625C48.97563288671875,52.2360816015625,49.00971188671875,52.067541601562496,49.077871886718754,51.9327116015625C49.077871886718754,51.8990016015625,49.11194988671875,51.8315916015625,49.14603188671875,51.7978816015625L49.35050888671875,51.3933916015625C49.41866888671875,51.2585516015625,49.48682888671875,51.1237216015625,49.58906888671875,51.0226016015625C49.72538888671875,50.8203516015625,49.86170888671875,50.6518116015625,49.99802888671875,50.4832716015625C50.06618888671875,50.4158616015625,50.13434888671875,50.3147316015625,50.20249888671875,50.2473216015625C50.27065888671875,50.1799016015625,50.33881888671875,50.0787816015625,50.44105888671875,50.0113616015625L50.74777888671875,49.7079916015625C50.78185888671875,49.6742816015625,50.85001888671875,49.6068716015625,50.91817888671875,49.573161601562504C51.08857888671875,49.404621601562496,51.29305888671875,49.2697916015625,51.49753888671875,49.1349616015625C51.56569888671875,49.1012516015625,51.63385888671875,49.0338416015625,51.70200888671875,49.0001316015625C51.80424888671875,48.9327126015625,51.90648888671875,48.8990066015625,52.00872888671875,48.8315896015625C52.04280888671875,48.7978816015625,52.11096888671875,48.7978816015625,52.14504888671875,48.7641736015625C52.213208886718746,48.7304656015625,52.31544888671875,48.6967566015625,52.38360888671875,48.6293426015625C52.51992888671875,48.5619256015625,52.69032888671875,48.4945116015625,52.860728886718746,48.4270946015625C52.96296888671875,48.3933866015625,53.03112888671875,48.3596786015625,53.13336888671875,48.3259716015625C53.16744888671875,48.3259716015625,53.16744888671875,48.3259716015625,53.20152888671875,48.2922636015625L53.50824888671875,48.1911406015625C53.542318886718746,48.1911406015625,53.57640888671875,48.1574326015625,53.61048888671875,48.1574326015625C53.74680888671875,48.1237246015625,53.84903888671875,48.0900166015625,53.98535888671875,48.0900166015625L54.08759888671875,48.0900166015625C54.189838886718746,48.0563080015625,54.29207888671875,48.0563080015625,54.39431888671875,48.0563080015625L54.49655888671875,48.0563080015625C54.598798886718754,48.0563080015625,54.70102888671875,48.0225998015625,54.80327888671875,48.0225998015625C54.97366888671875,48.0225998015625,55.14406888671875,47.9888916015625,55.31446888671875,47.9888916015625L92.80215888671876,47.9888916015625C93.10885888671875,47.9888916015625,93.41565888671875,48.0225998015625,93.68825888671876,48.0563080015625C93.75645888671875,48.0563080015625,93.79045888671875,48.0563080015625,93.85865888671876,48.0900166015625C94.06315888671875,48.1237246015625,94.26765888671875,48.1574326015625,94.47205888671874,48.2248476015625C94.50615888671875,48.2248476015625,94.54025888671876,48.2585556015625,94.57435888671876,48.2585556015625L94.88105888671875,48.3596786015625C94.91515888671876,48.3596786015625,94.91515888671876,48.3596786015625,94.94925888671875,48.3933866015625C95.05145888671875,48.4270946015625,95.11965888671875,48.4608026015625,95.22185888671875,48.4945096015625C95.39225888671875,48.5619256015625,95.52855888671874,48.6293406015625,95.69895888671874,48.6967566015625C95.76715888671875,48.7304656015625,95.86935888671874,48.7641736015625,95.93755888671875,48.8315876015625L96.14195888671875,48.9327106015625L96.34645888671875,49.0338316015625C96.44875888671875,49.1012516015625,96.51685888671875,49.1349516015625,96.61915888671875,49.2023716015625C96.72135888671875,49.2697916015625,96.78955888671875,49.3372016015625,96.89175888671875,49.404621601562496C96.99395888671876,49.4720416015625,97.06215888671875,49.5394516015625,97.16445888671875,49.6068716015625C97.23255888671875,49.6405716015625,97.26665888671874,49.6742816015625,97.30075888671874,49.7417016015625L97.60745888671875,50.0450716015625L97.84595888671875,50.2810216015625L97.88005888671876,50.3147316015625C98.01635888671875,50.4495616015625,98.15275888671874,50.6181016015625,98.25495888671875,50.7866416015625C98.35715888671875,50.9214716015625,98.45945888671875,51.0563016015625,98.52755888671875,51.1911416015625C98.59575888671876,51.2585516015625,98.62985888671875,51.3596816015625,98.69795888671875,51.4608016015625L98.90245888671875,51.8652916015625C98.93655888671876,51.8990016015625,98.93655888671876,51.9327116015625,98.97065888671875,52.0001216015625C99.03875888671875,52.1349616015625,99.10695888671876,52.2697916015625,99.14105888671875,52.4383316015625C99.17515888671875,52.5057416015625,99.17515888671875,52.5394516015625,99.20915888671874,52.573161601562504C99.24325888671875,52.6405716015625,99.24325888671875,52.6742816015625,99.24325888671875,52.7079916015625C99.27735888671876,52.7754016015625,99.27735888671876,52.8091116015625,99.31145888671875,52.8765316015625C99.34545888671875,52.9439416015625,99.34555888671875,53.0450716015625,99.37955888671874,53.1124816015625C99.37955888671874,53.1461916015625,99.37955888671874,53.1799016015625,99.41365888671875,53.2136116015625C99.44775888671876,53.2810216015625,99.44775888671876,53.3821516015625,99.48185888671875,53.4495616015625L99.48185888671875,53.5169816015625C99.48185888671875,53.5843916015625,99.51595888671875,53.6855216015625,99.51595888671875,53.7529316015625L99.51595888671875,53.8203516015625C99.51595888671875,53.8877716015625,99.54995888671874,53.9888916015625,99.54995888671874,54.0900116015625L99.54995888671874,54.1911316015625C99.54995888671874,54.2922616015625,99.58405888671875,54.3933816015625,99.58405888671875,54.4945116015625C99.48185888671875,54.6293416015625,99.51595888671875,54.7304616015625,99.51585888671875,54.865291601562504L99.51585888671875,54.865291601562504Z" fill="#5B95B2" fill-opacity="1"/></g><g><path d="M99.51585888671875,66.6627901015625L99.51585888671875,68.6852641015625C99.51585888671875,68.7863841015625,99.51585888671875,68.8875041015625,99.48185888671875,68.9886341015625L99.48185888671875,69.1571741015625C99.48185888671875,69.2245941015625,99.48185888671875,69.2582941015625,99.44775888671876,69.3257141015625L99.44775888671876,69.4268341015625C99.44775888671876,69.5279541015625,99.41365888671875,69.6290841015625,99.37955888671874,69.69649410156251C99.37955888671874,69.7639141015625,99.34545888671875,69.8313341015625,99.34545888671875,69.8650341015625C99.34545888671875,69.8987441015625,99.31145888671875,69.9661641015625,99.31145888671875,69.9998741015625C99.27735888671876,70.0672841015625,99.27735888671876,70.1684041015625,99.24325888671875,70.2358241015625C99.20915888671874,70.3032441015625,99.20915888671874,70.3706541015625,99.17505888671874,70.40436410156249C99.17505888671874,70.4717841015625,99.14105888671875,70.5054841015625,99.14105888671875,70.5391941015625C99.14105888671875,70.6066141015625,99.10695888671876,70.6403241015625,99.07285888671875,70.6740341015625L99.07285888671875,70.7077341015625C99.07285888671875,70.74144410156251,99.07285888671875,70.74144410156251,99.03875888671875,70.7751541015625C99.00465888671874,70.8762741015625,98.97065888671875,70.9436941015625,98.93655888671876,71.0448141015625C98.93655888671876,71.0785241015625,98.90245888671875,71.0785241015625,98.90245888671875,71.1122341015625C98.86835888671875,71.1459341015625,98.86835888671875,71.2133541015625,98.83425888671874,71.2470641015625L98.62985888671875,71.6515541015625C98.56165888671876,71.78639410156251,98.45945888671875,71.9212241015625,98.35715888671875,72.0560541015625C98.28905888671875,72.1234741015625,98.25495888671875,72.2245941015625,98.18675888671875,72.2920141015625Q98.18675888671875,72.3257141015625,98.15265888671874,72.3257141015625C98.05045888671876,72.4605541015625,97.91415888671875,72.6290841015625,97.81185888671875,72.7302141015625L97.77785888671875,72.7639141015625C97.70965888671876,72.8313341015625,97.64145888671875,72.9324541015625,97.53925888671876,72.9998741015625L97.23255888671875,73.3032441015625C97.19845888671875,73.3369541015625,97.16435888671876,73.3706641015625,97.09625888671874,73.40436410156249Q97.09625888671874,73.4380741015625,97.06215888671875,73.4380741015625Q97.02805888671875,73.4380741015625,97.02805888671875,73.4717841015625C96.99395888671876,73.5054841015625,96.92585888671874,73.5391941015625,96.89175888671875,73.5729041015625C96.85765888671875,73.6066141015625,96.82355888671876,73.6403241015625,96.78945888671875,73.6403241015625C96.72135888671875,73.7077341015625,96.65315888671876,73.74144410156251,96.58505888671874,73.8088641015625Q96.55095888671875,73.8088641015625,96.55095888671875,73.8425641015625C96.48275888671876,73.9099841015625,96.38055888671875,73.9436941015625,96.31235888671876,74.0111041015625C96.27825888671876,74.0448141015625,96.21015888671874,74.0785241015625,96.17605888671875,74.0785241015625L96.03975888671874,74.1459341015625C95.97155888671875,74.1796441015625,95.93745888671876,74.2133541015625,95.86935888671874,74.2133541015625C95.80115888671875,74.2470641015625,95.69895888671874,74.2807741015625,95.63075888671875,74.3481841015625L95.59665888671876,74.3481841015625L95.39225888671875,74.44931410156249C95.35815888671874,74.44931410156249,95.35815888671874,74.4830141015625,95.32405888671875,74.4830141015625L95.28995888671875,74.4830141015625C95.25595888671876,74.4830141015625,95.22185888671875,74.5167241015625,95.15365888671874,74.5504341015625L95.11955888671875,74.5504341015625C95.05145888671875,74.5841441015625,94.98325888671874,74.5841441015625,94.91505888671875,74.6178541015625C94.77875888671875,74.6515541015625,94.67655888671875,74.6852641015625,94.54025888671876,74.7189741015625C94.47205888671874,74.7189741015625,94.40395888671875,74.7526741015625,94.36985888671876,74.7526741015625L94.30165888671874,74.7526741015625C94.26755888671875,74.7526741015625,94.23355888671875,74.7526741015625,94.19945888671876,74.7863841015625C94.16535888671875,74.7863841015625,94.13125888671874,74.7863841015625,94.09715888671874,74.8200941015625C94.02905888671876,74.8200941015625,93.99495888671875,74.8537941015625,93.92675888671874,74.8537941015625C93.89265888671875,74.8537941015625,93.85865888671876,74.8537941015625,93.82455888671875,74.8875041015625L93.79045888671875,74.8875041015625C93.75635888671874,74.8875041015625,93.68825888671876,74.8875041015625,93.65415888671875,74.9212141015625L93.34745888671875,74.9212141015625C93.24525888671874,74.9212141015625,93.14295888671876,74.9212141015625,93.07485888671874,74.9549141015625L55.24629888671875,74.9549141015625C53.542318886718746,74.9549141015625,51.94056888671875,74.31446410156249,50.74777888671875,73.2695241015625C50.20249888671875,72.7976141015625,49.72538888671875,72.2245841015625,49.35050888671875,71.5841341015625C49.04378988671875,71.0785141015625,48.80523488671875,70.5054841015625,48.63483588671875,69.8987441015625C48.49851548671875,69.35941410156249,48.43035888671875,68.7863841015625,48.43035888671875,68.2133441015625L48.43035888671875,66.5279541015625L99.51585888671875,66.5279541015625L99.51585888671875,66.6627901015625Z" fill="#3B7A9A" fill-opacity="1"/></g><g><path d="M99.48170708984375,54.49436712890625L99.48170708984375,54.83144712890625L99.27723008984375,53.14605712890625C99.27723008984375,53.17976532890625,99.27723008984375,53.21347352890625,99.31131108984376,53.24718012890625C99.34539308984375,53.31459612890625,99.34539308984375,53.41571912890625,99.37946808984375,53.48313612890625C99.41355008984375,53.58425812890625,99.41355008984375,53.68538312890625,99.44762508984375,53.75279812890625L99.44762508984375,53.82021412890625C99.44762508984375,53.88763112890625,99.48170708984375,53.98875312890625,99.48170708984375,54.08987612890625L99.48170708984375,54.49436712890625ZM99.27723008984375,70.03365712890624C99.24314808984376,70.10115712890625,99.24314808984376,70.20225712890625,99.20907308984376,70.26965712890625C99.17499108984374,70.33705712890625,99.17499108984374,70.40445712890624,99.14091608984376,70.43815712890625C99.14091608984376,70.50565712890625,99.10683408984374,70.53935712890625,99.10683408984374,70.57305712890624C99.10683408984374,70.64045712890625,99.07275308984374,70.67415712890624,99.03867808984376,70.70785712890626L99.03867808984376,70.74155712890625C99.03867808984376,70.77525712890625,99.03867808984376,70.77525712890625,99.00459608984374,70.80895712890626C98.97051408984375,70.91005712890625,98.93643908984374,70.97755712890626,98.90235708984375,71.07865712890626C98.90235708984375,71.11235712890625,98.86827608984375,71.11235712890625,98.86827608984375,71.14605712890625C98.83419408984375,71.17975712890625,98.83419408984375,71.24715712890625,98.80011908984375,71.28085712890625L98.59564208984375,71.68535712890625L99.27723008984375,70.03365712890624Z" fill="#19A1DD" fill-opacity="1"/></g><g><path d="M87.24704868164062,73.40459490234375L87.24704868164062,75.08999490234375L54.360108681640625,75.08999490234375C52.860598681640624,75.08999490234375,51.463328681640625,74.44954490234375,50.40685868164063,73.40459490234375L87.24704868164062,73.40459490234375ZM87.24704868164062,70.03380490234375L87.24704868164062,71.71920490234375L49.179981681640626,71.71920490234375C48.90734468164062,71.21358490234375,48.70286468164063,70.64055490234375,48.56654768164063,70.03380490234375L87.24704868164062,70.03380490234375ZM48.396148681640625,66.66302490234375L87.24704868164062,66.66302490234375L87.24704868164062,68.34841490234375L48.396148681640625,68.34841490234375L48.396148681640625,66.66302490234375Z" fill="#7AB4D1" fill-opacity="1"/></g><g><path d="M48.396148681640625,63.2922291796875L87.24704868164062,63.2922291796875L87.24704868164062,64.9776291796875L48.396148681640625,64.9776291796875L48.396148681640625,63.2922291796875ZM48.396148681640625,59.9214491796875L87.24704868164062,59.9214491796875L87.24704868164062,61.6068391796875L48.396148681640625,61.6068391796875L48.396148681640625,59.9214491796875ZM48.396148681640625,56.5506591796875L87.24704868164062,56.5506591796875L87.24704868164062,58.2360491796875L48.396148681640625,58.2360491796875L48.396148681640625,56.5506591796875Z" fill="#9AD1EC" fill-opacity="1"/></g><g><path d="M87.24704868164062,53.179627890625L87.24704868164062,54.865017890625L48.396148681640625,54.865017890625L48.56654768164063,53.179627890625L87.24704868164062,53.179627890625ZM50.40685868164063,49.808837890625L87.21294868164063,49.808837890625L87.21294868164063,51.494227890625L49.179981681640626,51.494227890625C49.24814268164062,51.359397890625,49.31630268164062,51.224567890624996,49.38445868164062,51.123447890625C49.486698681640625,50.921197890625,49.62301868164062,50.752656890625,49.725258681640625,50.584117890625C49.793418681640624,50.516701890625,49.86157868164062,50.415578890625,49.929728681640626,50.348161890625C49.997888681640624,50.280745890625,50.06605868164063,50.179622890625,50.13420868164062,50.112206890625C50.236448681640624,49.977374890625,50.338688681640626,49.909958890625,50.40685868164063,49.808837890625Z" fill="#9AD1EC" fill-opacity="1"/></g><g><path d="M88.2695114453125,47.51694345703125L88.2695114453125,75.35959345703125C88.2695114453125,75.96639345703124,87.8264814453125,76.43829345703125,87.2471214453125,76.43829345703125C86.6677674453125,76.43829345703125,86.2247314453125,75.96639345703124,86.2247314453125,75.35959345703125L86.2247314453125,47.51694345703125C86.2247314453125,46.91020445703125,86.6677674453125,46.43829345703125,87.2471214453125,46.43829345703125C87.5197614453125,46.43829345703125,87.7924014453125,46.57312445703125,87.9628014453125,46.74166345703125C88.1332014453125,46.94391145703125,88.2695114453125,47.21357345703125,88.2695114453125,47.51694345703125Z" fill="#0F263D" fill-opacity="1"/></g><g><path d="M88.26939927734375,47.51694345703125L88.26939927734375,75.35959345703125C88.26939927734375,75.96639345703124,87.82636527734375,76.43829345703125,87.24700927734375,76.43829345703125L87.24700927734375,46.43829345703125C87.51965027734374,46.43829345703125,87.79228327734376,46.57312445703125,87.96268627734375,46.74166345703125C88.13308827734375,46.94391145703125,88.26939927734375,47.21357345703125,88.26939927734375,47.51694345703125Z" fill="#30596E" fill-opacity="1"/></g><g><path d="M54.87134860351563,45.6291480078125L54.87134860351563,77.2134580078125C54.87134860351563,77.8875580078125,54.42831860351563,78.4605580078125,53.84895860351563,78.4605580078125C53.269604603515624,78.4605580078125,52.826568603515625,77.9212580078125,52.826568603515625,77.2134580078125L52.826568603515625,45.6291480078125C52.826568603515625,44.9549920078125,53.269604603515624,44.3819580078125,53.84895860351563,44.3819580078125C54.12159860351562,44.3819580078125,54.394238603515625,44.5167890078125,54.564638603515625,44.7527450078125C54.73502860351562,44.9887000078125,54.87134860351563,45.2920710078125,54.87134860351563,45.6291480078125Z" fill="#0F263D" fill-opacity="1"/></g><g><path d="M54.871266953125,45.62906837890625L54.871266953125,77.21328837890624C54.871266953125,77.88748837890626,54.428232953125,78.46048837890625,53.848876953125,78.46048837890625L53.848876953125,44.41558837890625C54.121513953125,44.41558837890625,54.394150953125,44.55041937890625,54.564549953125,44.78637537890625C54.734948953125,44.98862237890625,54.871266953125,45.29199337890625,54.871266953125,45.62906837890625Z" fill="#30596E" fill-opacity="1"/></g><g><path d="M52.82651828125,45.6291480078125L52.82651828125,77.2134580078125C52.82651828125,77.8875580078125,52.38348828125,78.4605580078125,51.80412828125,78.4605580078125C51.22477428125,78.4605580078125,50.78173828125,77.9212580078125,50.78173828125,77.2134580078125L50.78173828125,45.6291480078125C50.78173828125,44.9549920078125,51.22477428125,44.3819580078125,51.80412828125,44.3819580078125C52.07676828125,44.3819580078125,52.34940828125,44.5167890078125,52.51980828125,44.7527450078125C52.69019828125,44.9887000078125,52.82651828125,45.2920710078125,52.82651828125,45.6291480078125Z" fill="#0F263D" fill-opacity="1"/></g><g><path d="M52.82665025390625,45.62906837890625L52.82665025390625,77.21328837890624C52.82665025390625,77.88748837890626,52.38361625390625,78.46048837890625,51.80426025390625,78.46048837890625L51.80426025390625,44.41558837890625C52.07689725390625,44.41558837890625,52.34953425390625,44.55041937890625,52.51993325390625,44.78637537890625C52.69033225390625,44.98862237890625,52.82665025390625,45.29199337890625,52.82665025390625,45.62906837890625Z" fill="#30596E" fill-opacity="1"/></g><g><path d="M99.51581861328125,54.86508607421875L99.51581861328125,68.68527607421875C99.51581861328125,68.78647607421875,99.51581861328125,68.88757607421874,99.48173861328125,68.98867607421874C98.52749761328126,68.82017607421875,97.81182861328125,68.01117607421875,97.81182861328125,67.03367607421875L97.81182861328125,55.47182607421875C97.81182861328125,54.52800507421875,98.49342361328125,53.75272307421875,99.37949861328126,53.55047607421875C99.37949861328126,53.61789247421875,99.41357861328125,53.71901507421875,99.41357861328125,53.78643207421875L99.41357861328125,53.85384807421875C99.41357861328125,53.92126507421875,99.44765861328125,54.02238707421875,99.44765861328125,54.12351007421875L99.44765861328125,54.22463307421875C99.44765861328125,54.32575607421875,99.48173861328125,54.42688107421875,99.48173861328125,54.52800307421875C99.48173861328125,54.62912607421875,99.51581861328125,54.73024607421875,99.51581861328125,54.86508607421875Z" fill="#0F263D" fill-opacity="1"/></g><g><path d="M50.78179262695312,46.10125732421875L45.39719262695313,53.179907324218746L32.378692626953125,53.179907324218746L32.378692626953125,70.03385732421876L45.39719262695313,70.03385732421876L50.78179262695312,76.77545732421875L50.78179262695312,46.10125732421875Z" fill="#0F77B2" fill-opacity="1"/></g><g><path d="M50.78179262695312,46.10125732421875L50.78179262695312,76.77545732421875L49.077792626953126,74.61815732421874L45.39719262695313,70.03385732421876L32.378692626953125,70.03385732421876L32.378692626953125,53.179907324218746L45.39719262695313,53.179907324218746L49.077792626953126,48.32597732421875L50.78179262695312,46.10125732421875Z" fill="#3B7A9A" fill-opacity="1"/></g><g><path d="M11.506500244140625,66.70328134765624L11.506500244140625,56.59088134765625L21.730400244140625,56.59088134765625L21.730400244140625,66.70328134765624L11.506500244140625,66.70328134765624Z" fill="#5B95B2" fill-opacity="1"/></g><g><path d="M11.506500244140625,66.7034125390625L11.506500244140625,65.3551025390625L21.730400244140625,65.3551025390625L21.730400244140625,66.7034125390625L11.506500244140625,66.7034125390625Z" fill="#3B7A9A" fill-opacity="1"/></g><g><path d="M11.506500244140625,57.93919134765625L11.506500244140625,56.59088134765625L21.730400244140625,56.59088134765625L21.730400244140625,57.93919134765625L11.506500244140625,57.93919134765625Z" fill="#9AD1EC" fill-opacity="1"/></g><g><path d="M9,56.28076267578125L9,66.93244267578125C9,67.70774267578125,9.613434999999999,68.31444267578125,10.39727,68.31444267578125C11.1811,68.31444267578125,11.79454,67.70774267578125,11.79454,66.93244267578125L11.79454,56.28076267578125C11.79454,55.50548567578125,11.1811,54.89874267578125,10.39727,54.89874267578125C9.613434999999999,54.89874267578125,9,55.50548567578125,9,56.28076267578125Z" fill="#08607F" fill-opacity="1"/></g><g><path d="M11.794578349609376,66.89874267578125L11.794578349609376,56.28076267578125C11.794578349609376,55.50548567578125,11.181142349609376,54.89874267578125,10.397308349609375,54.89874267578125L10.397308349609375,68.28074267578126C11.147063349609375,68.28074267578126,11.794578349609376,67.67404267578125,11.794578349609376,66.89874267578125Z" fill="#0F263D" fill-opacity="1"/></g><g><path d="M9,56.28076267578125L9,66.93244267578125C9,67.70774267578125,9.613434999999999,68.31444267578125,10.39727,68.31444267578125C11.1811,68.31444267578125,11.79454,67.70774267578125,11.79454,66.93244267578125L11.79454,56.28076267578125C11.79454,55.50548567578125,11.1811,54.89874267578125,10.39727,54.89874267578125C9.613434999999999,54.89874267578125,9,55.50548567578125,9,56.28076267578125Z" fill="#326985" fill-opacity="1"/></g><g><path d="M11.794578349609376,66.89874267578125L11.794578349609376,56.28076267578125C11.794578349609376,55.50548567578125,11.181142349609376,54.89874267578125,10.397308349609375,54.89874267578125L10.397308349609375,68.28074267578126C11.147063349609375,68.28074267578126,11.794578349609376,67.67404267578125,11.794578349609376,66.89874267578125Z" fill="#0F263D" fill-opacity="1"/></g><g><path d="M50.78174150390625,69.3596816015625L50.78174150390625,76.7753916015625L49.07774150390625,74.6181016015625L45.39714150390625,70.0338316015625L35.10504150390625,70.0338316015625L35.10504150390625,65.9888916015625L45.32894150390625,65.9888916015625L49.07774150390625,68.3147316015625L50.78174150390625,69.3596816015625Z" fill="#326985" fill-opacity="1"/></g><g><path d="M43.62505815429688,48.1908602734375L43.62505815429688,74.98863027343751C43.62505815429688,76.7077302734375,42.19375815429687,78.12343027343749,40.45565815429687,78.12343027343749L24.267778154296874,78.12343027343749C22.529708154296873,78.12343027343749,21.098358154296875,76.7077302734375,21.098358154296875,74.98863027343751L21.098358154296875,48.1908602734375C21.098358154296875,46.471760273437496,22.529708154296873,45.0560302734375,24.267778154296874,45.0560302734375L40.45565815429687,45.0560302734375C42.19375815429687,45.0897384734375,43.62505815429688,46.471760273437496,43.62505815429688,48.1908602734375Z" fill="#326985" fill-opacity="1"/></g><g><path d="M21.132415771484375,61.5054302734375L21.132415771484375,48.1908602734375C21.132415771484375,46.471760273437496,22.563765771484373,45.0560302734375,24.301835771484374,45.0560302734375L40.48971577148437,45.0560302734375C42.22781577148437,45.0560302734375,43.65911577148438,46.4380502734375,43.65911577148438,48.1908602734375L43.65911577148438,61.5054302734375" fill="#5B95B2" fill-opacity="1"/></g><g><path d="M50.78181303710937,46.10125732421875L50.78181303710937,52.84282732421875L49.07781303710938,54.022607324218754L45.49941303710938,56.55065732421875L31.697113037109375,56.55065732421875L31.697113037109375,53.179907324218746L45.397213037109374,53.179907324218746L49.07781303710938,48.32597732421875L50.78181303710937,46.10125732421875Z" fill="#5B95B2" fill-opacity="1"/></g><g><path d="M43.62505815429688,70.0335693359375L43.62505815429688,71.9549193359375C43.62505815429688,73.6740193359375,42.19375815429687,75.0897493359375,40.45565815429687,75.0897493359375L24.267778154296874,75.0897493359375C22.529708154296873,75.0897493359375,21.098358154296875,73.6740193359375,21.098358154296875,71.9549193359375L21.098358154296875,70.0335693359375L43.62505815429688,70.0335693359375Z" fill="#08607F" fill-opacity="1"/></g><g><path d="M40.69421577148438,75.59529785156249L24.029195771484375,75.59529785156249C22.427445771484376,75.59529785156249,21.132415771484375,74.3143978515625,21.132415771484375,72.73019785156251L21.132415771484375,50.4829678515625C21.132415771484375,48.8986978515625,22.427445771484376,47.6177978515625,24.029195771484375,47.6177978515625L40.69421577148438,47.6177978515625C42.295915771484374,47.6177978515625,43.59101577148438,48.8986978515625,43.59101577148438,50.4829678515625L43.59101577148438,72.6963978515625C43.62501577148437,74.3143978515625,42.295915771484374,75.59529785156249,40.69421577148438,75.59529785156249Z" fill="#3B7A9A" fill-opacity="1"/></g><g><path d="M43.62501577148437,60.5953404903425L43.62501577148437,72.6964369140625C43.62501577148437,74.2807369140625,42.330015771484376,75.5616369140625,40.728315771484375,75.5616369140625L24.029195771484375,75.5616369140625C22.427445771484376,75.5616369140625,21.132415771484375,74.2807369140625,21.132415771484375,72.6964369140625L21.132415771484375,60.5953369140625" fill="#3B7A9A" fill-opacity="1"/></g><g><path d="M39.1483,71L24.85174,71C23.844176,71,23,69.9635,23,68.6507L23,55.34933C23,54.07102,23.816944,53,24.85174,53L39.1483,53C40.1558,53,41,54.03647,41,55.34933L41,68.6507C41,69.929,40.1558,71,39.1483,71Z" fill="#9AD1EC" fill-opacity="1"/></g><g><path d="M37.0013,62Q37.0013,62.12274,36.995329999999996,62.24534Q36.9893,62.36793,36.977270000000004,62.49009Q36.96523,62.61224,36.94722,62.73365Q36.9292,62.85507,36.90525,62.97545Q36.881299999999996,63.09584,36.85146,63.2149Q36.82163,63.33396,36.78599,63.45142Q36.75035,63.56888,36.70899,63.68445Q36.66763,63.80002,36.62064,63.91342Q36.573660000000004,64.02682,36.52117,64.13777Q36.46867,64.24873,36.4108,64.35698Q36.35292,64.46523,36.2898,64.57051Q36.22668,64.67579,36.15847,64.77785Q36.09026,64.87991,36.01712,64.9785Q35.943979999999996,65.07708,35.8661,65.17197Q35.78821,65.26685,35.70576,65.35779Q35.6233,65.44874,35.53649,65.53553Q35.44967,65.62232,35.3587,65.70475Q35.26773,65.78718,35.17282,65.86505Q35.07791,65.94292,34.9793,66.01604Q34.88068,66.08915,34.7786,66.15735Q34.67652,66.22554,34.57121,66.28864Q34.4659,66.35174,34.35762,66.40961Q34.249340000000004,66.46747,34.13835,66.51995Q34.02736,66.57242,33.91393,66.6194Q33.8005,66.66637,33.6849,66.70772Q33.5693,66.74907,33.45182,66.7847Q33.33433,66.82033,33.21523,66.85015Q33.09613,66.87998,32.97571,66.90392Q32.8553,66.92787,32.733850000000004,66.94588Q32.6124,66.96388999999999,32.49022,66.97592Q32.36803,66.98795,32.24541,66.99398Q32.12278,67,32,67Q31.87722,67,31.7546,66.99398Q31.63197,66.98795,31.50978,66.97592Q31.3876,66.96388999999999,31.26615,66.94588Q31.1447,66.92787,31.02429,66.90392Q30.90387,66.87998,30.78477,66.85015Q30.66567,66.82033,30.548189999999998,66.7847Q30.4307,66.74907,30.3151,66.70772Q30.1995,66.66637,30.08607,66.6194Q29.97264,66.57242,29.86165,66.51995Q29.75066,66.46747,29.64238,66.40961Q29.5341,66.35174,29.42879,66.28864Q29.32348,66.22554,29.2214,66.15735Q29.11931,66.08915,29.0207,66.01604Q28.92209,65.94292,28.82718,65.86505Q28.73227,65.78718,28.6413,65.70475Q28.55033,65.62232,28.46351,65.53553Q28.3767,65.44874,28.294249999999998,65.35779Q28.21179,65.26685,28.13391,65.17197Q28.05602,65.07708,27.982879,64.9785Q27.909741,64.87991,27.841531,64.77785Q27.77332,64.67579,27.7102,64.57051Q27.64708,64.46523,27.589204,64.35698Q27.531328,64.24873,27.478834,64.13777Q27.426341,64.02682,27.379356,63.91342Q27.332372,63.80002,27.29101,63.68445Q27.249648,63.56888,27.214008,63.45142Q27.178368,63.33396,27.148535,63.2149Q27.118703,63.09584,27.0947508,62.97545Q27.0707983,62.85507,27.0527833,62.73365Q27.0347683,62.61224,27.0227341,62.49009Q27.0106999,62.36793,27.00467559,62.24534Q26.99865125,62.12274,26.99865125,62Q26.99865125,61.87726,27.00467559,61.75466Q27.0106999,61.63207,27.0227341,61.50991Q27.0347683,61.38776,27.0527833,61.26635Q27.0707983,61.14493,27.0947508,61.02455Q27.118703,60.90416,27.148535,60.7851Q27.178368,60.66603,27.214008,60.54858Q27.249648,60.43112,27.29101,60.31555Q27.332372,60.19998,27.379356,60.08658Q27.426341,59.97318,27.478834,59.86222Q27.531328,59.75127,27.589204,59.64302Q27.647081,59.53477,27.7102,59.42949Q27.77332,59.32421,27.841531,59.22215Q27.909741,59.12009,27.982879,59.0215Q28.05602,58.92291,28.13391,58.82803Q28.21179,58.73315,28.294249999999998,58.6422Q28.3767,58.55126,28.46351,58.46447Q28.55033,58.37767,28.6413,58.29524Q28.73227,58.21282,28.82718,58.13495Q28.92209,58.05708,29.0207,57.983962Q29.11931,57.910844,29.2214,57.842652Q29.32348,57.774459,29.42879,57.711357Q29.5341,57.648254,29.64238,57.590394Q29.75066,57.532533,29.86165,57.480053Q29.97264,57.427574,30.08607,57.380602Q30.1995,57.333631,30.3151,57.29228Q30.4307,57.250929,30.548189999999998,57.215298Q30.66567,57.179668,30.78477,57.149844Q30.90387,57.12002,31.02429,57.0960736Q31.1447,57.0721276,31.26615,57.0541174Q31.3876,57.0361073,31.50978,57.0240764Q31.63197,57.0120454,31.7546,57.00602272Q31.87722,57,32,57Q32.12278,57,32.24541,57.00602272Q32.36803,57.0120454,32.49022,57.0240764Q32.6124,57.0361073,32.733850000000004,57.0541174Q32.8553,57.0721276,32.97571,57.0960736Q33.09613,57.12002,33.21523,57.149844Q33.33433,57.179668,33.45182,57.215298Q33.5693,57.250929,33.6849,57.29228Q33.8005,57.333631,33.91393,57.380602Q34.02736,57.427574,34.13835,57.480053Q34.249340000000004,57.532533,34.35762,57.590394Q34.4659,57.648254,34.57121,57.711357Q34.67652,57.774459,34.7786,57.842652Q34.88068,57.910844,34.9793,57.983962Q35.07791,58.05708,35.17282,58.13495Q35.26773,58.21282,35.3587,58.29524Q35.44967,58.37767,35.53649,58.46447Q35.6233,58.55126,35.70576,58.6422Q35.78821,58.73315,35.8661,58.82803Q35.943979999999996,58.92291,36.01712,59.0215Q36.09026,59.12009,36.15847,59.22215Q36.22668,59.32421,36.2898,59.42949Q36.35292,59.53477,36.4108,59.64302Q36.46867,59.75127,36.52117,59.86222Q36.573660000000004,59.97318,36.62064,60.08658Q36.66763,60.19998,36.70899,60.31555Q36.75035,60.43112,36.78599,60.54858Q36.82163,60.66603,36.85147,60.7851Q36.881299999999996,60.90416,36.90525,61.02455Q36.9292,61.14493,36.94722,61.26635Q36.96523,61.38776,36.977270000000004,61.50991Q36.9893,61.63207,36.995329999999996,61.75466Q37.0013,61.87726,37.0013,62Z" fill="#0F263D" fill-opacity="1"/></g></g></g></svg>