<svg xmlns="http://www.w3.org/2000/svg" xmlns:xlink="http://www.w3.org/1999/xlink" fill="none" version="1.1" width="110" height="110" viewBox="0 0 110 110"><defs><clipPath id="master_svg0_1460_00369"><rect x="0" y="0" width="110" height="110" rx="0"/></clipPath></defs><g clip-path="url(#master_svg0_1460_00369)"><g transform="matrix(1,0,0,-1,0,180)"><g><path d="M86,90L24,90C21.79086,90,20,91.79086,20,94L20,156C20,158.2091,21.79086,160,24,160L86,160C88.2091,160,90,158.2091,90,156L90,94C90,91.79086,88.2091,90,86,90" fill="#213348" fill-opacity="1"/></g><g><path d="M54.7594,108.4344L53.674499999999995,102.52309L50.284099999999995,97.09289L44.9951,93.72479L39.0958,92.625L33.26433,93.72479L27.907510000000002,97.09289L24.58493,102.52309L23.5,108.4344L24.58493,114.4145L27.907510000000002,119.776L33.26433,123.2128L39.0958,124.3126L44.9951,123.2128L50.284099999999995,119.776L53.674499999999995,114.4145L54.7594,108.4344Z" fill="#5B95B2" fill-opacity="1"/></g><g><path d="M87.37485319824219,108.4344L86.28995319824219,102.45435L82.9673531982422,97.09289L77.61055319824219,93.72479L71.71125319824219,92.625L65.81198319824219,93.72479L60.522973198242184,97.09289L57.200383198242186,102.45435L56.04765319824219,108.4344L57.200383198242186,114.4833L60.522973198242184,119.8447L65.81198319824219,123.2128L71.71125319824219,124.3126L77.61055319824219,123.2128L82.9673531982422,119.8447L86.28995319824219,114.4833L87.37485319824219,108.4344Z" fill="#5B95B2" fill-opacity="1"/></g><g><path d="M87.37485319824219,141.56557411499023L86.28995319824219,135.51672411499024L82.9673531982422,130.15526411499025L77.61055319824219,126.78716411499023L71.71125319824219,125.68737411499023L65.81198319824219,126.78716411499023L60.522973198242184,130.15526411499025L57.200383198242186,135.51672411499024L56.04765319824219,141.56557411499023L57.200383198242186,147.54567411499022L60.522973198242184,152.90707411499022L65.81198319824219,156.27517411499025L71.71125319824219,157.37497411499024L77.61055319824219,156.27517411499025L82.9673531982422,152.90707411499022L86.28995319824219,147.54567411499022L87.37485319824219,141.56557411499023Z" fill="#5B95B2" fill-opacity="1"/></g><g><path d="M54.7594,141.56557411499023L53.674499999999995,135.58546411499023L50.284099999999995,130.22399411499023L44.9951,126.78716411499023L39.0958,125.68737411499023L33.26433,126.78716411499023L27.907510000000002,130.22399411499023L24.58493,135.58546411499023L23.5,141.56557411499023L24.58493,147.47687411499024L27.907510000000002,152.90707411499022L33.26433,156.27517411499025L39.0958,157.37497411499024L44.9951,156.27517411499025L50.284099999999995,152.90707411499022L53.674499999999995,147.47687411499024L54.7594,141.56557411499023Z" fill="#5B95B2" fill-opacity="1"/></g><g><ellipse cx="39.095749378204346" cy="141.56555271148682" rx="13.697185516357422" ry="13.88481616973877" fill="#658BB2" fill-opacity="1"/><ellipse cx="39.095749378204346" cy="141.56555271148682" rx="13.697185516357422" ry="13.88481616973877" fill-opacity="0" stroke-opacity="1" stroke="#000000" fill="none" stroke-width="1.7689979076385498"/></g><g><ellipse cx="39.095749378204346" cy="108.43448400497437" rx="13.697185516357422" ry="13.88481616973877" fill="#658BB2" fill-opacity="1"/><ellipse cx="39.095749378204346" cy="108.43448400497437" rx="13.697185516357422" ry="13.88481616973877" fill-opacity="0" stroke-opacity="1" stroke="#000000" fill="none" stroke-width="1.7689979076385498"/></g><g><ellipse cx="71.71133804321289" cy="108.43448400497437" rx="13.697185516357422" ry="13.88481616973877" fill="#658BB2" fill-opacity="1"/><ellipse cx="71.71133804321289" cy="108.43448400497437" rx="13.697185516357422" ry="13.88481616973877" fill-opacity="0" stroke-opacity="1" stroke="#000000" fill="none" stroke-width="1.7689979076385498"/></g><g><ellipse cx="71.71133804321289" cy="141.56555271148682" rx="13.697185516357422" ry="13.88481616973877" fill="#658BB2" fill-opacity="1"/><ellipse cx="71.71133804321289" cy="141.56555271148682" rx="13.697185516357422" ry="13.88481616973877" fill-opacity="0" stroke-opacity="1" stroke="#000000" fill="none" stroke-width="1.7689979076385498"/></g><g><path d="M50.625,122.65652L51.70455,121.5L51.70455,127.34348L59.375,127.34348L58.29545,128.5L50.625,128.5L50.625,122.65652Z" fill="#001933" fill-opacity="1"/></g><g><ellipse cx="71.71134567260742" cy="141.49681758880615" rx="12.408836364746094" ry="12.578818321228027" fill="#5B95B2" fill-opacity="1"/></g><g><ellipse cx="39.095755100250244" cy="141.49681758880615" rx="12.408836364746094" ry="12.578818321228027" fill="#5B95B2" fill-opacity="1"/></g><g><ellipse cx="39.095755100250244" cy="108.43444108963013" rx="12.408836364746094" ry="12.578818321228027" fill="#5B95B2" fill-opacity="1"/></g><g><ellipse cx="71.71134567260742" cy="108.43444108963013" rx="12.408836364746094" ry="12.578818321228027" fill="#5B95B2" fill-opacity="1"/></g><g><path d="M71.71135003295899,110.7715091394043L69.47369003295898,108.4344591394043L71.71135003295899,106.1661491394043L74.01682003295899,108.4344591394043L71.71135003295899,110.7715091394043Z" fill="#89BCD5" fill-opacity="1"/></g><g><path d="M41.40123089111328,108.4344591394043L39.09576089111328,110.7715091394043L36.85810089111328,108.4344591394043L39.09576089111328,106.1661491394043L41.40123089111328,108.4344591394043Z" fill="#89BCD5" fill-opacity="1"/></g><g><path d="M71.71135003295899,139.22847366333008L69.47369003295898,141.56552366333008L71.71135003295899,143.83383366333007L74.01682003295899,141.56552366333008L71.71135003295899,139.22847366333008Z" fill="#89BCD5" fill-opacity="1"/></g><g><path d="M41.401205573730465,141.56552366333008L39.09574557373047,139.22847366333008L36.79027557373047,141.56552366333008L39.09574557373047,143.83383366333007L41.401205573730465,141.56552366333008Z" fill="#89BCD5" fill-opacity="1"/></g><g><path d="M79.3257,118.8557556640625L80.804,117.5712556640625L79.6437,116.2359556640625L78.2741,117.4259556640625L76.8203,118.32305566406251L75.30799999999999,119.0256556640625L73.68299999999999,119.4691556640625L71.4088,119.7253556640625L69.1533,119.4712556640625L66.93632,118.7649556640625L64.9931,117.7482556640625L63.30061,116.2867556640625L61.90958,114.5562556640625L60.83453,112.5689556640625L60.1412,110.39665566406251L59.889654,108.0378956640625L59.947041,107.5143356640625L60.14272,105.7290756640625L60.58195,104.1389356640625L61.27999,102.5307356640625L62.15707,101.0700756640625L63.32305,99.7567966640625L62.0002,98.5823146640625L60.72509,100.0185026640625L59.703554,101.7197356640625L58.9098271,103.5483756640625L58.39974,105.3950656640625L58.188575,107.3215856640625L58.110346,108.0352856640625L58.401259,110.7630556640625L59.199706,113.2648556640625L60.43012,115.5392556640625L62.02264,117.5204556640625L63.99177,119.2208556640625L66.25264,120.4037556640625L68.78223,121.2096556640625L71.4088,121.5054556640625L74.01689999999999,121.21175566406251L75.9179,120.6929556640625L77.6603,119.88335566406249L79.3257,118.8557556640625Z" fill-rule="evenodd" fill="#ADD1E3" fill-opacity="1"/></g><g><path d="M79.315,151.91185517578126L80.785,150.70565517578126L79.6628,149.33815517578125L78.2848,150.46885517578124L76.8203,151.37255517578126L75.30799999999999,152.07515517578125L73.68299999999999,152.51865517578125L71.4088,152.77485517578125L69.14150000000001,152.51945517578125L66.93672,151.88085517578125L64.99313,150.80045517578125L63.30058,149.40245517578126L61.91333,147.61265517578124L60.83453,145.61845517578126L60.1412,143.44615517578126L59.889654,141.08739517578124L59.947041,140.56383517578126L60.14273,138.84472517578126L60.5837,137.18439517578125L61.27648,135.58831517578125L62.15692,134.18582517578125L63.33704,132.79015617578125L61.98621,131.64795417578125L60.72525,133.13923117578125L59.707062,134.76115517578125L58.9080751,136.60190517578124L58.399736,138.51588517578125L58.188575,140.37108517578125L58.110346,141.08478517578124L58.401259,143.81255517578126L59.199706,146.31435517578126L60.42637,148.58185517578124L62.02267,150.64125517578125L63.99174,152.26775517578125L66.25224,153.52435517578124L68.79397,154.26045517578126L71.4088,154.55495517578126L74.01689999999999,154.26125517578126L75.9179,153.74245517578126L77.6603,152.93285517578124L79.315,151.91185517578126Z" fill-rule="evenodd" fill="#ADD1E3" fill-opacity="1"/></g><g><path d="M47.2541,151.946721484375L48.7171,150.746121484375L47.595,149.378621484375L46.2101,150.515021484375L44.8179,151.413021484375L43.2468,152.113821484375L41.6152,152.559121484375L39.341,152.815321484375L37.0737,152.559921484375L34.86891,151.921321484375L32.92532,150.840921484375L31.232770000000002,149.442921484375L29.84552,147.653121484375L28.76672,145.658921484375L28.07699,143.497821484375L27.884499,141.091241484375L27.884499,140.558101484375L28.07315,138.900711484375L28.58183,137.224881484375L29.21148,135.629171484375L30.15482,134.226661484375L31.28497,132.811467484375L29.90266,131.707575484375L28.72735,133.179322484375L27.636447,134.801231484375L26.9099462,136.642361484375L26.333695,138.540831484375L26.115501,140.457751484375L26.115501,141.161871484375L26.329855,143.841821484375L27.131898,146.354821484375L28.35856,148.622321484375L29.95486,150.681721484375L31.92393,152.308221484375L34.18443,153.564821484375L36.726169999999996,154.300921484375L39.341,154.595421484375L41.949,154.301721484375L43.8434,153.784721484375L45.6627,152.973321484375L47.2541,151.946721484375Z" fill-rule="evenodd" fill="#ADD1E3" fill-opacity="1"/></g><g><path d="M47.2646,118.81516562499999L48.7362,117.536465625L47.575900000000004,116.201165625L46.199600000000004,117.397065625L44.8179,118.28826562500001L43.2468,118.989065625L41.6152,119.434365625L39.341,119.690565625L37.085499999999996,119.436465625L34.86851,118.730165625L32.925290000000004,117.713465625L31.2328,116.251965625L29.84177,114.521465625L28.76672,112.534165625L28.07699,110.373065625L27.884499,107.966485625L27.884499,107.431495625L28.07315,105.710355625L28.58002,104.104685625L29.21483,102.495935625L30.15472,101.035025625L31.27158,99.703077625L29.91606,98.566453625L28.72744,99.983975625L27.633099,101.684955625L26.9117473,103.513035625L26.333695,105.344195625L26.115501,107.334835625L26.115501,108.037115625L26.329855,110.717065625L27.131898,113.230065625L28.36231,115.504465625L29.95483,117.485665625L31.92396,119.186065625L34.18483,120.368965625L36.714420000000004,121.174865625L39.341,121.470665625L41.949,121.17696562500001L43.8434,120.659965625L45.6627,119.84856562499999L47.2646,118.81516562499999Z" fill-rule="evenodd" fill="#ADD1E3" fill-opacity="1"/></g><g><path d="M31.169712020141603,130.7520277416992L29.7523690201416,132.0451077416992L30.944641020141603,133.3519477416992L32.2396150201416,132.17051774169923L33.6784550201416,131.28269774169922L35.2577750201416,130.57827774169922L36.890735020141605,130.13260774169922L39.0984650201416,129.87684374169922L41.4204050201416,130.13129774169923L43.6360050201416,130.8371977416992L45.579305020141604,131.85387774169922L47.2718050201416,133.31538774169923L48.662805020141604,135.04593774169922L49.7378050201416,137.0331777416992L50.4276050201416,139.19424774169923L50.6201050201416,141.60084774169923L50.6201050201416,142.13584774169922L50.4314050201416,143.8570477416992L49.9290050201416,145.44844774169923L49.2246050201416,147.07144774169922L48.3410050201416,148.54284774169923L47.233005020141604,149.86424774169922L48.588505020141596,151.0009477416992L49.7859050201416,149.5728477416992L50.8010050201416,147.88244774169922L51.588305020141604,146.0685477416992L52.1709050201416,144.22314774169922L52.3890050201416,142.23254774169922L52.3890050201416,141.5302477416992L52.1747050201416,138.8503377416992L51.3727050201416,136.33733774169923L50.1422050201416,134.06289774169923L48.5497050201416,132.08166774169922L46.580605020141604,130.38128774169923L44.3197050201416,129.19840174169923L41.7889050201416,128.39209174169923L39.092965020141605,128.09665174169922L36.554145020141604,128.39077674169923L34.661105020141605,128.90742404169922L32.8500250201416,129.7152157416992L31.169712020141603,130.7520277416992Z" fill-rule="evenodd" fill="#0F263D" fill-opacity="1"/></g><g><path d="M31.180470020141602,97.6830088583374L29.7711440201416,98.89734885833741L30.9258660201416,100.2374888583374L32.2288550201416,99.1147688583374L33.6784550201416,98.22031885833741L35.2577750201416,97.51589885833741L36.890735020141605,97.0702288583374L39.0984650201416,96.8144648583374L41.432105020141606,97.07020885833741L43.635605020141604,97.7084088583374L45.5792050201416,98.7888488583374L47.2718050201416,100.1868588583374L48.659005020141606,101.9766288583374L49.7378050201416,103.9707988583374L50.4276050201416,106.1318688583374L50.6201050201416,108.53846885833741L50.6201050201416,109.0716688583374L50.4314050201416,110.7290688583374L49.9271050201416,112.3905688583374L49.2281050201416,114.0009688583374L48.3410050201416,115.4139688583374L47.2196050201416,116.8182688583374L48.6019050201416,117.9221688583374L49.7859050201416,116.4394688583374L50.7975050201416,114.8281688583374L51.5903050201416,113.00166885833741L52.1709050201416,111.0888688583374L52.3890050201416,109.17196885833741L52.3890050201416,108.4678688583374L52.1747050201416,105.7879588583374L51.3727050201416,103.2749588583374L50.1460050201416,101.0074488583374L48.5497050201416,98.9479688583374L46.580605020141604,97.3215688583374L44.320105020141604,96.0649548583374L41.777105020141605,95.3284248583374L39.092965020141605,95.0342728583374L36.554145020141604,95.3283978583374L34.661105020141605,95.8450451583374L32.8500250201416,96.65283685833741L31.180470020141602,97.6830088583374Z" fill-rule="evenodd" fill="#0F263D" fill-opacity="1"/></g><g><path d="M63.796061069335934,97.6830088583374L62.386735069335934,98.89734885833741L63.54145706933594,100.2374888583374L64.84444606933593,99.1147688583374L66.29404606933593,98.22031885833741L67.87336606933594,97.51589885833741L69.50632606933594,97.0702288583374L71.71405606933594,96.8144648583374L74.04419606933594,97.0698288583374L76.18039606933594,97.70670885833741L78.13389606933593,98.7926988583374L79.89229606933594,100.1931588583374L81.27459606933594,101.9766288583374L82.34779606933594,103.9603688583374L82.97769606933593,106.1313688583374L83.23569606933594,108.5501688583374L83.23569606933594,109.0550688583374L82.98169606933594,110.7285688583374L82.53639606933594,112.40486885833741L81.84369606933593,114.0009688583374L80.95659606933594,115.4139688583374L79.83519606933594,116.8182688583374L81.21749606933594,117.9221688583374L82.40149606933593,116.4394688583374L83.41309606933594,114.8281688583374L84.21209606933594,112.9873688583374L84.71619606933594,111.0893688583374L85.00459606933595,109.1885688583374L85.00459606933595,108.4561688583374L84.72009606933594,105.78846885833741L83.99389606933593,103.2853888583374L82.76159606933594,101.0074488583374L81.16039606933595,98.94166885833741L79.12149606933593,97.3177088583374L76.87099606933594,96.0666608583374L74.39619606933594,95.3288048583374L71.70855606933594,95.0342728583374L69.16973606933594,95.3283978583374L67.27669606933594,95.8450451583374L65.46561606933594,96.65283685833741L63.796061069335934,97.6830088583374Z" fill-rule="evenodd" fill="#0F263D" fill-opacity="1"/></g><g><path d="M63.78530306933594,130.7520277416992L62.367960069335936,132.0451077416992L63.56023206933594,133.3519477416992L64.85520606933594,132.17051774169923L66.29404606933593,131.28269774169922L67.87336606933594,130.57827774169922L69.50632606933594,130.13260774169922L71.71405606933594,129.87684374169922L74.03219606933594,130.1308877416992L76.18049606933593,130.83544774169923L78.13419606933594,131.8576077416992L79.89239606933594,133.32162774169922L81.27839606933594,135.04593774169922L82.34779606933594,137.02274774169922L82.97769606933593,139.1937477416992L83.23569606933594,141.61254774169922L83.23569606933594,142.1199477416992L82.98169606933594,143.85764774169922L82.53819606933594,145.4632477416992L81.84019606933595,147.07144774169922L80.95659606933594,148.54284774169923L79.84859606933594,149.86424774169922L81.20409606933593,151.0009477416992L82.40149606933593,149.5728477416992L83.41659606933594,147.88244774169922L84.21029606933594,146.05374774169923L84.71619606933594,144.22244774169923L85.00459606933595,142.2484477416992L85.00459606933595,141.51854774169922L84.72009606933594,138.85084774169923L83.99389606933593,136.34776774169922L82.75779606933594,134.06289774169923L81.16029606933594,132.07543774169923L79.12129606933594,130.3775677416992L76.87089606933594,129.2001537416992L74.40819606933594,128.3925047416992L71.70855606933594,128.09665174169922L69.16973606933594,128.39077674169923L67.27669606933594,128.90742404169922L65.46561606933594,129.7152157416992L63.78530306933594,130.7520277416992Z" fill-rule="evenodd" fill="#0F263D" fill-opacity="1"/></g><g><path d="M72.99965291748047,141.56552883300782L61.743554917480466,130.6364288330078L60.86205291748047,131.5987428330078L71.71135291748047,142.8715288330078L72.99965291748047,141.56552883300782Z" fill="#213348" fill-opacity="1"/></g><g><path d="M39.027977896728515,142.80283951416015L49.877237896728516,131.46125351416015L48.927937896728515,130.49893951416016L37.807437896728516,141.49683951416014L39.027977896728515,142.80283951416015Z" fill="#213348" fill-opacity="1"/></g><g><path d="M39.027977896728515,107.19717407226562L49.877237896728516,118.53877407226562L48.927937896728515,119.50107407226562L37.807437896728516,108.50317407226562L39.027977896728515,107.19717407226562Z" fill="#213348" fill-opacity="1"/></g><g><path d="M72.99965291748047,108.43448281860351L61.743554917480466,119.36358281860352L60.86205291748047,118.40128281860352L71.71135291748047,107.12848281860352L72.99965291748047,108.43448281860351Z" fill="#213348" fill-opacity="1"/></g><g><path d="M59.375,127.625L59.375,121.5L51.5,121.5L51.5,127.625L59.375,127.625Z" fill="#5B95B2" fill-opacity="1"/></g><g><ellipse cx="55" cy="118" rx="1.75" ry="1.75" fill="#5B95B2" fill-opacity="1"/></g><g><ellipse cx="55" cy="118" rx="0.875" ry="0.875" fill="#001933" fill-opacity="1"/></g></g></g></svg>