<svg xmlns="http://www.w3.org/2000/svg" xmlns:xlink="http://www.w3.org/1999/xlink" fill="none" version="1.1" width="110" height="110.00000762939453" viewBox="0 0 110 110.00000762939453"><defs><clipPath id="master_svg0_1460_00913"><rect x="0" y="0" width="110" height="110.00000762939453" rx="0"/></clipPath></defs><g clip-path="url(#master_svg0_1460_00913)"><g><g><rect x="14" y="48" width="82" height="14" rx="0" fill="#1F475F" fill-opacity="1"/></g><g><rect x="20" y="45" width="70" height="20" rx="0" fill="#0F263D" fill-opacity="1"/></g><g><ellipse cx="55" cy="55" rx="28" ry="28" fill="#1F475F" fill-opacity="1"/></g><g><ellipse cx="55" cy="55" rx="22" ry="22" fill="#5B95B2" fill-opacity="1"/></g><g><rect x="41" y="42" width="26" height="6" rx="3" fill="#64D98F" fill-opacity="1"/></g><g><rect x="39" y="52" width="8" height="8" rx="4" fill="#64D98F" fill-opacity="1"/></g><g><path d="M54,61.19808C53.99999643754,61.58516,54.309104,61.89896,54.6904,61.89896L55.74101,61.89896C55.89631,62.94548,56.29788,63.9385,56.91169,64.79390000000001L56.2513,65.4948C55.97789,65.7486,55.97789,66.1858,56.2513,66.4395L56.61152,66.8357C56.87215,67.116,57.31144,67.116,57.57207,66.8357L58.26247,66.1348C59.09976,66.7731,60.07927,67.1918,61.11413,67.3537L61.11413,68.3289C61.11413,68.6991,61.40979,68.9993,61.77451,68.9993L62.31483,68.9993C62.69121,69.0167,63.00562,68.7114,63.00523,68.3289L63.00523,67.628C64.0384,67.4601,65.0166,67.042,65.8569,66.409L66.5173,67.1099C66.7779,67.3903,67.2172,67.3903,67.4778,67.1099L67.8681,66.7138C68.14150000000001,66.46000000000001,68.14150000000001,66.0228,67.8681,65.7691L67.1777,65.0682C67.7885,64.2079,68.199,63.218,68.3784,62.173230000000004L69.3389,62.173230000000004C69.7157,62.17362,70.0164,61.85444,69.9993,61.47234L69.9993,60.92382L69.9993,60.77145C70.0031,60.36232,69.6481,60.04522,69.2489,60.10103L68.28829999999999,60.10103C68.1152,59.0544,67.7041,58.06317,67.0876,57.20605L67.778,56.505160000000004C68.0542,56.24057,68.0542,55.7946,67.778,55.53L67.3878,55.16433C67.1271,54.88395,66.6878,54.88395,66.4272,55.16433L65.7668,55.83474C64.9242,55.211619999999996,63.946020000000004,54.80395,62.91518,54.64627L62.91518,53.671124C62.91556,53.28863,62.60116,52.983324,62.22478,53.000707041L61.68446,53.000707041C61.31974,53.000707041,61.02408,53.300863,61.02408,53.671124L61.02408,54.64627C59.99162,54.79796,59.01206,55.20621,58.17242,55.83474L57.48202,55.16433C57.22139,54.88395,56.7821,54.88395,56.52147,55.16433L56.16125,55.53C55.88508,55.7946,55.88508,56.24057,56.16125,56.505160000000004L56.82164,57.20605C56.202510000000004,58.05844,55.80038,59.05289,55.65096,60.10103L54.6904,60.10103C54.360772,60.09304,54.0715893,60.32281,54,60.64955L54,61.19808Z" fill="#0F263D" fill-opacity="1"/></g></g></g></svg>