<svg xmlns="http://www.w3.org/2000/svg" xmlns:xlink="http://www.w3.org/1999/xlink" fill="none" version="1.1" width="110" height="110" viewBox="0 0 110 110"><defs><clipPath id="master_svg0_1460_00680"><rect x="0" y="0" width="110" height="110" rx="0"/></clipPath></defs><g clip-path="url(#master_svg0_1460_00680)"><g><g><path d="M69.06000030517578,83.4354916796875L69.06000030517578,83.8064516796875L69.03010030517578,83.8064516796875C68.56040030517579,86.7066916796875,62.62410030517578,88.9999716796875,55.37000030517578,88.9999716796875C48.115900305175785,88.9999716796875,42.179585305175785,86.7066916796875,41.70993990517578,83.8064516796875L41.68000030517578,83.8064516796875L41.68000030517578,80.8387116796875L43.25900030517578,80.8387116796875C45.554340305175785,79.0737216796875,50.11661030517578,77.8709716796875,55.37000030517578,77.8709716796875C60.62340030517578,77.8709716796875,65.18570030517579,79.0737216796875,67.48100030517578,80.8387116796875L69.06000030517578,80.8387116796875L69.06000030517578,83.4354916796875Z" fill-rule="evenodd" fill="#344153" fill-opacity="1"/></g><g><path d="M69.06000030517578,80.8386882421875Q69.06000030517578,80.9843882421875,69.04350030517578,81.1299282421875Q69.02700030517579,81.2754582421875,68.99410030517578,81.4204682421875Q68.96110030517578,81.5654682421875,68.91180030517577,81.7095982421875Q68.86250030517579,81.8537282421875,68.79690030517578,81.9966382421875Q68.73140030517578,82.1395482421875,68.64970030517578,82.2808882421875Q68.56810030517579,82.4222282421875,68.47050030517579,82.5616682421875Q68.37300030517578,82.7010982421875,68.25970030517578,82.8382882421875Q68.14650030517578,82.9754782421875,68.01790030517579,83.1100982421875Q67.88930030517578,83.2447182421875,67.74560030517578,83.3764282421875Q67.60190030517577,83.5081482421875,67.44350030517577,83.6366482421875Q67.28510030517577,83.7651582421875,67.11230030517578,83.8901382421875Q66.93950030517578,84.0151082421875,66.75280030517578,84.1362582421875Q66.56610030517578,84.2574182421875,66.36590030517578,84.3744482421875Q66.16570030517579,84.4914782421875,65.95250030517579,84.6041182421875Q65.73930030517579,84.71674824218749,65.51360030517579,84.8247182421875Q65.28790030517578,84.9326982421875,65.05030030517578,85.0356982421875Q64.81270030517578,85.1386982421875,64.56360030517578,85.2365982421875Q64.31460030517579,85.3343982421875,64.05480030517577,85.4268982421875Q63.79510030517578,85.5192982421875,63.52510030517578,85.6060982421875Q63.25520030517578,85.6928982421875,62.97580030517578,85.7738982421875Q62.69630030517578,85.8547982421875,62.40810030517578,85.9296982421875Q62.11980030517579,86.0045982421875,61.82340030517578,86.0732982421875Q61.52700030517578,86.1419982421875,61.22320030517578,86.2042982421875Q60.919400305175785,86.2665982421875,60.60890030517578,86.3223982421875Q60.29840030517578,86.3780982421875,59.98200030517578,86.4271982421875Q59.665600305175786,86.4762982421875,59.34400030517578,86.5185982421875Q59.02240030517578,86.5608982421875,58.696400305175786,86.5962982421875Q58.37040030517578,86.6316982421875,58.04080030517578,86.6600982421875Q57.71120030517578,86.6884982421875,57.378700305175784,86.7098982421875Q57.046300305175784,86.7312982421875,56.71190030517578,86.7455982421875Q56.37740030517578,86.7598982421875,56.04170030517578,86.7669982421875Q55.70610030517578,86.7741982421875,55.37000030517578,86.7741982421875Q55.03390030517578,86.7741982421875,54.69830030517578,86.7669982421875Q54.36260030517578,86.7598982421875,54.02810030517578,86.7455982421875Q53.69370030517578,86.7312982421875,53.36130030517578,86.7098982421875Q53.02880030517578,86.6884982421875,52.69920030517578,86.6600982421875Q52.36960030517578,86.6316982421875,52.04360030517578,86.5962982421875Q51.71760030517578,86.5608982421875,51.39600030517578,86.5185982421875Q51.07440030517578,86.4762982421875,50.75798030517578,86.4271982421875Q50.44155030517578,86.3780982421875,50.13106030517578,86.3223982421875Q49.82057030517578,86.2665982421875,49.51677030517578,86.2042982421875Q49.21297030517578,86.1419982421875,48.916580305175785,86.0732982421875Q48.62019030517578,86.0045982421875,48.33193030517578,85.9296982421875Q48.04368030517578,85.8547982421875,47.76424030517578,85.7738982421875Q47.484810305175785,85.6928982421875,47.21488030517578,85.6060982421875Q46.944940305175784,85.5192982421875,46.685160305175785,85.4268982421875Q46.42537030517578,85.3343982421875,46.176360305175784,85.2365982421875Q45.92735030517578,85.1386982421875,45.68971030517578,85.0356982421875Q45.45207030517578,84.9326982421875,45.22638030517578,84.8247182421875Q45.00069030517578,84.71674824218749,44.78749030517578,84.6041182421875Q44.57429030517578,84.4914782421875,44.374090305175784,84.3744482421875Q44.17389030517578,84.2574182421875,43.987180305175784,84.1362682421875Q43.80047030517578,84.0151082421875,43.62770030517578,83.8901382421875Q43.45492030517578,83.7651582421875,43.29650030517578,83.6366582421875Q43.138080305175784,83.5081482421875,42.994390305175784,83.3764282421875Q42.85070030517578,83.2447182421875,42.72209030517578,83.1100982421875Q42.59348030517578,82.9754782421875,42.480262305175785,82.8382882421875Q42.367043305175784,82.7010982421875,42.26948730517578,82.5616682421875Q42.17193130517578,82.4222282421875,42.09027230517578,82.2808882421875Q42.00861430517578,82.1395482421875,41.943049305175784,81.9966382421875Q41.87748530517578,81.8537282421875,41.82817430517578,81.7095982421875Q41.77886210517578,81.5654682421875,41.74592140517578,81.4204682421875Q41.71298070517578,81.2754582421875,41.69649050517578,81.1299282421875Q41.68000030517578,80.9843882421875,41.68000030517578,80.8386882421875Q41.68000030517578,80.69297824218751,41.69649050517578,80.5474482421875Q41.71298070517578,80.4019082421875,41.74592140517578,80.2569082421875Q41.77886210517578,80.1118982421875,41.82817430517578,79.9677682421875Q41.87748530517578,79.8236382421875,41.943049305175784,79.6807282421875Q42.00861430517578,79.5378182421875,42.09027230517578,79.3964782421875Q42.17193130517578,79.2551382421875,42.26948730517578,79.1157082421875Q42.367043305175784,78.9762682421875,42.480262305175785,78.8390782421875Q42.59348030517578,78.7018882421875,42.72209030517578,78.5672682421875Q42.85070030517578,78.4326582421875,42.994390305175784,78.3009382421875Q43.138080305175784,78.1692182421875,43.29650030517578,78.0407182421875Q43.45492030517578,77.9122082421875,43.62770030517578,77.7872382421875Q43.80047030517578,77.6622582421875,43.987180305175784,77.5411082421875Q44.17389030517578,77.4199482421875,44.374090305175784,77.3029182421875Q44.57429030517578,77.1858882421875,44.78749030517578,77.0732482421875Q45.00069030517578,76.9606182421875,45.22638030517578,76.8526582421875Q45.45207030517578,76.7446882421875,45.68971030517578,76.6416582421875Q45.92735030517578,76.5386282421875,46.176360305175784,76.4407782421875Q46.42537030517578,76.3429282421875,46.685160305175785,76.2504882421875Q46.944940305175784,76.1580582421875,47.21488030517578,76.0712582421875Q47.484810305175785,75.9844582421875,47.76424030517578,75.9035082421875Q48.04368030517578,75.8225572421875,48.33193030517578,75.7476482421875Q48.62019030517578,75.6727392421875,48.916580305175785,75.6040532421875Q49.21297030517578,75.5353662421875,49.51677030517578,75.4730682421875Q49.82057030517578,75.4107702421875,50.13106030517578,75.3550102421875Q50.44155030517578,75.2992502421875,50.75798030517578,75.2501622421875Q51.07440030517578,75.2010752421875,51.39600030517578,75.1587782421875Q51.71760030517578,75.1164812421875,52.04360030517578,75.0810772421875Q52.36960030517578,75.0456732421875,52.69920030517578,75.0172472421875Q53.02880030517578,74.9888207421875,53.36130030517578,74.9674409421875Q53.69370030517578,74.9460611421875,54.02810030517578,74.9317792421875Q54.36260030517578,74.9174973421875,54.69830030517578,74.9103477921875Q55.03390030517578,74.9031982421875,55.37000030517578,74.9031982421875Q55.70610030517578,74.9031982421875,56.04170030517578,74.9103477921875Q56.37740030517578,74.9174973421875,56.71190030517578,74.9317792421875Q57.046300305175784,74.9460611421875,57.378700305175784,74.9674409421875Q57.71120030517578,74.9888207421875,58.04080030517578,75.0172472421875Q58.37040030517578,75.0456732421875,58.696400305175786,75.0810772421875Q59.02240030517578,75.1164812421875,59.34400030517578,75.1587782421875Q59.665600305175786,75.2010752421875,59.98200030517578,75.2501622421875Q60.29840030517578,75.2992502421875,60.60890030517578,75.3550102421875Q60.919400305175785,75.4107702421875,61.22320030517578,75.4730682421875Q61.52700030517578,75.5353662421875,61.82340030517578,75.6040532421875Q62.11980030517579,75.6727392421875,62.40810030517578,75.7476482421875Q62.69630030517578,75.8225572421875,62.97580030517578,75.9035082421875Q63.25520030517578,75.9844582421875,63.52510030517578,76.0712582421875Q63.79510030517578,76.1580582421875,64.05480030517577,76.2504882421875Q64.31460030517579,76.3429282421875,64.56360030517578,76.4407782421875Q64.81270030517578,76.5386282421875,65.05030030517578,76.6416582421875Q65.28790030517578,76.7446882421875,65.51360030517579,76.8526582421875Q65.73930030517579,76.9606182421875,65.95250030517579,77.0732482421875Q66.16570030517579,77.1858882421875,66.36590030517578,77.3029182421875Q66.56610030517578,77.4199582421875,66.75280030517578,77.5411082421875Q66.93950030517578,77.6622582421875,67.11230030517578,77.7872382421875Q67.28510030517577,77.9122082421875,67.44350030517577,78.0407182421875Q67.60190030517577,78.1692182421875,67.74560030517578,78.3009382421875Q67.88930030517578,78.4326582421875,68.01790030517579,78.5672682421875Q68.14650030517578,78.7018882421875,68.25970030517578,78.8390782421875Q68.37300030517578,78.9762682421875,68.47050030517579,79.1157082421875Q68.56810030517579,79.2551382421875,68.64970030517578,79.3964782421875Q68.73140030517578,79.5378182421875,68.79690030517578,79.6807282421875Q68.86250030517579,79.8236382421875,68.91180030517577,79.9677682421875Q68.96110030517578,80.1118982421875,68.99410030517578,80.2569082421875Q69.02700030517579,80.4019082421875,69.04350030517578,80.5474482421875Q69.06000030517578,80.69297824218751,69.06000030517578,80.8386882421875Z" fill="#6A798F" fill-opacity="1"/></g><g><path d="M51.371036529541016,61.1309928894043L59.35119652954101,61.1309928894043L59.35119652954101,79.5926928894043L51.371039352421015,79.5926928894043L51.371036529541016,61.1309928894043Z" fill="#344153" fill-opacity="1"/></g><g><path d="M29.086986889648436,23.000000431066L80.04858688964845,23.000000431066C82.36198688964843,22.999033372,83.58238688964843,23.760176,83.99998688964844,26L89.99998688964844,58C90.53538688964844,60.8795,89.22478688964844,65.4259,86.25108688964843,65.4527L22.834156889648437,65.9998C19.822828889648438,66.02539999999999,18.45329688964844,61.4151,18.999984889648438,58.5L24.999986889648437,26.5C25.419266889648437,24.2638,26.776856889648435,23.000888776,29.086986889648436,23.000000431066Z" fill="#0F263D" fill-opacity="1"/></g><g><path d="M29.744898569488527,21L79.25509856948852,21C81.49309856948852,20.999411106,83.41429856948852,22.60454,83.82829856948852,24.82074L89.91829856948853,57.4447C90.45749856948852,60.3312,88.25989856948853,63.0008,85.34499856948852,63L23.654978569488527,63C20.740108569488527,63.0008,18.542480569488525,60.3312,19.081730269488524,57.4447L25.171638569488525,24.82074C25.586148569488525,22.60487,27.506118569488525,21,29.742598569488525,21L29.744898569488527,21Z" fill="#344153" fill-opacity="1"/></g><g><path d="M30.19874717285156,23.40743273552307L79.70647717285156,23.40743273552307C80.85857717285157,23.40794783552307,81.84317717285157,24.239726145523072,82.03897717285156,25.378018145523072L87.60377717285157,57.548358145523075C87.85527717285156,59.00085814552307,86.73937717285156,60.32955814552307,85.26897717285156,60.32855814552307L24.292957172851562,60.32855814552307C22.81414217285156,60.32905814552307,21.69665917285156,58.98545814552307,21.962846372851562,57.52695814552307L27.871007172851563,25.34951814552307C28.077717172851564,24.22337714552307,29.056677172851565,23.405611461523073,30.19874717285156,23.40505814552307L30.19874717285156,23.40743273552307Z" fill="#5B95B2" fill-opacity="1"/></g><g><path d="M77.04725931396484,23.407432794570923L43.69395931396484,60.326132794570924L29.237339313964846,60.326132794570924L62.133559313964845,23.40980596457092L77.04485931396485,23.40980596457092L77.04725931396484,23.407432794570923ZM84.37855931396484,38.90143279457092L86.49085931396485,51.12373279457093L79.60945931396483,60.328532794570926L66.91225931396485,60.328532794570926L84.37855931396484,38.90143279457092ZM43.37425931396484,23.407432794570923L24.707359313964844,42.58613279457092L27.868639313964845,25.351892794570922C28.075359313964842,24.22575179457092,29.054309313964843,23.407986110570924,30.196379313964844,23.407432794570923L43.371959313964844,23.407432794570923L43.37425931396484,23.407432794570923Z" fill="#9AD1EC" fill-opacity="1"/></g><g><path d="M25.39171075820923,31.584158486938477L84.27441075820923,31.584158486938477L84.27441075820923,30.397058486938477L25.39171075820923,30.397058486938477L25.39171075820923,31.584158486938477Z" fill="#344153" fill-opacity="1"/></g><g><path d="M40.217757931518555,22.19659399986267L35.836957931518555,61.90969399986267L37.01385793151856,62.03789399986267L41.39465793151855,22.32480199986267L40.217757931518555,22.19659399986267ZM67.18215793151856,22.621573999862672L72.05555793151856,62.759193999862674L73.23475793151854,62.64049399986267L68.35905793151855,22.50523899986267L67.18215793151856,22.621573999862672ZM54.174757931518556,22.690425999862672L54.37125793151856,61.97619399986267L55.555257931518554,61.97149399986267L55.358757931518554,22.68567999986267L54.174757931518556,22.690425999862672Z" fill="#344153" fill-opacity="1"/></g><g><path d="M23.795679597595214,40.634584970092774L85.87042659759521,40.634584970092774L85.87042659759521,39.44748497009277L23.795679597595214,39.44748497009277L23.795679597595214,40.634584970092774ZM22.995294987595216,50.48748497009277L86.67082659759521,50.48748497009277L86.67082659759521,49.30038497009277L22.992926597595215,49.30038497009277L22.995294987595216,50.48748497009277Z" fill="#344153" fill-opacity="1"/></g></g></g></svg>