<svg xmlns="http://www.w3.org/2000/svg" xmlns:xlink="http://www.w3.org/1999/xlink" fill="none" version="1.1" width="110" height="110.00000762939453" viewBox="0 0 110 110.00000762939453"><defs><clipPath id="master_svg0_1460_00832"><rect x="0" y="0" width="110" height="110.00000762939453" rx="0"/></clipPath></defs><g clip-path="url(#master_svg0_1460_00832)"><g><g><path d="M37,26.0485L37,71.0767L27,72L27,25L37,26.0485Z" fill="#5B95B2" fill-opacity="1"/></g><g><path d="M16.69171142578125,26.1094423828125L16.69171142578125,71.00594238281249L26.97441142578125,71.9094423828125L68.19511142578125,75.5279423828125L68.19511142578125,20.9659423828125L53.00001142578125,23.0000023828125L53.49291142578125,69.6963423828125L26.97441142578125,67.73194238281249L26.97441142578125,25.0460423828125L16.69171142578125,26.1094423828125Z" fill="#397492" fill-opacity="1"/></g><g><path d="M21.83349255859375,74.582459375L16.73187255859375,71.005859375L68.19517255859375,75.527899375L67.61047255859376,79.386599375L21.83349255859375,74.582459375Z" fill="#0F263D" fill-opacity="1"/></g><g><path d="M53.50576357421875,23.601318359375L28.59776357421875,25.823868359375Q27.38390327421875,26.347878359375,27.51469257421875,28.835438359375L27.50528927421875,64.192818359375Q27.24884057421875,65.764018359375,29.60987357421875,65.895718359375L53.50576357421875,67.59761835937499L53.50576357421875,23.601318359375Z" fill="#5B95B2" fill-opacity="1"/></g><g><path d="M70.20311939453126,20.965012765625C69.53536939453124,20.900007965625,68.86288239453125,20.900007965625,68.19512939453125,20.965012765625L68.19512939453125,75.52785976562501L70.63139939453124,75.52785976562501L70.20311939453126,20.965012765625Z" fill="#0F263D" fill-opacity="1"/></g><g><path d="M70.203125,20.9659423828125L93.308325,25.8709523828125L93.308325,71.00594238281249L70.631396,75.5279423828125L70.203125,20.9659423828125Z" fill="#397492" fill-opacity="1"/></g><g><path d="M76.5228671875,28.9995528984375L73.8318614875,36.0561658984375C73.8021783875,36.1330558984375,73.7871007875,36.2148058984375,73.7874106875,36.2972258984375L73.7874106875,70.1629958984375C73.7872676875,70.1869958984375,73.7858419475,70.2108958984375,73.7831382775,70.2347958984375C73.7634782875,70.4116958984375,73.7156085875,71.32039589843751,74.8226071875,71.3537958984375C74.8655571875,71.35489589843749,74.9085171875,71.3517958984375,74.9508371875,71.3443958984375L89.9504671875,68.7404958984375L90.0026671875,68.7345958984375C90.1436671875,68.7216958984375,90.8933671875,68.61059589843751,91.0737671875,67.6916958984375C91.0813671875,67.65079589843751,91.0850671875,67.6092958984375,91.0848671875,67.5676958984375L91.0848671875,32.5060658984375Q91.0267671875,30.6724558984375,90.0223671875,30.5399558984375L77.2571671875,28.5738496784375C76.9426671875,28.5249893984375,76.6367371875,28.7023488984375,76.5228671875,28.9995528984375Z" fill="#64D98F" fill-opacity="1"/></g><g><path d="M93.3083736328125,71.005859375L88.9315736328125,74.051609375L67.6104736328125,79.386599375L68.1951756328125,75.52790937500001L93.3083736328125,71.005859375Z" fill="#0F263D" fill-opacity="1"/></g><g><path d="M21.8292236328125,74.5816357421875L21.8292236328125,82.61702574218751L29.0097836328125,83.4898057421875L30.6476336328125,81.4818057421875L54.4409236328125,84.2754357421875L56.2942236328125,87.3314357421875L65.0989236328125,88.9872357421875Q68.3678236328125,89.2522357421875,72.5026236328125,87.3314357421875L73.7771236328125,83.9240557421875L84.47792363281249,81.1330357421875L85.6746236328125,83.2282257421875L88.8905236328125,82.4862357421875L88.9333236328125,74.0516357421875L67.6104236328125,79.3866257421875L21.8292236328125,74.5816357421875Z" fill="#5B95B2" fill-opacity="1"/></g><g><path d="M29.01153564453125,83.489679453125L35.07910564453125,82.704099453125L35.52447564453125,82.054423453125L30.64938564453125,81.481689453125L29.01153564453125,83.489679453125Z" fill="#1F475F" fill-opacity="1"/></g><g><path d="M85.67212802734375,83.2281145703125L79.28997802734375,82.4861245703125L84.47707802734375,81.1329345703125L85.67212802734375,83.2281145703125Z" fill="#1F475F" fill-opacity="1"/></g><g><path d="M53.4929873046875,69.6962778515625L26.9744873046875,67.7318878515625L26.9744873046875,65.6802978515625L53.5912873046875,67.6010978515625L53.4929873046875,69.6962778515625Z" fill="#64D98F" fill-opacity="1"/></g><g><path d="M55.6966552734375,33.8806123828125L55.6966552734375,41.6911823828125C55.6970748904375,41.7843523828125,55.7745132734375,41.8586923828125,55.8676202734375,41.8553123828125L66.6478552734375,41.3287423828125C66.7356552734375,41.3241823828125,66.8044552734375,41.2516423828125,66.8042552734375,41.1637623828125L66.8042552734375,33.0369013828125C66.8046552734375,32.9406375828125,66.7224552734375,32.8647537228125,66.6264552734375,32.8727741238125L55.8513792734375,33.7207643828125C55.7658681734375,33.7252303828125,55.6983337434375,33.7950033828125,55.6966552734375,33.8806123828125Z" fill="#0F263D" fill-opacity="1"/></g><g><path d="M38.3838138671875,26.743718671875L28.6934978671875,27.704538671875Q28.3002765671875,27.619058671875,28.3002765671875,28.970548671875L28.3002765671875,64.152738671875Q28.0822948671875,64.89473867187499,28.9550748671875,65.06913867187501L38.6018138671875,65.854738671875Q39.1694138671875,65.683738671875,39.1694138671875,64.89473867187499L39.1694138671875,27.464338671875Q38.9087138671875,26.691568671875,38.3838138671875,26.743718671875ZM52.5270138671875,25.630728241875L41.592013867187504,26.416316671875Q41.0680138671875,26.678748671875,41.1338138671875,27.856698671875L41.1278138671875,65.309338671875Q41.1047138671875,66.000838671875,42.1083138671875,66.14613867187501L52.8792138671875,66.670238671875Q53.2869138671875,66.436838671875,53.2869138671875,65.680338671875L53.0099138671875,26.438541671875Q53.0031138671875,25.599954371875,52.5270138671875,25.630728241875Z" fill="#0F263D" fill-opacity="1"/></g><g><path d="M42.3776365546875,38.749755859375L41.6356445546875,38.749755859375Q41.4176630546875,38.793353059375,41.4646792546875,39.578939859375L41.4586949546875,56.639655859375Q41.3732123546875,57.075555859375,41.9203015546875,56.857555859375L42.3810555546875,56.686655859375L42.3810555546875,54.857255859375L41.9177385546875,54.686355859375L41.9177385546875,40.714155859375L42.3810555546875,40.583365859375L42.3776365546875,38.749755859375Z" fill="#000000" fill-opacity="1"/></g><g><path d="M39.87554931640625,24.8195874421875L39.87554931640625,66.61213574218749L40.07215831640625,66.61213574218749L40.07215831640625,24.8016357421875L39.87554931640625,24.8195874421875Z" fill="#1F475F" fill-opacity="1"/></g><g><path d="M37.248608234375,38.835205078125L36.506616234375,38.835205078125Q36.288634734375,38.878802278125,36.335650934375,39.664389078125L36.329666634375,56.383105078125Q36.244184034375,56.904605078125,36.791273234375,56.686605078125L37.252027234375,56.601105078125L37.252027234375,54.942705078125L36.788710234375,54.771805078125L36.788710234375,40.799605078125L37.252027234375,40.668815078125L37.248608234375,38.835205078125Z" fill="#010406" fill-opacity="1"/></g><g><path d="M36.788710234375,38.835238459375L36.506616234375,38.835238459375Q36.288634734375,38.878835859375,36.335650934375,39.664422859375L36.329666634375,56.383155859375Q36.244184034375,56.904655859375,36.791273234375,56.686655859375L36.791273234375,38.835238459375L36.788710234375,38.835238459375ZM41.917685234375,38.749755859375L41.635585234375,38.749755859375Q41.417605234375,38.793353059375,41.464625234375,39.578939859375L41.458635234375,56.639655859375Q41.373155234375,57.075555859375,41.920245234375,56.857555859375L41.920245234375,38.749755859375L41.917685234375,38.749755859375Z" fill="#96CEEA" fill-opacity="1"/></g><g><path d="M74.8918710703125,49.1555717578125L74.5918264703125,49.1786517578125C74.5508470703125,49.1810917578125,74.5161666873125,49.1487417578125,74.5157470703125,49.1077017578125L74.5157470703125,43.8240027578125C74.5157470703125,43.7848186578125,74.5475091703125,43.7530541420025,74.5866956703125,43.7530517578125L75.3115880703125,43.7530517578125C75.3532350703125,43.7529039378125,75.3860510703125,43.7884902578125,75.3825370703125,43.8299870578125L74.9551240703125,49.0906017578125C74.9527680703125,49.1248217578125,74.9260030703125,49.1523117578125,74.8918710703125,49.1555717578125Z" fill="#46505D" fill-opacity="1"/></g><g><path d="M74.99183811328125,43.59326171875L75.45771811328125,43.59326171875Q75.66116511328126,43.59326171875,75.66116511328126,43.79671171875L75.66116511328126,49.151361718749996Q75.66116511328126,49.35480171875,75.45771811328125,49.35480171875L74.99183811328125,49.35480171875Q74.78839111328125,49.35480171875,74.78839111328125,49.151361718749996L74.78839111328125,43.79671171875Q74.78839111328125,43.59326171875,74.99183811328125,43.59326171875Z" fill="#0F263D" fill-opacity="1"/></g><g><path d="M75.1526164546875,44.05908203125Q75.2252770546875,44.05908203125,75.2252770546875,44.13174243125L75.2252770546875,47.68184203125Q75.2252770546875,47.75450203125,75.1526164546875,47.75450203125Q75.0799560546875,47.75450203125,75.0799560546875,47.68184203125L75.0799560546875,44.13174243125Q75.0799560546875,44.05908203125,75.1526164546875,44.05908203125Z" fill="#FFFFFF" fill-opacity="1"/></g><g><path d="M56.86268301171875,34.3755223046875L60.68120201171875,34.1071023046875C60.74442201171875,34.1031723046875,60.79794201171875,34.1531813046875,60.79831201171875,34.2165193046875L60.79831201171875,37.8162023046875C60.79838201171875,37.8746823046875,60.75244201171875,37.9228823046875,60.69402201171875,37.9256223046875L56.87721701171875,38.1094123046875C56.81479501171875,38.1123423046875,56.76260001171875,38.0624823046875,56.76267101171875,37.9999923046875L56.76267101171875,34.4849323046875C56.76286701171875,34.4281523046875,56.80614901171875,34.3808023046875,56.86268301171875,34.3755223046875ZM61.86770201171875,33.6942203046875L61.86770201171875,33.9865713046875C61.86770201171875,34.0337833046875,61.90597201171875,34.0720543046875,61.95318201171875,34.0720543046875L65.36651201171875,33.8258633046875C65.41070201171875,33.8218723046875,65.44449201171875,33.7847433046875,65.44431201171875,33.7403803046875L65.44431201171875,33.4505949046875C65.44431201171875,33.4033833046875,65.40603201171875,33.3651123046875,65.35882201171876,33.3651123046875L61.94549201171875,33.6095943046875C61.901632011718746,33.6135583046875,61.86796201171875,33.6501893046875,61.86770201171875,33.6942203046875ZM61.86770201171875,34.4533023046875L61.86770201171875,34.7465123046875C61.86770201171875,34.7937223046875,61.90597201171875,34.8319923046875,61.95318201171875,34.8319923046875L65.36651201171875,34.5858023046875C65.41070201171875,34.5818123046875,65.44449201171875,34.5446823046875,65.44431201171875,34.5003223046875L65.44431201171875,34.2105373046875C65.44431201171875,34.1633283046875,65.40603201171875,34.1250573046875,65.35882201171876,34.1250553046875L61.94549201171875,34.3695323046875C61.90196201171875,34.3734623046875,61.86840201171875,34.4096023046875,61.86770201171875,34.4533023046875ZM61.86770201171875,35.2123923046875L61.86770201171875,35.5047523046875C61.86770201171875,35.5519623046875,61.90597201171875,35.5902323046875,61.95318201171875,35.5902323046875L65.36994201171875,35.3448923046875C65.41412201171875,35.3409023046875,65.44791201171876,35.3037723046875,65.44773201171876,35.2594123046875L65.44773201171876,34.9687723046875C65.44773201171876,34.9215623046875,65.40946201171874,34.8832923046875,65.36225201171875,34.8832923046875L61.94892201171875,35.1277723046875C61.90371201171875,35.1300223046875,61.86810201171875,35.1671323046875,61.86770201171875,35.2123923046875ZM61.86770201171875,35.9714823046875L61.86770201171875,36.2638323046875C61.86770201171875,36.3110423046875,61.90597201171875,36.3493123046875,61.95318201171875,36.3493123046875L65.36651201171875,36.1022723046875C65.41070201171875,36.0982823046875,65.44449201171875,36.061152304687496,65.44431201171875,36.0167923046875L65.44431201171875,35.7261523046875C65.44431201171875,35.6789423046875,65.40603201171875,35.6406723046875,65.35882201171876,35.6406623046875L61.94549201171875,35.8851423046875C61.90098201171875,35.8891623046875,61.86708201171875,35.9267923046875,61.86770201171875,35.9714823046875ZM61.86770201171875,36.7305723046875L61.86770201171875,37.0229223046875C61.86770201171875,37.0701323046875,61.90597201171875,37.1084023046875,61.95318201171875,37.1084023046875L65.36651201171875,36.8613623046875C65.41070201171875,36.8573723046875,65.44449201171875,36.8202423046875,65.44431201171875,36.7758823046875L65.44431201171875,36.4852323046875C65.44431201171875,36.4380223046875,65.40603201171875,36.3997523046875,65.35882201171876,36.3997523046875L61.94549201171875,36.6442323046875C61.90098201171875,36.6482623046875,61.86708201171875,36.6858823046875,61.86770201171875,36.7305723046875ZM61.86770201171875,37.4896623046875L61.86770201171875,37.7820123046875C61.86770201171875,37.8292223046875,61.90597201171875,37.8674923046875,61.95318201171875,37.8674923046875L65.36651201171875,37.621302304687504C65.41070201171875,37.6173123046875,65.44449201171875,37.5801823046875,65.44431201171875,37.5358223046875L65.44431201171875,37.2451723046875C65.44431201171875,37.1979623046875,65.40603201171875,37.159692304687496,65.35882201171876,37.159692304687496L61.94549201171875,37.4050323046875C61.901632011718746,37.4089923046875,61.86796201171875,37.445622304687504,61.86770201171875,37.4896623046875ZM61.86770201171875,38.2513123046875L61.86770201171875,38.5436623046875C61.86770201171875,38.5908723046875,61.90597201171875,38.6291423046875,61.95318201171875,38.6291423046875L65.36651201171875,38.3829523046875C65.41070201171875,38.3789623046875,65.44449201171875,38.3418323046875,65.44431201171875,38.2974723046875L65.44431201171875,38.0068323046875C65.44431201171875,37.9596223046875,65.40603201171875,37.9213523046875,65.35882201171876,37.9213523046875L61.94464201171875,38.1658323046875C61.90079201171875,38.1702423046875,61.86748201171875,38.2072523046875,61.86770201171875,38.2513123046875ZM61.86770201171875,39.0078323046875L61.86770201171875,39.3001923046875C61.86770201171875,39.3474023046875,61.90597201171875,39.3856723046875,61.95318201171875,39.3856723046875L65.36651201171875,39.1394823046875C65.41070201171875,39.1354923046875,65.44449201171875,39.0983623046875,65.44431201171875,39.0539923046875L65.44431201171875,38.7642123046875C65.44431201171875,38.7170023046875,65.40603201171875,38.6787323046875,65.35882201171876,38.6787323046875L61.94549201171875,38.923212304687496C61.90164201171875,38.9271723046875,61.86797201171875,38.9638023046875,61.86770201171875,39.0078323046875ZM61.86770201171875,39.7677823046875L61.86770201171875,40.0592723046875C61.86770201171875,40.1064923046875,61.90597201171875,40.144762304687504,61.95318201171875,40.144762304687504L65.36651201171875,39.8985723046875C65.41070201171875,39.8945723046875,65.44449201171875,39.8574523046875,65.44431201171875,39.8130823046875L65.44431201171875,39.5224423046875C65.44431201171875,39.4752323046875,65.40603201171875,39.4369623046875,65.35882201171876,39.4369623046875L61.94549201171875,39.6814423046875C61.90098201171875,39.6854623046875,61.86708201171875,39.7230923046875,61.86770201171875,39.7677823046875ZM61.86770201171875,40.5268623046875L61.86770201171875,40.8158023046875C61.86770201171875,40.8630123046875,61.90597201171875,40.9012823046875,61.95318201171875,40.9012823046875L65.36651201171875,40.6550923046875C65.41070201171875,40.6511023046875,65.44449201171875,40.6139723046875,65.44431201171875,40.5696023046875L65.44431201171875,40.2789623046875C65.44431201171875,40.231752304687504,65.40603201171875,40.1934823046875,65.35882201171876,40.1934823046875L61.94549201171875,40.4379623046875C61.89997201171875,40.4420423046875,61.86570201171875,40.4812023046875,61.86770201171875,40.5268623046875ZM56.40107154845875,39.0206623046875L56.40107154845875,39.3839623046875C56.40050888071875,39.4154323046875,56.42693521171875,39.4406723046875,56.45834441171875,39.4386723046875L58.93735201171875,39.299332304687496C58.96622201171875,39.2975223046875,58.98869201171875,39.2735523046875,58.98864201171875,39.244622304687496L58.98864201171875,38.8847423046875C58.98870201171875,38.8531423046875,58.96205201171875,38.8280523046875,58.93051201171875,38.8300323046875L56.45150661171875,38.9659523046875C56.42297271171875,38.9681823046875,56.40098571781875,38.9920323046875,56.40107154845875,39.0206623046875ZM56.40107154845875,39.7771823046875L56.40107154845875,40.1413423046875C56.40103340151875,40.1725823046875,56.42713071171875,40.1975123046875,56.45834441171875,40.1960523046875L58.93735201171875,40.0558623046875C58.96622201171875,40.0540523046875,58.98869201171875,40.0300723046875,58.98864201171875,40.0011523046875L58.98864201171875,39.6412623046875C58.98870201171875,39.609662304687504,58.96205201171875,39.5845823046875,58.93051201171875,39.5865523046875L56.45150661171875,39.7224723046875C56.42297271171875,39.7247023046875,56.40098094941875,39.748562304687496,56.40107154845875,39.7771823046875ZM56.40107154845875,40.5362723046875L56.40107154845875,40.9012823046875C56.40103340151875,40.9325223046875,56.42713071171875,40.9574523046875,56.45834441171875,40.9559923046875L58.93735201171875,40.8158023046875C58.96622201171875,40.8139923046875,58.98869201171875,40.7900123046875,58.98864201171875,40.7610923046875L58.98864201171875,40.4012023046875C58.98819201171875,40.3698223046875,58.96186201171875,40.3450523046875,58.93051201171875,40.3464923046875L56.45150661171875,40.4824123046875C56.42329691171875,40.4846223046875,56.40142917671875,40.5079723046875,56.40107154845875,40.5362723046875ZM59.16559201171875,38.8710623046875L59.16559201171875,39.2352223046875C59.16555201171875,39.2664623046875,59.19165201171875,39.2913923046875,59.22286201171875,39.2899323046875L60.84704201171875,39.2352223046875C60.87591201171875,39.2334123046875,60.89838201171875,39.2094423046875,60.89833201171875,39.1805123046875L60.89833201171875,38.8206323046875C60.89836201171875,38.7893823046875,60.87227201171875,38.7644523046875,60.84105201171875,38.7659223046875L59.21688201171875,38.8163523046875C59.18801201171875,38.8181623046875,59.16553201171875,38.8421323046875,59.16559201171875,38.8710623046875ZM59.16559201171875,39.6327123046875L59.16559201171875,39.9960123046875C59.16555201171875,40.0272623046875,59.19165201171875,40.0521923046875,59.22286201171875,40.0507323046875L60.84704201171875,39.9960123046875C60.87591201171875,39.9942123046875,60.89838201171875,39.9702323046875,60.89833201171875,39.9413023046875L60.89833201171875,39.5822823046875C60.89836201171875,39.5510323046875,60.872262011718746,39.5261023046875,60.84105201171875,39.5275723046875L59.21688201171875,39.5780023046875C59.18781201171875,39.5793823046875,59.16509201171875,39.6036123046875,59.16559201171875,39.6327123046875ZM59.16559201171875,40.3935123046875L59.16559201171875,40.7576723046875C59.16553201171875,40.7888023046875,59.19180201171875,40.8135023046875,59.22286201171875,40.8115223046875L60.84704201171875,40.7576723046875C60.87591201171875,40.7558623046875,60.89838201171875,40.7318923046875,60.89833201171875,40.7029623046875L60.89833201171875,40.3430823046875C60.89836201171875,40.3118323046875,60.872262011718746,40.2869023046875,60.84105201171875,40.2883723046875L59.21688201171875,40.3388023046875C59.18801201171875,40.3406123046875,59.16553201171875,40.3645823046875,59.16559201171875,40.3935123046875Z" fill="#64D98F" fill-opacity="1"/></g></g></g></svg>