<svg xmlns="http://www.w3.org/2000/svg" xmlns:xlink="http://www.w3.org/1999/xlink" fill="none" version="1.1" width="110" height="110" viewBox="0 0 110 110"><defs><clipPath id="master_svg0_1460_00507"><rect x="0" y="0" width="110" height="110" rx="0"/></clipPath><clipPath id="master_svg1_1460_00509"><rect x="88.478271484375" y="14.34783935546875" width="64.56522369384766" height="81.30435180664062" rx="0"/></clipPath></defs><g clip-path="url(#master_svg0_1460_00507)"><g transform="matrix(-1,0,0,1,176.95654296875,0)" clip-path="url(#master_svg1_1460_00509)"><g><path d="M114.565185546875,68L112.565185546875,68L112.565185546875,92L114.565185546875,92L114.565185546875,68Z" fill="#0F263D" fill-opacity="1"/></g><g><path d="M137.565185546875,68L135.565185546875,68L135.565185546875,92L137.565185546875,92L137.565185546875,68Z" fill="#0F263D" fill-opacity="1"/></g><g><path d="M99.95654296875,84.575L112.64594296875,83L138.18634296875,83L150.95654296875,84.575L150.95654296875,86L138.18634296875,84.875L112.64594296875,84.875L99.95654296875,86L99.95654296875,84.575Z" fill="#0F263D" fill-opacity="1"/></g><g><path d="M150.95654296875,68L148.95654296875,68L148.95654296875,93L150.95654296875,93L150.95654296875,68Z" fill="#325F75" fill-opacity="1"/></g><g><path d="M101.95654296875,68L99.95654296875,68L99.95654296875,93L101.95654296875,93L101.95654296875,68Z" fill="#325F75" fill-opacity="1"/></g><g><path d="M99.95654296875,68.2141L102.37160296875,69.2793L107.12123296875001,70.09870000000001L113.64194296875,70.6722L121.37014296875,71L129.42034296875,71L136.98754296875,70.6722L143.50814296875,70.09870000000001L148.17724296875,69.2793L150.95654296875,68L150.95654296875,27.99499L147.03704296875,25.79104L142.68204296875,24.46868L136.36734296875,23.31104L129.39944296875,22L123.30244296875,22.264732L118.29424296875,23.3667L109.80202296875,25.12986L104.57605296875,26.45223L100.00332496875,27.5542L99.95654296875,68.2141Z" fill="#5B95B2" fill-opacity="1"/></g><g></g><g><path d="M109.565185546875,70L107.565185546875,70L107.565185546875,93L109.565185546875,93L109.565185546875,70Z" fill="#5B95B2" fill-opacity="1"/></g><g><path d="M142.565185546875,70L140.565185546875,70L140.565185546875,93L142.565185546875,93L142.565185546875,70Z" fill="#5B95B2" fill-opacity="1"/></g><g><path d="M150.95654296875,86.9L143.95654296875,89L105.95654296875,89L99.95654296875,86.9L99.95654296875,85L105.95654296875,87L143.95654296875,86.90002L150.95654296875,85L150.95654296875,86.9Z" fill="#5B95B2" fill-opacity="1"/></g><g><path d="M150.899655859375,27.92830109375C150.899655859375,31.136401093750003,139.985455859375,33.30682109375,125.704255859375,33.30682109375C111.422955859375,33.30682109375,99.624755859375,30.70612109375,99.624755859375,27.49802109375C99.624755859375,24.28993109375,111.865055859375,21.47412109375,126.146255859375,21.47412109375C140.42745585937502,21.47412109375,150.899655859375,24.72021109375,150.899655859375,27.92830109375Z" fill="#9AD1EC" fill-opacity="1"/></g><g><path d="M134.93084296875,24.5C134.93084296875,25.32843,130.45944296875,26,124.94367296875001,26C119.42793296875,26,114.95654296875,25.32843,114.95654296875,24.5C114.95654296875,24.39723,114.95655216176,24.3,114.95658864295,24.2C114.95662512405,24.1,120.11218296875,23,124.94367296875001,23C130.00844296875,23,134.28054296875,23.366011,134.93084296875,24.1C134.98874296875,24.16535,134.93084296875,24.43227,134.93084296875,24.5Z" fill="#5B95B2" fill-opacity="1"/></g><g><ellipse cx="124.95654296875" cy="24" rx="10" ry="1" fill="#CFEFFF" fill-opacity="1"/></g><g><path d="M127.95654296875,22L121.95654296875,22L121.95654296875,24L127.95654296875,24L127.95654296875,22Z" fill="#325F75" fill-opacity="1"/></g><g><path d="M128.95654296875,21L120.95654296875,21L120.95654296875,23L128.95654296875,23L128.95654296875,21Z" fill="#5B95B2" fill-opacity="1"/></g><g><g><path d="M92.366059609375,91.4158322265625L92.366059609375,46.4459322265625L102.816449609375,31.2787472265625L101.277149609375,30.5455322265625L90.745849609375,45.9571322265625L90.745849609375,91.4158322265625L92.366059609375,91.4158322265625Z" fill="#325F75" fill-opacity="1"/></g><g><path d="M96.173852421875,51.49706493164062L91.637273421875,50.275054931640625L91.313232421875,51.00826093164063L96.092842421875,52.230264931640626L96.173852421875,51.49706493164062Z" fill="#325F75" fill-opacity="1"/></g><g><path d="M96.173852421875,61.273035390625L91.637273421875,60.051025390625L91.313232421875,60.865698390625L96.092842421875,62.087705390625L96.173852421875,61.273035390625Z" fill="#325F75" fill-opacity="1"/></g><g><path d="M96.173852421875,70.47878490234375L91.637273421875,69.25677490234375L91.313232421875,70.07144790234375L96.092842421875,71.29345490234375L96.173852421875,70.47878490234375Z" fill="#325F75" fill-opacity="1"/></g><g><path d="M96.173852421875,79.684656484375L91.637273421875,78.462646484375L91.313232421875,79.277319484375L96.092842421875,80.499326484375L96.173852421875,79.684656484375Z" fill="#325F75" fill-opacity="1"/></g><g><path d="M96.174519453125,79.6845801171875L91.637939453125,78.4625761171875L91.799960453125,77.7293701171875L96.498559453125,78.9513801171875L96.174519453125,79.6845801171875Z" fill="#325F75" fill-opacity="1"/></g><g><path d="M96.174519453125,51.49692224609375L91.637939453125,50.27490924609375L91.799960453125,49.29730224609375L96.498559453125,50.51931224609375L96.174519453125,51.49692224609375Z" fill="#325F75" fill-opacity="1"/></g><g><path d="M96.174519453125,61.273111611328126L91.637939453125,60.05110761132813L91.799960453125,59.317901611328125L96.498559453125,60.53991161132812L96.174519453125,61.273111611328126Z" fill="#325F75" fill-opacity="1"/></g><g><path d="M96.174519453125,70.47870853515624L91.637939453125,69.25670453515625L91.799960453125,68.52349853515625L96.498559453125,69.74550853515625L96.174519453125,70.47870853515624Z" fill="#325F75" fill-opacity="1"/></g><g><path d="M97.145800078125,93.371032421875L97.145800078125,48.401132421875L107.515180078125,33.233947421875L106.137980078125,32.500732421875L95.444580078125,47.912332421875L95.444580078125,93.371032421875L97.145800078125,93.371032421875Z" fill="#325F75" fill-opacity="1"/></g></g></g></g></svg>